<svg width="360" height="256" viewBox="0 0 360 256" fill="none" xmlns="http://www.w3.org/2000/svg">
<path d="M320.884 255.885C341.962 255.885 359.049 252.4 359.049 248.101C359.049 243.801 341.962 240.316 320.884 240.316C299.806 240.316 282.719 243.801 282.719 248.101C282.719 252.4 299.806 255.885 320.884 255.885Z" fill="#B2D3E4"/>
<path d="M6.12738 246.792C6.12738 251.097 23.212 254.576 44.2922 254.576C65.3724 254.576 82.457 251.097 82.457 246.792C82.457 242.486 65.3724 239.007 44.2922 239.007C23.212 239.007 6.12738 242.486 6.12738 246.792Z" fill="#B2D3E4"/>
<path d="M136.053 23.5896H119.485V169.601H136.053V23.5896Z" fill="#4A4F66"/>
<path d="M244.692 23.5896H228.124V169.601H244.692V23.5896Z" fill="#4A4F66"/>
<path d="M66.4058 216.515L119.485 169.601H244.141L295.842 216.515H66.4058Z" fill="#C6E0DD"/>
<path d="M259.985 59.4464H256.128V192.197H259.985V59.4464Z" fill="#89A59D"/>
<path d="M250.858 51.3176H247V184.068H250.858V51.3176Z" fill="#89A59D"/>
<path d="M108.394 58.9991H104.536V191.749H108.394V58.9991Z" fill="#89A59D"/>
<path d="M117.487 50.9045H113.63V183.655H117.487V50.9045Z" fill="#89A59D"/>
<path d="M66.4058 39.6754V40.0543V63.9245V212.554V235.597V253.405H295.842V235.597V212.554V63.9245V40.0543V39.6754H66.4058ZM255.473 212.554H106.775C97.8539 212.554 90.6549 205.32 90.6549 196.434V80.0447C90.6549 71.1235 97.8883 63.9245 106.775 63.9245H255.473C264.394 63.9245 271.593 71.1579 271.593 80.0447V196.434C271.593 205.32 264.394 212.554 255.473 212.554Z" fill="#5F6386"/>
<path d="M295.842 216.515H66.4058V253.405H295.842V216.515Z" fill="#555A77"/>
<path d="M152.173 220.82H89.3804V245.173H152.173V220.82Z" fill="#114665"/>
<path d="M149.624 222.508H91.1026V242.831H149.624V222.508Z" fill="#CCEDE6"/>
<path d="M91.1026 242.831L122.654 222.508H130.921L97.9227 242.831H91.1026Z" fill="white"/>
<path d="M102.883 242.831L133.814 222.508H136.053L105.983 242.831H102.883Z" fill="white"/>
<path d="M172.013 222.508H162.438V229.053H172.013V222.508Z" fill="#ADCCC7"/>
<path d="M185.929 222.508H176.353V229.053H185.929V222.508Z" fill="#ADCCC7"/>
<path d="M199.845 222.508H190.269V229.053H199.845V222.508Z" fill="#ADCCC7"/>
<path d="M213.726 222.508H204.15V229.053H213.726V222.508Z" fill="#ADCCC7"/>
<path d="M172.013 232.325H162.438V238.869H172.013V232.325Z" fill="#ADCCC7"/>
<path d="M185.929 232.325H176.353V238.869H185.929V232.325Z" fill="#ADCCC7"/>
<path d="M199.845 232.325H190.269V238.869H199.845V232.325Z" fill="#ADCCC7"/>
<path d="M213.726 232.325H204.15V238.869H213.726V232.325Z" fill="#ADCCC7"/>
<path d="M288.368 220.82H262.293V229.087H288.368V220.82Z" fill="#FFAA3F"/>
<path d="M244.692 23.5896H119.485L66.4058 40.0542H295.842L244.692 23.5896ZM125.272 30.1341H241.936L256.265 34.4741H111.012L125.272 30.1341Z" fill="#7F84B3"/>
<path d="M228.124 184.412H134.159V199.775H228.124V184.412Z" fill="#E4F2EE"/>
<path d="M134.159 184.412L147.489 170.876H213.898L228.124 184.412H134.159Z" fill="#EEFFFB"/>
<path d="M278.689 57.2422H80.5281C77.6348 57.2422 75.327 54.8999 75.327 52.041C75.327 49.1476 77.6692 46.8398 80.5281 46.8398H278.689C281.582 46.8398 283.89 49.1821 283.89 52.041C283.89 54.9344 281.548 57.2422 278.689 57.2422Z" fill="#797EAB"/>
<path d="M196.469 114.317H108.36V116.246H196.504C196.332 115.592 196.297 114.937 196.469 114.317Z" fill="#89A59D"/>
<path d="M198.054 110.7H115.558V112.629H197.744C197.985 112.492 198.226 112.526 198.398 112.629H198.605C198.123 112.113 197.881 111.424 198.054 110.7Z" fill="#89A59D"/>
<path d="M197.882 110.7H153.758V118.106H197.882V110.7Z" fill="#0AA8A7"/>
<path d="M179.867 118.141H167.226V122.033H179.867V118.141Z" fill="#09827E"/>
<path d="M178.179 121.792H174.838H171.841H168.5L166.33 125.167V142.665L170.911 146.316H171.841H174.838H175.768L180.349 142.665V125.167L178.179 121.792Z" fill="#953F5A"/>
<path d="M174.184 121.792L176.25 125.374V142.114L173.322 146.316H175.768L180.349 142.665V125.167L178.179 121.792H174.184Z" fill="#77334C"/>
<path d="M153.758 110.701L159.82 107.669H201.223L197.847 110.701H153.758Z" fill="#0AA8A7"/>
<path d="M201.223 107.669V115.695L197.847 118.141V110.701L201.223 107.669Z" fill="#09827E"/>
<path d="M197.193 159.784C196.883 159.853 196.573 159.922 196.263 159.991L196.917 161.128C197.434 162.023 196.779 163.16 195.746 163.16H192.784C192.301 163.16 191.854 162.884 191.613 162.471L190.786 161.024C190.476 161.093 190.166 161.128 189.856 161.197L190.855 162.919C191.096 163.332 191.096 163.849 190.855 164.297L187.617 169.877C187.376 170.29 186.928 170.566 186.446 170.566H180.005C179.522 170.566 179.075 170.29 178.834 169.877L175.596 164.297C175.355 163.883 175.355 163.367 175.596 162.919L178.834 157.339C178.971 157.063 179.212 156.891 179.488 156.753C179.454 156.374 179.419 155.995 179.419 155.617C179.178 155.513 178.971 155.307 178.834 155.065L177.352 152.517C176.836 151.621 177.49 150.484 178.524 150.484H178.868C178.799 150.174 178.73 149.899 178.661 149.589H175.94C175.458 149.589 175.01 149.864 174.769 150.278L167.467 162.953C167.226 163.367 167.226 163.883 167.467 164.331L174.769 177.007C175.01 177.42 175.458 177.696 175.94 177.696H190.51C190.993 177.696 191.44 177.42 191.681 177.007L198.984 164.331C199.225 163.918 199.225 163.401 198.984 162.953L197.193 159.784ZM169.465 161.128L174.183 152.964C174.7 152.069 176.009 152.069 176.56 152.964L178.041 155.513C178.282 155.927 178.282 156.443 178.041 156.891L174.803 162.471C174.562 162.884 174.115 163.16 173.632 163.16H170.67C169.602 163.194 168.948 162.058 169.465 161.128ZM174.183 174.286L169.465 166.122C168.948 165.227 169.602 164.09 170.636 164.09H173.598C174.08 164.09 174.528 164.366 174.769 164.779L178.007 170.359C178.248 170.772 178.248 171.289 178.007 171.737L176.526 174.286C176.009 175.181 174.7 175.181 174.183 174.286ZM187.927 176.766H178.524C177.456 176.766 176.801 175.629 177.352 174.733L178.834 172.185C179.075 171.771 179.522 171.496 180.005 171.496H186.446C186.928 171.496 187.376 171.771 187.617 172.185L189.098 174.733C189.615 175.629 188.96 176.766 187.927 176.766ZM196.951 166.122L192.233 174.286C191.716 175.181 190.407 175.181 189.856 174.286L188.375 171.737C188.134 171.323 188.134 170.807 188.375 170.359L191.613 164.779C191.854 164.366 192.301 164.09 192.784 164.09H195.746C196.814 164.056 197.468 165.192 196.951 166.122Z" fill="#C92041"/>
<path d="M197.847 115.316C197.847 115.351 197.847 115.351 197.847 115.385C197.882 115.867 198.329 116.212 198.812 116.212H257.127C257.643 116.212 258.091 115.798 258.091 115.247C258.091 114.731 257.678 114.283 257.127 114.283H198.777C198.226 114.317 197.813 114.765 197.847 115.316Z" fill="#89A59D"/>
<path d="M199.431 111.355C199.397 111.458 199.363 111.562 199.363 111.665C199.225 112.182 199.638 112.664 200.155 112.664H248.929V110.735H200.258C199.879 110.701 199.535 110.976 199.431 111.355Z" fill="#89A59D"/>
<path d="M170.705 109.185C170.705 109.185 168.776 96.7159 181.451 86.7269C194.161 76.7379 192.715 63.89 192.715 63.89H203.289C203.289 63.89 202.428 80.3546 195.16 88.7247C187.927 97.1292 183.277 103.364 183.277 109.15H170.705V109.185Z" fill="#4A4F66"/>
<path d="M186.928 34.4742C186.928 34.4742 144.32 -1.21057 111.012 8.70952C77.7036 18.6296 80.0803 36.4376 80.0803 36.4376L71.8136 38.4009C71.8136 38.4009 71.2969 6.98729 110.977 0.752781C150.692 -5.48172 191.716 28.8942 198.57 34.5087H186.928V34.4742Z" fill="#4A4F66"/>
<path d="M64.6491 207.49H16.3919V218.995H20.7664L28.9643 247.377L33.7865 248.238C38.3677 249.031 43.0177 249.1 47.6333 248.376L53.9023 247.377L60.5846 218.96H64.6835V207.49H64.6491Z" fill="#AACEC5"/>
<path d="M64.6491 207.869C64.6491 208.903 55.0046 209.282 40.7789 209.282C27.1732 209.282 16.1508 208.455 16.1508 207.387C16.1508 206.354 27.1732 205.493 40.7789 205.493C54.3501 205.527 64.6491 206.802 64.6491 207.869Z" fill="#89A59D"/>
<path d="M20.7664 218.995C20.7664 218.995 43.1555 222.646 60.5501 218.995C60.5501 218.995 37.9199 222.784 21.7309 222.405L20.7664 218.995Z" fill="#89A59D"/>
<path d="M39.5733 207.008C39.5733 207.008 22.9709 194.539 24.8998 186.72C26.8287 178.867 31.1688 180.245 24.7276 170.118C18.3209 159.957 12.913 146.282 19.0786 143.664C25.2443 141.046 13.6708 133.813 17.9075 122.756C22.1442 111.699 31.031 121.93 32.9599 129.749C34.8888 137.567 29.481 138.945 35.2677 143.664C41.0544 148.383 42.9833 154.17 41.8466 162.471C40.6755 170.772 36.301 168.292 42.1566 175.526C48.0811 182.725 39.5733 207.008 39.5733 207.008Z" fill="#869A4E"/>
<path d="M39.5733 207.008C39.5733 207.008 33.8899 195.814 40.641 187.202C47.3922 178.591 44.5678 179.211 44.2577 170.6C43.9477 161.989 43.5344 164.228 48.9422 157.89C54.3501 151.552 50.4923 153.688 51.25 144.146C52.0078 134.571 54.3501 126.27 60.5157 126.373C66.6813 126.476 63.2024 149.348 60.5157 154.342C57.829 159.302 61.6868 163.401 60.5157 170.635C59.3446 177.868 53.5578 178.35 53.9367 183.689C54.3845 188.994 52.9723 201.841 39.5733 207.008Z" fill="#869A4E"/>
<path d="M39.5733 207.008C39.5733 207.008 40.4344 193.437 32.8565 189.441C25.2787 185.411 28.5165 183.999 25.6231 178.832C22.7298 173.666 20.112 177.351 18.3897 173.356C16.6675 169.326 24.0042 168.774 16.4264 163.849C8.84853 158.923 8.84853 160.749 6.81629 154.618C4.78404 148.487 -3.62048 156.374 1.89068 162.127C7.40185 167.879 5.95517 167.603 6.81629 172.667C7.67741 177.73 10.8808 175.87 14.6353 177.386C18.3897 178.901 14.9108 183.999 18.3897 187.237C21.8687 190.475 23.5909 187.306 25.6231 191.921C27.6554 196.537 27.4832 199.809 39.5733 207.008Z" fill="#AEC47B"/>
<path d="M40.6066 204.287L40.4344 203.667C30.9621 171.427 22.3853 122.377 22.3164 121.895L22.7986 121.826C22.8675 122.308 31.341 170.703 40.7444 202.944C41.8466 200.636 45.9455 191.715 49.8722 179.728C54.0745 166.914 59.0001 147.866 58.3457 129.955L58.8279 129.921C59.4823 147.901 54.5567 167.018 50.3545 179.9C45.7733 193.816 40.951 203.633 40.9166 203.736L40.6066 204.287Z" fill="#616B38"/>
<path d="M38.8155 205.802C31.651 196.502 2.99293 158.406 2.71738 158.028L3.13071 157.718C3.40627 158.096 32.0988 196.158 39.2288 205.493L38.8155 205.802Z" fill="#616B38"/>
<path d="M320.918 142.975C320.918 143.01 320.953 143.044 320.953 143.079C320.884 143.595 320.918 144.147 321.125 144.767C322.055 147.488 331.941 150.415 331.079 140.22C331.079 140.22 330.149 137.671 329.977 136.672C329.839 135.673 326.533 138.808 324.087 137.43L323.846 138.256L323.571 139.29C323.571 139.324 323.536 139.359 323.536 139.393C323.364 139.875 322.916 140.22 322.399 140.22H321.159C321.125 140.22 320.815 142.218 320.918 142.975Z" fill="#FF8B66"/>
<path d="M317.956 245.173C317.956 245.173 317.612 241.935 317.956 240.316C318.301 238.698 314.891 239.972 314.202 239.8C313.513 239.662 313.892 243.382 313.582 244.657C313.272 245.965 317.715 247.481 317.956 245.173Z" fill="#FF8B66"/>
<path d="M308.725 250.684C308.725 250.857 308.759 251.029 308.794 251.236C308.966 252.131 311.894 252.234 313.582 251.752C315.269 251.236 318.438 247.584 318.438 247.584C318.438 247.584 318.404 247.137 318.335 246.585C318.266 245.931 318.163 245.139 318.025 244.794C317.818 244.174 317.336 245.552 316.682 245.518C316.027 245.483 316.509 244.588 315.752 244.347C314.994 244.105 313.651 244.037 313.272 244.347C312.858 244.657 311.963 246.482 311.377 247.171C310.757 247.86 309.31 248.928 308.794 249.892C308.794 249.892 308.69 250.168 308.725 250.684Z" fill="#103649"/>
<path d="M308.725 250.684C308.725 250.857 308.759 251.029 308.794 251.235C308.966 252.131 311.894 252.234 313.582 251.752C315.269 251.235 318.438 247.584 318.438 247.584C318.438 247.584 318.404 247.137 318.335 246.585C317.577 247.481 314.718 250.891 312.789 251.201C311.067 251.511 309.621 251.167 308.725 250.684Z" fill="#1F6D8C"/>
<path d="M339.277 241.522C339.277 241.522 338.244 239.076 338.347 237.388C338.451 235.701 335.867 237.457 335.144 237.388C334.421 237.319 335.695 240.42 335.316 242.796C334.972 245.173 340.104 243.485 339.277 241.522Z" fill="#FF8B66"/>
<path d="M333.697 250.098C333.697 250.305 333.732 250.477 333.766 250.65C334.076 251.924 336.246 251.717 337.176 251.476C338.106 251.235 338.623 249.857 338.864 249.065C339.105 248.273 339.966 243.416 339.863 242.693C339.794 242.314 339.656 241.935 339.484 241.659C339.381 241.453 339.071 241.074 339.036 241.005C339.071 241.108 339.45 241.935 338.52 242.348C338.003 242.589 338.072 242.038 337.59 242.004C337.073 241.969 335.213 242.314 335.213 242.314C335.213 242.314 334.696 243.623 334.49 244.932C334.352 246.103 333.628 248.652 333.697 250.098Z" fill="#103649"/>
<path d="M333.697 250.099C333.697 250.305 333.732 250.477 333.766 250.65C334.076 251.924 336.246 251.717 337.176 251.476C338.106 251.235 338.623 249.857 338.864 249.065C339.105 248.273 339.966 243.416 339.863 242.693C339.794 242.314 339.656 241.935 339.484 241.66L339.346 242.073C339.346 242.073 338.864 249.651 337.107 250.374C335.661 250.994 334.593 251.132 333.697 250.099Z" fill="#1F6D8C"/>
<path d="M311.722 213.036C311.722 216.687 311.17 235.322 312.238 239.455C312.617 240.971 313.719 241.866 314.925 242.176C317.026 242.727 319.506 241.591 319.403 239.249C319.265 235.563 321.779 220.752 321.642 218.168C321.504 215.585 322.055 212.588 322.193 206.629C322.331 200.67 324.363 190.337 324.363 190.337C324.363 190.337 324.432 190.544 324.501 190.923C324.914 192.748 326.188 198.363 326.533 203.185C326.946 209.006 327.807 218.031 328.909 221.544C330.012 225.057 332.871 238.456 332.871 238.456C334.248 239.145 335.351 239.455 336.212 239.559C339.14 239.834 339.587 237.526 339.587 237.526C339.587 237.526 340.001 234.771 339.863 230.017C339.725 225.264 339.208 219.649 338.244 216.928C337.28 214.207 337.142 213.277 337.417 209.35C337.727 205.424 338.244 197.157 338.244 191.06C338.244 184.964 336.625 179.969 336.625 179.969H312.789C312.72 180.176 312.652 180.382 312.548 180.624C310.688 187.134 311.722 209.488 311.722 213.036Z" fill="#1C5276"/>
<path d="M319.747 127.268C319.747 129.266 320.987 134.054 321.848 135.639C322.227 136.293 322.744 137.085 323.364 137.774C323.433 137.843 323.502 137.912 323.571 137.981C324.363 138.807 325.224 139.393 325.947 139.221C326.636 139.083 327.428 138.739 328.186 138.256C328.737 137.877 329.288 137.43 329.805 136.913C329.908 136.775 330.046 136.637 330.15 136.5C331.286 135.053 332.733 132.022 333.043 128.198C333.077 127.82 333.077 127.475 333.077 127.131C333.112 123.893 331.183 120.862 328.117 119.76C322.089 117.555 319.747 125.581 319.747 127.268Z" fill="#FF9578"/>
<path d="M315.51 171.186C315.476 171.254 315.442 171.358 315.442 171.427C313.995 175.87 312.617 178.901 312.204 181.037C312.169 181.209 312.204 181.381 312.342 181.553C312.824 182.242 314.512 182.897 316.888 183.379C322.262 184.412 331.114 184.447 337.073 181.726C337.073 181.726 336.005 176.49 335.316 172.253C338.864 170.324 344.479 167.293 344.892 166.191C345.477 164.607 343.032 157.511 343.17 155.926C343.307 154.342 340.621 145.042 338.898 143.079C336.763 140.633 331.079 140.254 331.079 140.254C331.079 140.254 329.977 147.177 325.844 146.764C322.296 146.385 321.435 143.63 321.469 140.289H320.471C320.471 140.289 318.783 140.771 317.267 141.391C316.199 141.839 315.235 142.321 314.925 142.803C313.616 144.904 309.586 156.236 309.655 157.304C309.724 158.372 308.07 159.44 310.309 163.401C311.033 164.675 313.099 168.671 314.098 170.565C314.374 171.048 314.959 171.323 315.51 171.186ZM335.144 158.854C335.454 157.855 335.592 155.238 335.764 152.448C335.798 152.654 335.867 152.861 335.902 153.068C336.522 155.754 337.486 159.681 337.968 160.68C338.83 162.471 339.174 163.298 338.588 163.367C337.521 163.504 338.347 164.159 337.004 164.951C336.522 165.227 335.626 165.847 334.662 166.57C334.558 163.987 334.455 160.99 335.144 158.854ZM314.994 162.127C314.925 160.99 314.994 160.99 314.615 159.681C314.236 158.475 316.957 151.208 317.129 150.863C317.129 150.863 317.129 150.863 317.129 150.898C316.75 152.103 316.475 152.999 316.303 153.791C315.958 155.306 316.062 156.443 316.544 158.785C317.164 161.748 317.646 163.091 316.819 166.708C316.75 166.535 316.647 166.329 316.544 166.122C315.889 164.744 315.028 162.815 314.994 162.127Z" fill="#C82041"/>
<path d="M330.942 128.956C330.425 127.785 329.219 127.096 327.945 127.234C325.637 127.51 322.055 127.82 320.781 127.406C318.817 126.752 320.608 133.779 321.848 135.604C323.088 137.43 319.919 139.29 319.403 138.394C318.886 137.533 315.579 124.857 321.125 120.965C326.671 117.073 329.564 118.382 332.216 120.621C334.868 122.86 336.212 130.713 335.695 133.09C334.593 137.912 330.701 139.496 330.115 138.394C329.529 137.292 331.596 130.472 331.114 129.301C331.045 129.197 331.011 129.06 330.942 128.956Z" fill="#3A2316"/>
<path d="M314.133 170.6C314.202 170.91 314.374 171.082 314.546 171.151C314.753 171.22 314.994 171.22 315.2 171.22C315.373 171.186 315.579 171.151 315.752 171.048C316.544 170.634 317.129 169.532 316.406 167.397C316.406 167.397 315.2 167.397 314.546 168.223C314.443 168.361 314.339 168.533 314.27 168.74C314.029 169.498 313.995 170.187 314.133 170.6Z" fill="#841731"/>
<path opacity="0.4" d="M316.888 183.379C318.679 179.659 319.472 162.127 319.472 162.127C319.472 162.127 322.537 162.574 325.672 160.508C325.672 160.508 329.116 162.678 333.008 160.06C332.561 160.301 329.598 161.885 326.016 159.509C326.016 159.509 321.573 162.092 318.542 160.163C318.542 160.163 317.164 159.095 317.267 156.719C317.37 154.342 316.923 151.759 317.715 149.83C317.818 149.554 317.887 149.451 317.887 149.416C317.853 149.416 316.854 151.621 316.303 153.722C315.958 155.238 316.062 156.374 316.544 158.717C317.164 161.679 317.646 163.022 316.819 166.639C316.75 166.467 316.647 166.26 316.544 166.053C316.613 167.5 316.475 169.257 315.51 171.117C315.476 171.186 315.442 171.289 315.442 171.358C313.995 175.801 312.617 178.832 312.204 180.968C312.032 181.932 313.926 182.793 316.888 183.379Z" fill="#A81D3E"/>
<path d="M328.737 176.387L326.981 161.334L315.614 161.748L317.371 177.041L328.737 176.387Z" fill="#103649"/>
<path d="M323.536 139.393C324.225 139.703 325.465 140.151 326.498 139.806C327.98 139.324 329.667 137.016 329.771 136.879C329.288 137.395 328.737 137.877 328.152 138.222C327.394 138.704 326.636 139.049 325.913 139.186C325.293 139.324 324.535 138.876 323.812 138.222L323.536 139.255C323.536 139.324 323.536 139.359 323.536 139.393Z" fill="#CC6854"/>
<path opacity="0.4" d="M329.392 170.497C329.392 170.497 330.287 170.738 330.735 171.186C330.735 171.186 335.385 167.741 337.383 166.605C339.415 165.468 341.069 165.089 340.931 163.814C340.793 162.506 341.379 163.677 339.897 160.852C338.416 158.028 336.453 152.069 336.384 150.278C336.35 149.003 336.04 151.139 335.902 153.102C336.522 155.789 337.486 159.716 337.968 160.714C338.83 162.506 339.174 163.332 338.589 163.401C337.521 163.539 338.347 164.193 337.004 164.986C336.522 165.261 335.626 165.881 334.662 166.605L329.392 170.497Z" fill="#A81D3E"/>
<path opacity="0.4" d="M310.309 163.332C311.033 164.607 313.099 168.602 314.098 170.497C314.098 170.531 314.133 170.566 314.167 170.6C314.029 170.152 314.064 169.498 314.339 168.706C314.408 168.499 314.512 168.361 314.615 168.189C313.306 165.571 311.515 161.748 311.48 160.473C311.377 158.475 312.066 159.509 311.48 158.234C310.895 156.994 312.066 154.101 313.306 150.829C314.546 147.556 317.302 141.287 317.302 141.287C316.234 141.735 315.269 142.217 314.959 142.7C313.65 144.801 309.62 156.133 309.689 157.201C309.724 158.338 308.07 159.405 310.309 163.332Z" fill="#841731"/>
<path d="M324.501 162.127L324.294 160.508L317.715 160.714L317.887 162.368L324.501 162.127Z" fill="#FFAA3F"/>
<path opacity="0.2" d="M324.501 186.341V190.957C324.914 192.782 326.188 198.397 326.533 203.219C326.946 209.04 327.807 218.065 328.909 221.578C330.012 225.092 332.871 238.491 332.871 238.491C334.248 239.18 335.351 239.49 336.212 239.593C336.212 239.593 331.631 220.338 331.803 215.895C331.975 211.417 328.737 191.129 327.049 188.374C325.362 185.618 324.501 186.341 324.501 186.341Z" fill="#103649"/>
<path opacity="0.2" d="M311.722 213.036C311.722 216.687 311.17 235.322 312.238 239.455C312.617 240.971 313.719 241.866 314.925 242.176C314.994 240.247 315.993 218.237 316.888 214.379C317.818 210.349 316.337 212.45 315.648 208.42C314.959 204.39 316.888 183.379 316.888 183.379C314.512 182.931 312.824 182.277 312.342 181.554C310.757 188.959 311.722 209.66 311.722 213.036Z" fill="#103649"/>
<path d="M329.529 170.531C329.529 170.531 331.252 170.393 331.768 173.941C331.768 173.941 331.562 174.492 330.942 173.941C330.942 173.941 328.806 171.943 329.357 170.497L329.529 170.531Z" fill="#841731"/>
<path d="M325.431 173.597C325.672 173.562 326.119 173.425 326.602 173.287C325.913 173.425 325.258 173.459 325.224 173.39C325.121 173.252 325.086 172.942 325.637 172.839C326.188 172.736 328.083 172.116 328.117 172.116C328.186 172.081 328.221 172.047 328.255 172.012L328.117 170.945L329.495 171.186C330.391 170.979 330.253 170.876 330.253 170.876C330.253 170.876 331.872 171.668 331.768 173.666L329.943 174.32C329.943 174.32 329.392 174.906 328.565 175.078C328.048 175.181 327.669 175.009 327.428 174.665C326.533 174.906 325.396 175.043 325.293 174.906C325.189 174.768 325.155 174.458 325.706 174.355C325.982 174.32 326.567 174.148 327.118 173.976C327.118 173.941 327.118 173.907 327.118 173.907C326.223 174.148 325.086 174.286 324.983 174.148C324.914 173.976 324.879 173.666 325.431 173.597Z" fill="#FF8B66"/>
<path d="M328.875 174.182C328.875 174.182 326.981 174.802 326.395 174.906C325.844 175.009 325.878 175.319 325.982 175.457C326.085 175.594 327.842 175.353 328.668 175.009C329.529 174.664 328.875 174.182 328.875 174.182Z" fill="#FF8B66"/>
<path d="M315.063 168.981C315.373 168.43 315.855 167.81 316.406 168.499C316.544 168.671 316.75 168.878 316.957 169.119C317.267 169.291 318.301 169.911 318.645 170.152C319.058 170.428 319.403 170.462 319.403 170.772C319.403 171.013 318.989 170.91 318.611 170.772C318.989 171.117 319.541 171.633 319.747 171.84C320.126 172.184 320.505 172.15 320.436 172.529C320.367 172.804 319.747 172.598 319.299 172.391C319.644 172.632 319.954 172.632 319.885 172.977C319.851 173.149 319.609 173.149 319.299 173.046C319.334 173.114 319.334 173.149 319.334 173.252C319.299 173.424 318.989 173.39 318.679 173.287C318.679 173.321 318.679 173.356 318.679 173.424C318.61 173.734 317.749 173.424 317.336 173.149C316.992 173.046 316.682 172.839 316.44 172.667C315.958 172.253 315.338 171.013 314.994 170.256C314.856 169.808 314.856 169.36 315.063 168.981Z" fill="#FF8B66"/>
</svg>
