<svg width="368" height="259" viewBox="0 0 368 259" fill="none" xmlns="http://www.w3.org/2000/svg">
<path d="M295.551 100.163H289.087V156.919H295.551V100.163Z" fill="#4A4F66"/>
<path d="M337.81 100.163H331.346V156.919H337.81V100.163Z" fill="#4A4F66"/>
<path d="M268.461 175.153L289.086 156.919H337.548L357.687 175.153H268.461Z" fill="#C6E0DD"/>
<path d="M343.713 114.062H342.218V165.662H343.713V114.062Z" fill="#89A59D"/>
<path d="M340.163 110.924H338.669V162.524H340.163V110.924Z" fill="#89A59D"/>
<path d="M284.79 113.913H283.295V165.513H284.79V113.913Z" fill="#89A59D"/>
<path d="M288.339 110.775H286.845V162.374H288.339V110.775Z" fill="#89A59D"/>
<path d="M268.461 106.403V106.552V115.819V173.621V182.589V189.501H357.65V182.589V173.621V115.819V106.552V106.403H268.461ZM341.957 173.621H284.154C280.68 173.621 277.877 170.819 277.877 167.344V122.096C277.877 118.621 280.68 115.819 284.154 115.819H341.957C345.432 115.819 348.234 118.621 348.234 122.096V167.344C348.234 170.819 345.432 173.621 341.957 173.621Z" fill="#5F6386"/>
<path d="M357.65 175.153H268.461V189.501H357.65V175.153Z" fill="#555A77"/>
<path d="M301.79 176.834H277.391V186.287H301.79V176.834Z" fill="#114665"/>
<path d="M300.818 177.47H278.064V185.353H300.818V177.47Z" fill="#CCEDE6"/>
<path d="M278.064 185.391L290.319 177.47H293.533L280.717 185.391H278.064Z" fill="white"/>
<path d="M282.66 185.391L294.691 177.47H295.551L283.856 185.391H282.66Z" fill="white"/>
<path d="M309.487 177.47H305.788V180.01H309.487V177.47Z" fill="#ADCCC7"/>
<path d="M314.905 177.47H311.206V180.01H314.905V177.47Z" fill="#ADCCC7"/>
<path d="M320.323 177.47H316.624V180.01H320.323V177.47Z" fill="#ADCCC7"/>
<path d="M325.704 177.47H322.004V180.01H325.704V177.47Z" fill="#ADCCC7"/>
<path d="M309.487 181.318H305.788V183.859H309.487V181.318Z" fill="#ADCCC7"/>
<path d="M314.905 181.318H311.206V183.859H314.905V181.318Z" fill="#ADCCC7"/>
<path d="M320.323 181.318H316.624V183.859H320.323V181.318Z" fill="#ADCCC7"/>
<path d="M325.704 181.318H322.004V183.859H325.704V181.318Z" fill="#ADCCC7"/>
<path d="M354.736 176.835H344.61V180.048H354.736V176.835Z" fill="#FFAA3F"/>
<path d="M337.772 100.163H289.086L268.461 106.552H357.65L337.772 100.163ZM291.366 102.666H336.726L342.293 104.348H285.798L291.366 102.666Z" fill="#797EAB"/>
<path d="M330.262 162.898H295.85V168.54H330.262V162.898Z" fill="#E4F2EE"/>
<path d="M295.85 162.898L300.744 157.966H325.068L330.262 162.898H295.85Z" fill="#EEFFFB"/>
<path d="M351.111 112.979H274.066C272.945 112.979 272.048 112.082 272.048 110.961C272.048 109.84 272.945 108.944 274.066 108.944H351.111C352.232 108.944 353.129 109.84 353.129 110.961C353.129 112.082 352.232 112.979 351.111 112.979Z" fill="#797EAB"/>
<path d="M319.015 135.397H284.752V136.145H319.015C318.978 135.92 318.978 135.659 319.015 135.397Z" fill="#89A59D"/>
<path d="M319.651 134.015H287.592V134.762H319.539C319.613 134.725 319.725 134.725 319.8 134.762H319.875C319.688 134.538 319.576 134.276 319.651 134.015Z" fill="#89A59D"/>
<path d="M319.576 134.015H302.426V136.892H319.576V134.015Z" fill="#0AA8A7"/>
<path d="M312.589 136.893H307.657V138.387H312.589V136.893Z" fill="#09827E"/>
<path d="M311.916 138.312H310.608H309.45H308.142L307.32 139.62V146.42L309.076 147.84H309.45H310.608H310.982L312.776 146.42V139.62L311.916 138.312Z" fill="#953F5A"/>
<path d="M310.347 138.312L311.169 139.732V146.234L310.048 147.84H310.982L312.775 146.42V139.62L311.916 138.312H310.347Z" fill="#77334C"/>
<path d="M302.426 134.015L304.78 132.82H320.884L319.576 134.015H302.426Z" fill="#0AA8A7"/>
<path d="M320.884 132.82V135.958L319.576 136.892V134.015L320.884 132.82Z" fill="#09827E"/>
<path d="M319.576 135.809C319.613 136.033 319.762 136.182 319.949 136.182H342.629C342.853 136.182 343.003 136.033 343.003 135.809C343.003 135.584 342.853 135.435 342.629 135.435H319.949C319.725 135.398 319.538 135.584 319.576 135.809Z" fill="#89A59D"/>
<path d="M320.174 134.276C320.174 134.314 320.136 134.351 320.136 134.388C320.099 134.575 320.248 134.762 320.435 134.762H339.416V134.015H320.51C320.36 134.015 320.211 134.127 320.174 134.276Z" fill="#89A59D"/>
<path d="M309.002 133.417C309.002 133.417 308.255 128.56 313.187 124.674C318.119 120.788 317.558 115.818 317.558 115.818H321.668C321.668 115.818 321.332 122.208 318.53 125.496C315.727 128.784 313.896 131.175 313.896 133.454H309.002V133.417Z" fill="#4A4F66"/>
<path d="M315.316 104.385C315.316 104.385 298.727 90.523 285.799 94.3715C272.833 98.22 273.767 105.132 273.767 105.132L270.554 105.88C270.554 105.88 270.367 93.6616 285.799 91.2329C301.23 88.8043 317.184 102.181 319.837 104.348H315.316V104.385Z" fill="#4A4F66"/>
<path d="M298.316 173.696H161.04C158.686 173.696 156.78 171.791 156.78 169.437V87.4595C156.78 85.1056 158.686 83.2 161.04 83.2H298.316C300.67 83.2 302.575 85.1056 302.575 87.4595V169.437C302.575 171.791 300.67 173.696 298.316 173.696Z" fill="#68A3C1"/>
<path d="M296.298 89.7388V166.149C296.298 167.867 294.878 169.287 293.159 169.287H166.233C164.514 169.287 163.095 167.867 163.095 166.149V89.7388C163.095 87.9826 164.514 86.6002 166.233 86.6002H293.159C294.878 86.6002 296.298 87.9826 296.298 89.7388Z" fill="white"/>
<path d="M244.736 173.696H210.174V182.365H244.736V173.696Z" fill="#588CA0"/>
<path d="M248.808 180.795H205.727V189.202H248.808V180.795Z" fill="#68A3C1"/>
<path d="M210.174 173.696L244.736 176.76V173.696H210.174Z" fill="#47727F"/>
<path opacity="0.2" d="M296.298 89.7388V92.5411H163.095V89.7388C163.095 87.9826 164.514 86.6002 166.233 86.6002H293.159C294.878 86.6002 296.298 87.9826 296.298 89.7388Z" fill="#0AA8A7"/>
<path opacity="0.2" d="M293.608 96.9874H263.194V166.522H293.608V96.9874Z" fill="#0AA8A7"/>
<path d="M194.069 98.7806H165.747V105.544H194.069V98.7806Z" fill="#58CCC7"/>
<path d="M202.29 154.901L248.061 155.051C248.883 155.051 249.555 155.686 249.63 156.508C249.705 157.405 248.958 158.189 248.061 158.189L202.29 158.04C201.43 158.04 200.72 157.33 200.72 156.471C200.72 155.611 201.43 154.901 202.29 154.901Z" fill="#58CCC7"/>
<path d="M288.9 103.862H267.378C266.07 103.862 265.024 102.816 265.024 101.509V101.172C265.024 99.8645 266.07 98.8183 267.378 98.8183H288.9C290.208 98.8183 291.254 99.8645 291.254 101.172V101.509C291.254 102.816 290.208 103.862 288.9 103.862Z" fill="#58CCC7"/>
<path d="M288.9 129.719H267.378C266.07 129.719 265.024 128.672 265.024 127.365V127.028C265.024 125.721 266.07 124.674 267.378 124.674H288.9C290.208 124.674 291.254 125.721 291.254 127.028V127.365C291.254 128.635 290.208 129.719 288.9 129.719Z" fill="#58CCC7"/>
<path d="M288.9 154.864H267.378C266.07 154.864 265.024 153.818 265.024 152.51V152.174C265.024 150.866 266.07 149.82 267.378 149.82H288.9C290.208 149.82 291.254 150.866 291.254 152.174V152.51C291.254 153.818 290.208 154.864 288.9 154.864Z" fill="#58CCC7"/>
<path d="M249.518 109.617H199.114V152.585H249.518V109.617Z" fill="#F8FFFD"/>
<path d="M178.713 122.32V112.718C179.535 112.419 180.133 111.597 180.133 110.663C180.133 109.43 179.161 108.458 177.928 108.458C176.695 108.458 175.724 109.43 175.724 110.663C175.724 111.784 176.583 112.718 177.667 112.83V122.918L196.909 133.193L197.395 132.296L178.713 122.32Z" fill="#58CCC7"/>
<path d="M291.254 108.458H265.697V110.663H291.254V108.458Z" fill="white"/>
<path d="M291.254 112.493H265.697V114.698H291.254V112.493Z" fill="white"/>
<path d="M291.254 116.566H265.697V118.77H291.254V116.566Z" fill="white"/>
<path d="M291.254 133.155H265.697V135.36H291.254V133.155Z" fill="white"/>
<path d="M291.254 138.013H265.697V140.217H291.254V138.013Z" fill="white"/>
<path d="M285.089 143.393H265.697V145.598H285.089V143.393Z" fill="white"/>
<path d="M168.737 87.9076H290.32C291.142 87.9076 291.814 88.5801 291.814 89.4022V89.6263C291.814 90.4484 291.142 91.1209 290.32 91.1209H168.737C167.915 91.1209 167.242 90.4484 167.242 89.6263V89.4022C167.242 88.5428 167.915 87.9076 168.737 87.9076Z" fill="white"/>
<path opacity="0.2" d="M229.005 103.787H202.626C201.43 103.787 200.459 102.816 200.459 101.62V101.321C200.459 100.126 201.43 99.1541 202.626 99.1541H229.005C230.201 99.1541 231.172 100.126 231.172 101.321V101.62C231.172 102.816 230.201 103.787 229.005 103.787Z" fill="#0AA8A7"/>
<path opacity="0.2" d="M258.784 103.787H235.992C234.797 103.787 233.825 102.816 233.825 101.62V101.209C233.825 100.014 234.797 99.0421 235.992 99.0421H258.784C259.98 99.0421 260.951 100.014 260.951 101.209V101.62C260.951 102.816 259.98 103.787 258.784 103.787Z" fill="#0AA8A7"/>
<path opacity="0.2" d="M195.714 142.908H171.801V145.598H195.714V142.908Z" fill="#0AA8A7"/>
<path opacity="0.2" d="M195.714 148.475H171.801V151.165H195.714V148.475Z" fill="#0AA8A7"/>
<path opacity="0.3" d="M172.585 173.696L248.808 83.1998H269.545L197.357 173.696H172.585Z" fill="white"/>
<path opacity="0.3" d="M202.589 173.696L274.066 83.1998H278.475L209.165 173.845L202.589 173.696Z" fill="white"/>
<path opacity="0.2" d="M255.011 145.075H243.054V143.543H253.441V108.943H255.011V145.075Z" fill="#0AA8A7"/>
<path d="M368 189.651H106.264V196.003H368V189.651Z" fill="#C6E0DD"/>
<path d="M356.865 196.04H127.673V201.532H356.865V196.04Z" fill="#B7CECB"/>
<path d="M169.036 201.158H160.554V252.609H169.036V201.158Z" fill="#B7CECB"/>
<path d="M330.337 201.158H321.855V252.609H330.337V201.158Z" fill="#B7CECB"/>
<path d="M246.604 138.499C245.446 128.859 229.342 105.842 229.342 105.842L214.471 114.324C214.471 114.324 231.696 137.116 232.854 141.264C234.012 145.411 235.469 162.001 234.647 167.755C234.274 170.258 234.274 173.659 234.124 175.564L232.704 176.648L228.819 180.683C228.819 180.683 226.763 182.551 227.436 183.635C228.109 184.718 229.491 182.252 230.911 181.767C231.733 181.505 232.48 181.356 233.414 181.094C233.34 181.542 233.265 181.991 233.227 182.327L231.696 187.483C231.696 187.483 228.221 191.892 228.557 192.565C228.893 193.237 229.304 193.835 230.388 192.864C231.509 191.892 234.162 187.633 234.162 187.633L234.647 186.437L233.863 189.053C233.863 189.053 230.164 193.76 230.5 194.47C230.874 195.18 231.285 195.853 232.48 194.807C233.676 193.76 236.516 189.202 236.516 189.202L237.749 186.25C237.823 186.25 237.898 186.288 237.973 186.288C238.01 186.288 238.085 186.288 238.122 186.325L237.599 188.828C237.599 188.828 234.311 193.835 234.722 194.508C235.133 195.18 235.619 195.815 236.702 194.657C237.786 193.499 240.252 188.754 240.252 188.754L240.85 186.885C240.924 186.885 240.999 186.923 241.074 186.923V187.558C241.074 187.558 238.869 192.714 239.355 193.275C239.841 193.835 240.401 194.321 241.223 193.088C242.045 191.855 243.503 187.035 243.503 187.035L243.652 185.839C243.802 185.578 243.951 185.241 244.1 184.868C244.773 183 244.25 179.151 244.138 176.685C245.52 170.781 247.389 145 246.604 138.499Z" fill="#F98E64"/>
<path d="M213.761 250.18C211.743 254.328 207.184 256.383 201.991 257.242C191.678 258.961 178.9 256.159 178.9 256.159L173.407 215.805L170.194 255.262C169.148 257.205 165 258.027 159.844 258.251C149.083 258.737 133.951 256.644 133.951 256.644C133.951 256.644 133.017 242.894 133.951 229.593C134.885 216.291 137.164 180.496 137.164 180.496C164.963 190.51 194.742 184.569 205.129 181.916C207.595 181.281 208.978 180.832 208.978 180.832C210.099 188.006 213.761 250.18 213.761 250.18Z" fill="#4AA8A1"/>
<path d="M192.949 67.0955C192.949 67.0955 192.613 73.1112 190.371 77.0718C188.129 81.0324 163.207 102.853 153.716 65.0405C153.716 65.0405 158.536 63.9943 160.778 62.1261C162.572 60.5942 163.356 57.1193 163.618 55.7742C157.789 51.4773 155.174 41.8747 154.239 29.6193C153.193 16.0187 160.106 11.9086 160.106 11.9086C182.487 -0.309473 188.502 18.7836 189.026 23.6036C189.549 28.4236 189.885 37.0174 184.729 49.4223C183.869 51.4399 183.01 53.084 182.076 54.4291H182.3C182.3 54.4291 182.636 59.2491 183.682 61.4909C183.944 62.0514 184.617 62.6866 185.551 63.2844C188.278 65.1152 192.949 67.0955 192.949 67.0955Z" fill="#F98E64"/>
<path d="M99.7625 97.1742C99.7625 97.1742 87.6191 104.983 84.1816 106.814C80.7441 108.645 47.7142 85.4792 47.7142 85.4792C47.7142 85.4792 44.725 82.9384 40.8392 82.9384C40.1292 82.9384 39.1951 83.0879 38.1116 83.3494C34.0015 82.49 27.9111 83.8352 22.2318 83.4989C16.0293 83.1626 14.1985 82.2285 11.2094 82.9384C8.22021 83.611 13.7501 86.3759 13.7501 86.3759C13.8248 87.6089 16.4777 87.6089 17.636 87.5716C17.636 87.6837 17.6734 87.8331 17.8602 87.9826C19.4668 89.3651 24.7726 89.8134 30.0409 89.8134C35.3093 89.8134 36.9159 87.9826 39.9051 90.2618C42.8942 92.541 67.1809 116.417 73.1592 120.078C79.1375 123.74 82.7992 125.123 86.2367 124.674C89.6742 124.226 114.671 114.138 114.671 114.138C114.671 114.138 112.392 96.5016 99.7625 97.1742Z" fill="#F98E64"/>
<path d="M57.3167 74.3823H0V83.7607H57.3167V74.3823Z" fill="#E4F2EE"/>
<path d="M0 74.3821L8.1454 66.1246H48.6856L57.3167 74.3821H0Z" fill="#EEFFFB"/>
<path d="M37.3643 35.3735H18.7569C18.1217 35.3735 17.5612 35.7098 17.2623 36.2329L7.95862 52.3369C7.65971 52.86 7.65971 53.5325 7.95862 54.093L17.2623 70.197C17.5612 70.7201 18.159 71.0564 18.7569 71.0564H37.3643C37.9994 71.0564 38.5599 70.7201 38.8588 70.197L48.1625 54.093C48.4614 53.5699 48.4614 52.8973 48.1625 52.3369L38.8588 36.2329C38.5599 35.7098 37.9621 35.3735 37.3643 35.3735ZM32.1706 62.0889H23.9505C23.3153 62.0889 22.7548 61.7527 22.4559 61.2296L18.3459 54.093C18.047 53.5699 18.047 52.8973 18.3459 52.3369L22.4559 45.2003C22.7548 44.6772 23.3527 44.3409 23.9505 44.3409H32.1706C32.8058 44.3409 33.3663 44.6772 33.6652 45.2003L37.7753 52.3369C38.0742 52.86 38.0742 53.5325 37.7753 54.093L33.6652 61.2296C33.3663 61.7527 32.7685 62.0889 32.1706 62.0889ZM32.1706 43.2574H23.9505C23.3153 43.2574 22.7548 42.9211 22.4559 42.398L20.5877 39.1473C19.9152 37.989 20.7372 36.5318 22.0823 36.5318H34.0762C35.4213 36.5318 36.2433 37.989 35.5708 39.1473L33.7026 42.398C33.3663 42.9211 32.7685 43.2574 32.1706 43.2574ZM21.4471 44.6772L17.337 51.8138C17.0381 52.3369 16.4403 52.6732 15.8425 52.6732H12.0687C10.7236 52.6732 9.90156 51.216 10.5741 50.0577L16.5524 39.6704C17.2249 38.5121 18.9063 38.5121 19.5789 39.6704L21.4471 42.9211C21.746 43.4816 21.746 44.1541 21.4471 44.6772ZM17.337 54.6908L21.4471 61.8274C21.746 62.3505 21.746 63.023 21.4471 63.5835L19.5789 66.8342C18.9063 67.9925 17.2249 67.9925 16.5524 66.8342L10.5741 56.4469C9.90156 55.2887 10.7236 53.8315 12.0687 53.8315H15.8425C16.4403 53.7941 17.0381 54.1304 17.337 54.6908ZM23.9505 63.2472H32.1706C32.8058 63.2472 33.3663 63.5835 33.6652 64.1066L35.5334 67.3573C36.206 68.5156 35.3839 69.9728 34.0388 69.9728H22.0449C20.6998 69.9728 19.8778 68.5156 20.5504 67.3573L22.4186 64.1066C22.7548 63.5461 23.3153 63.2472 23.9505 63.2472ZM34.6367 61.79L38.7467 54.6535C39.0456 54.1304 39.6435 53.7941 40.2413 53.7941H44.0151C45.3602 53.7941 46.1822 55.2513 45.5096 56.4096L39.5314 66.7968C38.8588 67.9551 37.1774 67.9551 36.5049 66.7968L34.6367 63.5461C34.3377 62.9857 34.3377 62.3505 34.6367 61.79ZM38.7467 51.8138L34.6367 44.6772C34.3377 44.1541 34.3377 43.4816 34.6367 42.9211L36.5049 39.6704C37.1774 38.5121 38.8588 38.5121 39.5314 39.6704L45.5096 50.0577C46.1822 51.216 45.3602 52.6732 44.0151 52.6732H40.2413C39.6435 52.6732 39.083 52.3369 38.7467 51.8138Z" fill="#C92041"/>
<path d="M228.482 116.529C222.691 120.004 214.807 121.611 214.807 121.611C214.807 121.611 213.873 119.331 212.677 116.716C211.033 113.241 208.866 109.168 207.558 109.019C207.072 108.944 206.736 109.392 206.549 110.588C205.765 115.707 208.231 147.205 210.323 164.953C210.734 168.278 211.481 172.015 212.116 174.742C212.677 177.134 211.593 179.637 209.426 180.833C205.802 182.851 200.01 185.989 194.256 188.53C192.351 189.352 190.483 190.137 188.652 190.772C178.003 194.546 157.677 191.444 145.646 187.67C133.614 183.897 136.491 186.363 137.388 176.312C140.452 141.488 136.94 112.755 134.175 107.375C133.838 106.74 133.54 106.441 133.241 106.478C133.203 106.478 133.166 106.478 133.166 106.478C133.129 106.478 133.091 106.478 133.054 106.515C130.961 107.001 122.667 111.784 116.651 115.333C112.989 117.501 110.187 119.219 110.187 119.219C108.132 117.538 106.451 115.632 105.068 113.652C105.068 113.615 105.031 113.615 105.031 113.577C99.0524 104.871 98.8282 94.4468 98.8282 94.4468C98.8282 94.4468 100.883 93.1764 103.872 91.2335C110.859 86.7498 123.04 78.7912 127.374 75.2042C131.896 71.4305 143.665 67.3204 150.951 65.1906C152.222 64.817 153.38 64.4807 154.314 64.2565C154.65 67.4325 156.182 73.7097 162.497 80.0242C171.091 88.618 188.913 84.8068 189.96 64.3313C191.006 64.5554 192.239 64.9291 193.621 65.4522C196.685 66.5731 200.384 68.2545 203.859 70.048C207.483 71.9162 210.883 73.9339 213.051 75.5405C218.954 79.8748 229.827 94.1105 233.414 104.161C233.788 105.245 234.087 106.291 234.311 107.263C235.133 111.186 232.256 114.25 228.482 116.529Z" fill="#1A5478"/>
<path d="M190.371 13.2541C186.41 10.4891 187.12 10.0034 184.505 5.85598C181.926 1.74591 179.685 4.32404 174.715 4.9966C169.708 5.66916 169.036 3.46467 164.216 1.37227C159.396 -0.682759 156.481 4.13722 155.286 8.77038C154.09 13.4035 154.165 18.4477 154.613 19.3071C152.297 25.2106 154.987 36.4199 154.987 36.4199L155.846 34.2901C154.8 26.892 156.967 20.9885 156.967 20.9885C156.967 20.9885 161.6 21.8479 163.842 20.6522C166.084 19.4565 178.825 24.6128 182.748 23.4171C186.709 22.2215 185.663 24.7996 186.522 27.3778C187.382 29.9559 185.476 39.5958 185.476 39.5958C185.476 39.5958 188.241 42.3608 189.1 38.4002C189.96 34.4396 193.061 28.2371 192.351 24.6502C191.753 20.9885 194.331 15.9817 190.371 13.2541Z" fill="#134056"/>
<path d="M185.513 63.2099C181.926 63.9946 181.702 61.8648 180.058 60.1834C178.339 58.4647 169.409 58.6515 173.706 58.1284C178.003 57.6053 182.3 54.3546 182.3 54.3546C182.3 54.3546 182.636 59.1746 183.682 61.4164C183.907 61.9395 184.617 62.5747 185.513 63.2099Z" fill="#D87759"/>
<path d="M117.361 115.632L108.618 120.34C108.618 120.34 106.637 118.658 104.321 115.408C101.22 110.999 97.5205 103.713 97.5205 93.9605L103.648 89.9625C103.648 89.9625 103.723 90.4483 103.872 91.2703C104.545 94.7078 106.637 104.161 111.121 110.438C112.653 112.605 114.484 114.361 116.614 115.37C116.913 115.445 117.137 115.52 117.361 115.632Z" fill="#AACEC5"/>
<path d="M237.151 110.252C237.151 110.252 234.087 114.511 228.968 117.911C224.97 120.564 219.664 122.694 213.611 121.76L211.482 117.164C211.482 117.164 211.893 117.015 212.64 116.753C215.143 115.819 221.234 113.428 226.24 110.476C229.566 108.533 232.406 106.328 233.414 104.161C233.489 104.012 233.564 103.862 233.601 103.713L237.151 110.252Z" fill="#AACEC5"/>
<path d="M193.621 65.4151C192.463 70.123 189.922 77.5584 184.99 82.8268C177.218 91.159 167.466 89.1787 159.358 82.8268C152.932 77.8574 151.362 68.8152 150.951 65.1535C152.222 64.7799 153.38 64.4436 154.314 64.2194C154.65 67.3954 156.182 73.6726 162.497 79.9871C171.091 88.5809 188.913 84.7697 189.96 64.2941C191.006 64.5183 192.239 64.892 193.621 65.4151Z" fill="#AACEC5"/>
<path opacity="0.5" d="M209.389 180.832C205.765 182.85 199.973 185.988 194.219 188.529C196.312 181.878 201.169 165.7 200.347 159.609C199.301 151.837 196.797 151.128 198.217 135.92C199.637 120.713 197.507 110.812 200.347 103.75C202.551 98.2572 205.167 103.6 207.521 109.093C207.035 109.018 206.699 109.466 206.512 110.662C205.727 115.781 208.193 147.279 210.286 165.027C210.697 168.352 211.444 172.089 212.079 174.816C212.64 177.133 211.556 179.636 209.389 180.832Z" fill="#134056"/>
<path opacity="0.5" d="M237.15 110.251C237.15 110.251 234.086 114.511 228.968 117.911C228.818 117.5 228.631 117.014 228.445 116.528C227.809 114.847 227.062 112.792 226.203 110.475C224.745 106.515 222.989 101.769 221.084 96.5384C215.89 82.3774 202.215 69.8978 202.215 69.8978C202.738 69.8978 203.298 69.9725 203.821 70.0472C207.446 71.9154 210.846 73.9331 213.013 75.5398C218.917 79.874 229.79 94.1098 233.377 104.161C233.451 104.011 233.526 103.862 233.563 103.712L237.15 110.251Z" fill="#134056"/>
<path opacity="0.5" d="M134.175 107.375C133.839 106.739 133.54 106.44 133.241 106.478C133.204 106.478 133.166 106.478 133.166 106.478C133.129 106.478 133.091 106.478 133.054 106.515C130.962 107.001 122.667 111.784 116.651 115.333C116.875 115.445 117.1 115.557 117.324 115.632L108.581 120.34C108.581 120.34 106.6 118.659 104.284 115.408C104.134 114.997 103.947 114.623 103.723 114.362C104.097 114.138 104.545 113.913 105.031 113.689C106.712 112.792 108.842 111.634 111.121 110.438C116.165 107.748 121.77 104.796 124.124 103.638C129.094 101.284 132.157 100.799 134.026 107.188C134.138 107.225 134.138 107.3 134.175 107.375Z" fill="#134056"/>
<path opacity="0.2" d="M173.37 215.767L170.156 255.224C169.11 257.167 164.963 257.989 159.807 258.213C160.143 255.747 162.459 239.456 163.767 231.161C165.187 222.194 168.251 217 169.895 211.358C171.576 205.679 173.295 208.407 173.37 215.767Z" fill="#134056"/>
<path opacity="0.2" d="M213.761 250.18C211.743 254.328 207.185 256.383 201.991 257.242C201.879 245.883 201.505 214.311 200.385 205.455C198.965 194.62 195.901 188.006 195.901 188.006L205.13 181.841C207.596 181.206 208.978 180.758 208.978 180.758C210.099 188.006 213.761 250.18 213.761 250.18Z" fill="#134056"/>
</svg>
