<svg width="291" height="257" viewBox="0 0 291 257" fill="none" xmlns="http://www.w3.org/2000/svg">
<path d="M285.355 9.99194V179.552H222.82H7.45428V9.99194H285.355Z" fill="#F0F2FF"/>
<path d="M290.313 0.884766H0V25.71H290.313V0.884766Z" fill="#58CCC7"/>
<path d="M20.3265 20.0327C23.2771 17.0821 23.2771 12.2983 20.3265 9.3477C17.376 6.39712 12.5921 6.39712 9.64156 9.3477C6.69099 12.2983 6.69099 17.0821 9.64156 20.0327C12.5921 22.9832 17.376 22.9832 20.3265 20.0327Z" fill="#F8FFFD"/>
<path d="M45.7832 20.0107C48.7338 17.0601 48.7338 12.2763 45.7832 9.32572C42.8326 6.37515 38.0488 6.37515 35.0982 9.32572C32.1477 12.2763 32.1477 17.0601 35.0982 20.0107C38.0488 22.9613 42.8326 22.9613 45.7832 20.0107Z" fill="#F8FFFD"/>
<path d="M70.7845 20.412C73.9542 17.6984 74.3239 12.9292 71.6103 9.75952C68.8968 6.58988 64.1275 6.22015 60.9578 8.93371C57.7882 11.6473 57.4185 16.4166 60.132 19.5862C62.8456 22.7558 67.6149 23.1256 70.7845 20.412Z" fill="#F8FFFD"/>
<path d="M129.05 32.7257H20.2716V122.042H129.05V32.7257Z" fill="white"/>
<path d="M89.8564 40.7872H51.0671C49.7853 40.7872 48.5711 41.4618 47.9302 42.6086L28.5355 76.1699C27.8947 77.283 27.8947 78.6659 28.5355 79.779L47.9302 113.34C48.5711 114.453 49.7853 115.162 51.0671 115.162H89.8227C91.1044 115.162 92.3187 114.487 92.9596 113.34L112.354 79.779C112.995 78.6659 112.995 77.283 112.354 76.1699L92.9596 42.6086C92.3524 41.4956 91.1382 40.7872 89.8564 40.7872ZM79.0291 96.4415H61.8944C60.6126 96.4415 59.3984 95.7669 58.7575 94.6201L50.1901 79.779C49.5492 78.6659 49.5492 77.283 50.1901 76.1699L58.7575 61.3287C59.3984 60.2156 60.6126 59.5073 61.8944 59.5073H79.0291C80.3109 59.5073 81.5251 60.1819 82.166 61.3287L90.7334 76.1699C91.3743 77.283 91.3743 78.6659 90.7334 79.779L82.166 94.6201C81.5251 95.7669 80.3109 96.4415 79.0291 96.4415ZM79.0291 57.1799H61.8944C60.6126 57.1799 59.3984 56.5054 58.7575 55.3585L54.8448 48.5788C53.4619 46.1503 55.1821 43.1483 57.9817 43.1483H82.9418C85.7414 43.1483 87.4616 46.1503 86.0787 48.5788L82.166 55.3585C81.5251 56.5054 80.3109 57.1799 79.0291 57.1799ZM56.7337 60.1819L48.1663 75.0231C47.5254 76.1361 46.3112 76.8445 45.0294 76.8445H37.2041C34.4045 76.8445 32.6843 73.8425 34.0672 71.414L46.5473 49.7931C47.9302 47.3646 51.4381 47.3646 52.821 49.7931L56.7337 56.5728C57.3746 57.6859 57.3746 59.0688 56.7337 60.1819ZM48.1663 80.9932L56.7337 95.8344C57.3746 96.9475 57.3746 98.3304 56.7337 99.4435L52.821 106.223C51.4381 108.652 47.9302 108.652 46.5473 106.223L34.0672 84.6023C32.6843 82.1738 34.4045 79.1718 37.2041 79.1718H45.0294C46.3112 79.1718 47.5254 79.8464 48.1663 80.9932ZM61.8944 98.8026H79.0291C80.3109 98.8026 81.5251 99.4772 82.166 100.624L86.0787 107.404C87.4616 109.832 85.7414 112.834 82.9418 112.834H57.9817C55.1821 112.834 53.4619 109.832 54.8448 107.404L58.7575 100.624C59.4321 99.4772 60.6126 98.8026 61.8944 98.8026ZM84.1898 95.8007L92.7572 80.9595C93.3981 79.8464 94.6123 79.1381 95.8941 79.1381H103.719C106.519 79.1381 108.239 82.1401 106.856 84.5686L94.3762 106.189C92.9933 108.618 89.4854 108.618 88.1025 106.189L84.1898 99.4098C83.5489 98.2967 83.5489 96.9475 84.1898 95.8007ZM92.7572 74.9893L84.1898 60.1482C83.5489 59.0351 83.5489 57.6522 84.1898 56.5391L88.1025 49.7594C89.4854 47.3308 92.9933 47.3308 94.3762 49.7594L106.856 71.3802C108.239 73.8088 106.519 76.8107 103.719 76.8107H95.8941C94.6123 76.8107 93.4318 76.1361 92.7572 74.9893Z" fill="#D8EFE8"/>
<path d="M20.6765 127.676V150.173H74.6442V127.035L20.6765 127.676Z" fill="white"/>
<path d="M224.877 126.765H78.8942V131.656H224.877V126.765Z" fill="#58CCC7"/>
<path d="M224.877 137.086H78.8942V141.977H224.877V137.086Z" fill="#58CCC7"/>
<path d="M271.289 154.457L21.9244 156.076V170.715H271.289V154.457Z" fill="#58CCC7"/>
<path d="M274.831 45.1385H142.07C139.203 45.1385 136.91 42.8111 136.91 39.9778C136.91 37.1108 139.237 34.8171 142.07 34.8171H274.831C277.698 34.8171 279.992 37.1445 279.992 39.9778C279.992 42.8111 277.664 45.1385 274.831 45.1385Z" fill="#D6D7E3"/>
<path d="M271.289 62.5095H141.025V68.7158H271.289V62.5095Z" fill="white"/>
<path d="M271.289 77.384H141.025V83.5903H271.289V77.384Z" fill="white"/>
<path d="M271.289 92.2927H141.025V98.499H271.289V92.2927Z" fill="white"/>
<path d="M133.975 243.672C133.975 243.672 134.683 247.281 133.469 249.372C132.288 251.464 140.451 252.847 141.025 250.654C141.598 248.462 141.025 242.795 141.025 242.795C141.025 242.795 140.856 244.751 133.975 243.672Z" fill="#F9B193"/>
<path d="M124.733 252.914C124.733 252.914 123.924 251.16 125.374 249.71C126.824 248.259 128.612 248.63 130.062 248.698C131.513 248.799 133.334 248.394 134.042 247.753C134.751 247.146 133.604 249.035 134.65 249.777C135.695 250.519 139.203 251.666 140.215 250.688C141.227 249.676 141.396 248.799 141.902 249.98C142.407 251.16 143.048 253.926 142.509 255.376C141.969 256.827 138.731 257.333 134.987 256.388C131.243 255.478 124.935 254.027 124.733 252.914Z" fill="#432918"/>
<path d="M164.467 242.222C164.467 242.222 165.074 246.708 164.467 248.26C163.86 249.811 165.816 250.351 167.469 250.554C169.122 250.756 171.786 250.554 172.259 249.306C172.697 248.057 171.112 245.258 171.078 242.829C171.044 242.829 168.515 243.875 164.467 242.222Z" fill="#F9B193"/>
<path d="M155.596 254.432C155.596 254.432 155.596 252.982 157.384 252.105C159.171 251.194 160.217 251.194 162.005 250.621C163.792 250.047 163.489 248.496 164.332 248.631C165.175 248.799 166.086 250.182 168.312 249.845C170.505 249.508 170.471 249.339 170.977 248.26C171.483 247.18 172.022 246.911 172.63 248.26C173.237 249.609 173.54 251.835 174.013 253.049C174.518 254.23 170.673 255.107 169.223 255.039C167.806 254.972 154.921 258.311 155.596 254.432Z" fill="#432918"/>
<path d="M145.241 161C145.241 161 145.241 161 144.836 168.961C144.802 169.5 144.769 170.141 144.701 170.849C143.959 180.328 140.957 202.792 142.441 210.01C144.027 217.768 144.229 239.49 142.441 243.099C141.902 244.178 140.789 244.887 139.507 245.224C136.539 246.033 132.558 245.055 132.289 243.099C131.884 240.299 131.074 229.135 130.501 223.772C129.927 218.409 126.723 192.099 125.711 183.33C124.733 174.56 124.733 159.213 124.733 159.213L145.241 161Z" fill="#376F92"/>
<path d="M173.54 240.738C173.237 241.547 172.798 242.155 172.225 242.593C171.685 243.032 171.078 243.301 170.437 243.47C170.268 243.504 170.1 243.537 169.931 243.571C166.727 244.145 162.78 242.526 162.78 242.526C162.78 242.526 160.386 230.383 159.61 225.593C158.8 220.804 156.237 215.44 153.437 211.056C150.638 206.671 148.04 197.901 146.657 189.536C145.275 181.171 143.419 160.866 143.419 160.866C155.528 158.302 157.215 154.052 157.215 154.052C157.215 154.052 158.497 157.661 159.913 162.586C161.768 169.231 163.792 178.236 163.016 183.971C161.634 193.921 162.612 199.52 166.592 206.671C170.538 213.821 173.54 240.738 173.54 240.738Z" fill="#376F92"/>
<path d="M161.397 161.203C161.263 162.181 160.858 163.024 160.251 163.8C159.171 165.115 157.518 166.161 155.596 166.869C154.618 167.24 153.572 167.544 152.526 167.78C150.334 168.252 148.074 168.455 146.253 168.387C140.856 168.185 139.271 173.177 133.503 173.177C127.735 173.177 123.35 170.175 123.35 170.175C123.35 170.175 122.541 165.183 123.35 159.213C124.16 153.242 127.937 130.711 126.15 126.528C124.362 122.346 126.959 118.568 128.14 113.981C129.32 109.394 126.554 102.614 130.332 99.6456C131.479 98.7349 132.794 98.0266 134.043 97.4869C135.291 96.9472 136.505 96.5762 137.449 96.3063L137.989 94.5861C137.989 94.5861 146.421 93.0683 147.568 93.2707C148.142 93.3718 148.546 93.7766 148.985 94.2488C149.457 94.7548 149.963 95.3619 150.739 95.8341C153.269 96.1377 155.36 96.7786 155.832 98.0266C156.372 99.4095 156.304 102.243 155.933 105.413C155.326 110.439 153.943 116.409 152.83 119.344C151.042 124.133 153.437 134.489 154.82 139.278C156.203 144.068 162.173 155.84 161.397 161.203Z" fill="#FFAA3F"/>
<path d="M133.874 66.4555C133.874 66.4555 130.096 69.1539 129.388 74.3145C128.679 79.5089 129.084 88.7509 131.614 90.1676C134.144 91.5505 135.56 89.5604 136.64 91.2469C137.719 92.9334 138.427 95.4294 138.427 95.4294L147.298 93.9453C147.298 93.9453 145.106 90.741 146.017 87.7728C146.927 84.7708 150.705 79.9137 150.705 74.3145C150.739 68.7491 143.959 60.2829 133.874 66.4555Z" fill="#F9B193"/>
<path d="M156.237 103.221L141.868 93.8777L142.07 93.7091C142.239 93.5404 146.59 89.6615 148.884 90.1674L148.951 90.2011C149.187 90.3698 154.55 94.0126 155.663 95.3281C156.878 96.7785 157.451 100.017 156.338 102.985L156.237 103.221ZM142.542 93.844L156.034 102.614C156.979 99.8816 156.439 96.8797 155.36 95.5979C154.348 94.3837 149.221 90.8757 148.749 90.5722C146.927 90.2011 143.419 93.1019 142.542 93.844Z" fill="white"/>
<path d="M129.051 118.028C129.051 118.028 128.916 128.518 128.376 131.048C127.836 133.578 113.231 145.383 113.231 145.383C113.231 145.383 112.287 146.26 111.41 147.171C110.87 147.34 110.094 147.677 109.757 148.183C109.319 148.857 109.285 149.228 109.656 149.296C109.15 150.004 107.092 152.838 107.43 153.377C107.834 153.984 107.936 153.613 108.576 152.838C108.948 152.399 109.588 151.455 110.128 150.713C110.128 150.713 110.128 150.746 110.162 150.746C109.723 151.623 108.307 154.457 108.104 155.064C107.868 155.806 108.239 156.008 108.846 155.367C109.319 154.828 110.432 152.871 111.039 151.893C111.039 151.893 111.072 151.893 111.072 151.927C110.735 152.669 109.656 155.097 109.757 155.772C109.892 156.582 110.33 156.48 110.836 154.929C111.14 153.951 111.68 152.871 112.017 152.264C112.118 152.264 112.186 152.264 112.287 152.23C112.287 152.23 112.287 152.23 112.32 152.23C111.882 153.242 111.376 154.625 111.444 155.097C111.578 155.907 112.017 155.806 112.523 154.254C112.86 153.209 113.434 152.095 113.737 151.488C114.817 150.611 115.66 149.296 115.66 149.296C115.66 149.296 132.997 140.189 135.021 134.927C137.044 129.699 137.449 117.995 137.449 117.995H129.051V118.028Z" fill="#F9B193"/>
<path d="M148.816 91.2808C148.816 91.2808 138.664 81.9377 135.864 79.8801C133.537 78.1599 127.668 72.662 125.779 70.908C125.779 70.8743 125.812 70.8405 125.812 70.8068L125.239 70.4021C125.205 70.3683 125.205 70.3683 125.205 70.3683L120.652 67.164C120.652 67.164 114.614 62.8803 113.906 62.9477C113.164 62.9815 113.063 63.4874 113.569 63.9259C114.074 64.3307 116.975 66.4894 117.515 67.0628C117.751 67.3326 118.156 67.6362 118.594 67.9735C118.257 67.9398 117.818 67.906 117.346 67.8048C116.334 67.6025 114.344 66.4557 114.074 66.9616C113.805 67.4675 113.805 67.8049 114.547 68.2096C115.154 68.5806 119.033 70.3346 120.82 70.7394C121.124 71.2453 121.428 71.7512 121.9 72.1223C122.777 72.8981 123.519 74.0786 123.519 74.0786C125.003 76.3048 128.983 80.5547 129.793 81.8027C130.804 83.3881 133.166 84.1976 134.683 85.6817C136.168 87.1658 142.104 93.7431 143.419 94.6201C144.735 95.4971 149.626 93.878 148.816 91.2808Z" fill="#F9B193"/>
<path d="M115.525 65.3763C115.525 65.3763 112.624 64.8366 112.523 65.545C112.422 66.2533 115.795 66.287 117.245 66.7592C118.527 67.1977 115.525 65.3763 115.525 65.3763Z" fill="#F9B193"/>
<path d="M130.299 99.6455C130.299 99.6455 126.723 101.636 126.723 107.403C126.723 113.171 128.511 120.558 128.511 120.558C128.511 120.558 135.088 122.548 137.888 118.973C140.687 115.397 136.876 102.445 136.876 102.445C136.876 102.445 134.076 99.2408 130.299 99.6455Z" fill="#E59339"/>
<path d="M157.013 105.447C156.911 105.481 156.844 105.515 156.743 105.548C153.606 106.864 155.63 107.64 152.695 111.519C149.761 115.431 141.8 112.463 137.112 107.808C132.424 103.154 137.146 103.39 137.112 100.354C137.078 97.3184 133.975 96.5089 132.255 91.9891C130.535 87.4692 135.594 84.872 136.707 83.0844C137.82 81.2967 136.606 77.1142 134.818 76.507C133.031 75.8999 132.221 79.88 132.221 79.88H130.737L131.142 77.013C131.142 77.013 127.904 75.7987 128.14 73.0329C128.41 70.267 132.019 64.3643 138.933 63.6897C145.882 63.0151 149.39 66.0845 150.773 69.6599C152.122 73.2352 152.864 77.6201 150.773 82.5784C148.681 87.5367 148.479 86.1201 148.951 89.0546C149.423 91.989 157.89 93.9791 159.88 98.6001C161.802 103.154 159.981 104.166 157.013 105.447Z" fill="#432918"/>
<path opacity="0.2" d="M142.441 210.043C144.026 217.801 144.229 239.523 142.441 243.132C141.901 244.212 140.788 244.92 139.507 245.257C139.507 245.257 139.81 212.843 137.348 207.851C134.886 202.859 135.729 203.23 137.415 198.879C139.068 194.494 142.677 176.179 143.419 172.401C143.959 169.601 144.634 169.332 144.735 170.883C143.993 180.361 140.957 202.792 142.441 210.043Z" fill="#19323F"/>
<path opacity="0.2" d="M173.54 240.738C173.237 241.547 172.798 242.154 172.225 242.593L170.437 243.47L169.965 243.706C169.965 243.706 169.965 243.672 169.965 243.571C169.729 241.716 166.727 219.555 164.872 213.619C162.949 207.446 161.836 206.637 158.497 202.353C155.191 198.069 156.237 191.695 156.641 182.925C157.046 174.155 155.63 166.869 155.63 166.869C157.552 166.127 159.205 165.115 160.284 163.8C162.038 170.276 163.792 178.574 163.05 183.937C161.667 193.887 162.645 199.486 166.626 206.637C170.538 213.821 173.54 240.738 173.54 240.738Z" fill="#19323F"/>
<path opacity="0.1" d="M161.397 161.203C161.263 162.181 160.858 163.024 160.251 163.8C159.171 165.115 157.519 166.161 155.596 166.869C154.618 167.24 153.572 167.544 152.526 167.78C152.999 164.812 153.64 159.449 153.1 156.278C152.29 151.725 148.85 143.022 147.771 139.042C146.691 135.062 146.556 130.137 147.771 126.292C148.951 122.447 150.739 111.687 150.739 111.687L155.933 105.481C155.326 110.507 153.943 116.477 152.83 119.411C151.042 124.201 153.437 134.556 154.82 139.346C156.203 144.068 162.173 155.84 161.397 161.203Z" fill="#432918"/>
<path d="M157.013 105.447C157.046 104.166 156.979 102.614 156.54 100.928C155.461 96.6438 147.905 95.2272 145.376 92.5625C142.846 89.8979 143.521 85.1082 146.927 82.9832C150.334 80.8582 150.739 69.6937 150.739 69.6937C152.088 73.269 152.83 77.6539 150.739 82.6122C148.648 87.5705 148.445 86.1538 148.917 89.0883C149.39 92.0228 157.856 94.0129 159.846 98.6339C161.802 103.154 159.981 104.166 157.013 105.447Z" fill="#3A2316"/>
</svg>
