<svg width="718" height="597" viewBox="0 0 718 597" fill="none" xmlns="http://www.w3.org/2000/svg">
<g clip-path="url(#clip0_1_144)">
<path d="M371.126 0H162.583C130.148 0 103.855 26.2936 103.855 58.7284V535.272C103.855 567.706 130.148 594 162.583 594H371.126C403.561 594 429.855 567.706 429.855 535.272V58.7284C429.855 26.2936 403.561 0 371.126 0Z" fill="#3F3D56"/>
<path d="M424.355 58.7323V535.272C424.339 549.385 418.725 562.915 408.746 572.894C398.767 582.873 385.238 588.486 371.125 588.502H162.585C148.473 588.486 134.943 582.873 124.964 572.894C114.985 562.915 109.372 549.385 109.355 535.272V58.7323C109.372 44.6199 114.985 31.0901 124.964 21.1111C134.943 11.1321 148.473 5.51866 162.585 5.50232H189.855V14.9223C189.855 19.1869 191.55 23.2768 194.565 26.2923C197.581 29.3079 201.671 31.0021 205.935 31.0023H327.775C332.04 31.0021 336.13 29.3079 339.145 26.2923C342.161 23.2768 343.855 19.1869 343.855 14.9223V5.50232H371.125C385.238 5.51866 398.767 11.1321 408.746 21.1111C418.725 31.0901 424.339 44.6199 424.355 58.7323Z" fill="white"/>
<path d="M102.355 120.5C101.294 120.499 100.278 120.077 99.5277 119.327C98.7778 118.577 98.356 117.56 98.3548 116.5V108.5C98.3548 107.439 98.7762 106.422 99.5263 105.672C100.276 104.921 101.294 104.5 102.355 104.5C103.416 104.5 104.433 104.921 105.183 105.672C105.933 106.422 106.355 107.439 106.355 108.5V116.5C106.354 117.56 105.932 118.577 105.182 119.327C104.432 120.077 103.415 120.499 102.355 120.5Z" fill="#3F3D56"/>
<path d="M102.355 161.521C101.294 161.52 100.278 161.098 99.5277 160.349C98.7778 159.599 98.356 158.582 98.3548 157.521V135.5C98.3548 134.439 98.7762 133.422 99.5263 132.672C100.276 131.921 101.294 131.5 102.355 131.5C103.416 131.5 104.433 131.921 105.183 132.672C105.933 133.422 106.355 134.439 106.355 135.5V157.521C106.354 158.582 105.932 159.599 105.182 160.349C104.432 161.098 103.415 161.52 102.355 161.521Z" fill="#3F3D56"/>
<path d="M102.355 194.5C101.294 194.499 100.278 194.077 99.5277 193.327C98.7778 192.577 98.356 191.56 98.3548 190.5V168.479C98.3548 167.418 98.7762 166.4 99.5263 165.65C100.276 164.9 101.294 164.479 102.355 164.479C103.416 164.479 104.433 164.9 105.183 165.65C105.933 166.4 106.355 167.418 106.355 168.479V190.5C106.354 191.56 105.932 192.577 105.182 193.327C104.432 194.077 103.415 194.499 102.355 194.5Z" fill="#3F3D56"/>
<path d="M430.355 176.5C429.294 176.499 428.278 176.077 427.528 175.327C426.778 174.577 426.356 173.56 426.355 172.5V118.767C426.355 117.706 426.776 116.688 427.526 115.938C428.276 115.188 429.294 114.767 430.355 114.767C431.416 114.767 432.433 115.188 433.183 115.938C433.933 116.688 434.355 117.706 434.355 118.767V172.5C434.354 173.56 433.932 174.577 433.182 175.327C432.432 176.077 431.415 176.499 430.355 176.5Z" fill="#3F3D56"/>
<path d="M198.721 549.53H163.989C159.446 549.525 155.091 547.718 151.879 544.506C148.667 541.294 146.86 536.939 146.855 532.396V497.664C146.86 493.121 148.667 488.766 151.879 485.554C155.091 482.342 159.446 480.535 163.989 480.53H198.721C203.264 480.535 207.619 482.342 210.831 485.554C214.043 488.766 215.85 493.121 215.855 497.664V532.396C215.85 536.939 214.043 541.294 210.831 544.506C207.619 547.718 203.264 549.525 198.721 549.53Z" fill="#C6E0DD"/>
<path d="M284.221 550.03H249.489C244.946 550.025 240.591 548.218 237.379 545.006C234.167 541.794 232.36 537.439 232.355 532.896V498.164C232.36 493.621 234.167 489.266 237.379 486.054C240.591 482.842 244.946 481.035 249.489 481.03H284.221C288.764 481.035 293.119 482.842 296.331 486.054C299.543 489.266 301.35 493.621 301.355 498.164V532.896C301.35 537.439 299.543 541.794 296.331 545.006C293.119 548.218 288.764 550.025 284.221 550.03Z" fill="#E6E6E6"/>
<path d="M369.721 550.53H334.989C330.446 550.525 326.091 548.718 322.879 545.506C319.667 542.294 317.86 537.939 317.855 533.396V498.664C317.86 494.121 319.667 489.766 322.879 486.554C326.091 483.342 330.446 481.535 334.989 481.53H369.721C374.264 481.535 378.619 483.342 381.831 486.554C385.043 489.766 386.85 494.121 386.855 498.664V533.396C386.85 537.939 385.043 542.294 381.831 545.506C378.619 548.718 374.264 550.525 369.721 550.53Z" fill="#E6E6E6"/>
<path d="M248.855 452.03C251.616 452.03 253.855 449.791 253.855 447.03C253.855 444.269 251.616 442.03 248.855 442.03C246.093 442.03 243.855 444.269 243.855 447.03C243.855 449.791 246.093 452.03 248.855 452.03Z" fill="#CCCCCC"/>
<path d="M266.855 452.03C269.616 452.03 271.855 449.791 271.855 447.03C271.855 444.269 269.616 442.03 266.855 442.03C264.093 442.03 261.855 444.269 261.855 447.03C261.855 449.791 264.093 452.03 266.855 452.03Z" fill="#E6E6E6"/>
<path d="M284.855 452.03C287.616 452.03 289.855 449.791 289.855 447.03C289.855 444.269 287.616 442.03 284.855 442.03C282.093 442.03 279.855 444.269 279.855 447.03C279.855 449.791 282.093 452.03 284.855 452.03Z" fill="#E6E6E6"/>
<path d="M386.441 561.03H147.536C142.088 561.024 136.866 558.857 133.014 555.005C129.162 551.153 126.995 545.931 126.989 540.483V489.577C126.995 484.129 129.162 478.907 133.014 475.055C136.866 471.203 142.088 469.036 147.536 469.03H386.441C391.889 469.036 397.111 471.203 400.963 475.055C404.815 478.907 406.982 484.129 406.989 489.577V540.483C406.982 545.931 404.815 551.153 400.963 555.005C397.111 558.857 391.889 561.024 386.441 561.03ZM147.536 471.03C142.619 471.036 137.904 472.991 134.427 476.468C130.95 479.945 128.994 484.66 128.989 489.577V540.483C128.994 545.4 130.95 550.115 134.427 553.592C137.904 557.069 142.619 559.024 147.536 559.03H386.441C391.359 559.024 396.073 557.069 399.55 553.592C403.027 550.115 404.983 545.4 404.989 540.483V489.577C404.983 484.66 403.027 479.945 399.55 476.468C396.073 472.991 391.359 471.036 386.441 471.03H147.536Z" fill="#E6E6E6"/>
<path d="M594.12 129.687C592.126 129.996 590.332 131.07 589.119 132.682C587.906 134.294 587.369 136.315 587.624 138.317C587.682 138.723 587.773 139.123 587.898 139.514L566.4 155.878L570.866 169.708L597.891 144.107C599.472 143.466 600.796 142.321 601.657 140.848C602.518 139.376 602.868 137.66 602.651 135.968C602.519 135.007 602.198 134.081 601.708 133.243C601.217 132.406 600.567 131.673 599.793 131.087C599.019 130.501 598.138 130.073 597.199 129.827C596.26 129.582 595.282 129.524 594.32 129.656C594.253 129.665 594.186 129.676 594.12 129.687Z" fill="#FFB6B6"/>
<path d="M445.822 205.559C445.96 208.947 447.417 212.147 449.881 214.477C452.345 216.807 455.622 218.082 459.013 218.03L499.602 217.409L550.928 193.605C550.928 193.605 567.666 179.398 572.332 179.063C576.999 178.729 579.484 183.071 578.427 179.107C577.369 175.142 575.97 172.488 579.556 172.859C583.143 173.229 582.572 165.913 583.365 163.146C584.159 160.378 573.25 150.391 573.25 150.391C573.25 150.391 565.388 150.544 564.873 151.576C564.359 152.609 566.149 155.212 561.925 155.101C557.7 154.989 554.474 155.167 554.342 157.129C554.21 159.091 554.518 160.62 552.176 162.139C549.835 163.658 539.268 171.49 539.268 171.49L455.657 192.415C452.757 193.141 450.195 194.844 448.403 197.238C446.612 199.632 445.7 202.571 445.822 205.559Z" fill="#3F3D56"/>
<path d="M467.555 574.794H478.593L483.845 532.22H467.555V574.794Z" fill="#FFB6B6"/>
<path d="M463.953 567.234L481.587 566.182V573.737L498.352 585.316C499.18 585.887 499.804 586.709 500.132 587.66C500.46 588.612 500.475 589.643 500.176 590.604C499.876 591.564 499.278 592.404 498.467 593C497.656 593.597 496.676 593.918 495.67 593.918H474.676L471.058 586.445L469.645 593.918H461.729L463.953 567.234Z" fill="#2F2E41"/>
<path d="M485.989 302.03L491.989 265.03L449.989 255.03V293.361L485.989 302.03Z" fill="#FFB6B6"/>
<path d="M433.489 337.53L454.023 471.007C454.023 471.007 452.815 529.018 462.152 542.274L464.489 556.53H485.556C485.556 556.53 485.168 547.774 487.328 542.652C489.489 537.53 492.489 540.924 489.489 536.227C486.489 531.53 486.168 532.05 487.328 528.29C488.489 524.53 489.166 354.054 489.166 354.054L433.489 337.53Z" fill="#2F2E41"/>
<path d="M445.996 509.241L452.392 518.236L490.133 497.847L480.693 484.57L445.996 509.241Z" fill="#FFB6B6"/>
<path d="M450.07 501.924L461.146 515.686L454.989 520.064L455.267 540.437C455.281 541.443 454.973 542.427 454.388 543.246C453.803 544.064 452.971 544.675 452.015 544.987C451.058 545.3 450.027 545.299 449.071 544.984C448.115 544.669 447.285 544.056 446.702 543.236L434.537 526.126L438.53 518.847L431.621 522.026L427.034 515.575L450.07 501.924Z" fill="#2F2E41"/>
<path d="M447.989 271.03L447.702 286.516C447.702 286.516 409.745 319.826 438.367 360.428C438.367 360.428 441.973 372.117 446.981 371.574C451.989 371.03 454.539 373.824 453.264 376.427C451.989 379.03 500.65 410.699 500.65 410.699C500.65 410.699 468.577 481.411 460.989 497.03L465.989 513.03C465.989 513.03 463.34 519.219 467.414 516.874C471.489 514.53 469.484 514.21 473.986 513.37C478.489 512.53 484.038 510.601 483.763 509.565C483.489 508.53 539.748 421.484 539.748 421.484C539.748 421.484 553.229 407.144 543.359 390.337C541.989 390.03 541.953 390.337 541.953 390.337L493.705 335.394L487.989 299.03L447.989 271.03Z" fill="#2F2E41"/>
<path d="M491.394 171.755L467.09 160.365L459.814 173.025C459.814 173.025 440.272 200.912 439.989 221.03C439.705 241.148 443.173 247.131 443.173 247.131C443.173 247.131 434.748 253.43 438.96 257.28C443.173 261.131 452.5 262.792 445.337 264.462C438.173 266.131 439.989 283.03 447.989 286.03C455.989 289.03 498.953 289.004 498.953 289.004C498.567 287.694 498.538 286.304 498.87 284.979C499.203 283.654 499.884 282.442 500.843 281.469C504.173 278.131 507.173 280.526 504.173 275.329C501.173 270.131 496.173 273.131 500.173 266.131C504.173 259.131 504.172 257.039 504.172 257.039C504.172 257.039 513.914 240.238 500.044 224.684C486.173 209.131 499.924 223.618 499.924 223.618L490.007 190.383L491.394 171.755Z" fill="#3F3D56"/>
<path d="M589.855 270.03H555.122C550.58 270.025 546.225 268.218 543.013 265.006C539.8 261.794 537.994 257.439 537.989 252.896V218.164C537.994 213.621 539.8 209.266 543.013 206.054C546.225 202.842 550.58 201.035 555.122 201.03H589.855C594.397 201.035 598.752 202.842 601.965 206.054C605.177 209.266 606.984 213.621 606.989 218.164V252.896C606.984 257.439 605.177 261.794 601.965 265.006C598.752 268.218 594.397 270.025 589.855 270.03Z" fill="#C6E0DD"/>
<path d="M607.855 138.03H573.122C568.58 138.025 564.225 136.218 561.013 133.006C557.8 129.794 555.994 125.439 555.989 120.896V86.1638C555.994 81.6212 557.8 77.2661 561.013 74.054C564.225 70.8419 568.58 69.0351 573.122 69.03H607.855C612.397 69.0351 616.752 70.8419 619.965 74.054C623.177 77.2661 624.984 81.6212 624.989 86.1638V120.896C624.984 125.439 623.177 129.794 619.965 133.006C616.752 136.218 612.397 138.025 607.855 138.03Z" fill="#C6E0DD"/>
<path d="M513.864 158.507L513.885 158.504C515.007 158.371 516.029 157.798 516.728 156.911C517.427 156.025 517.744 154.897 517.611 153.775L514.828 130.182C514.334 125.955 512.995 121.87 510.89 118.171C506.771 110.953 500.026 105.602 492.06 103.235C487.948 102.018 483.632 101.646 479.373 102.142C461.946 104.169 456.466 109.062 451.491 137.367C446.515 165.672 454.278 160.996 454.278 160.996C454.344 161.565 454.525 162.114 454.808 162.612C455.363 163.582 456.271 164.301 457.343 164.617C457.893 164.779 458.47 164.828 459.04 164.763C480.329 165.574 501.857 166.616 513.868 158.506L513.864 158.507Z" fill="#2F2E41"/>
<path d="M467.93 127.51C466.198 131.803 465.777 136.512 466.72 141.043C467.663 145.575 469.928 149.725 473.228 152.971C476.528 156.216 480.716 158.41 485.263 159.277C489.81 160.143 494.512 159.643 498.774 157.838C501.598 156.654 504.158 154.921 506.307 152.739C508.456 150.558 510.151 147.972 511.294 145.131C513.021 140.841 513.439 136.136 512.495 131.608C511.552 127.081 509.289 122.935 505.992 119.692C502.695 116.449 498.512 114.254 493.97 113.385C489.428 112.517 484.73 113.012 480.469 114.809C477.643 115.991 475.079 117.722 472.926 119.903C470.774 122.083 469.075 124.668 467.93 127.51Z" fill="#FFB6B6"/>
<path d="M522.538 131.22C522.147 127.876 521.087 124.646 519.423 121.72C517.549 114.092 513.834 107.615 504.533 109.911C501.302 108.956 497.911 108.66 494.563 109.042L489.838 109.576C489.785 109.582 489.732 109.588 489.679 109.594C483.076 110.377 477.054 113.751 472.939 118.974C468.823 124.197 466.951 130.841 467.734 137.444L467.79 137.917L477.784 136.779L480.068 126.861L481.873 136.315L487.036 135.729L488.187 130.725L489.099 135.492C498.021 140.497 509.479 138.408 522.59 131.694L522.538 131.22Z" fill="#2F2E41"/>
<path d="M495.921 159.869C496.167 160.614 496.2 161.412 496.015 162.174C495.923 162.563 495.777 162.938 495.581 163.287C495.413 163.585 495.211 163.861 494.978 164.111C494.288 164.85 493.357 165.318 492.353 165.432C492.29 165.439 492.227 165.444 492.165 165.449C492.102 165.453 492.039 165.456 491.975 165.458C491.912 165.46 491.848 165.46 491.784 165.459C491.721 165.457 491.657 165.455 491.592 165.451L487.971 165.225L481.857 155.368L482.984 164.924L466.522 163.924L461.738 123.37L488.777 120.312L488.201 121.167C486.291 124.032 485.208 127.369 485.071 130.809C484.951 134.293 485.428 137.771 486.482 141.093C487.522 144.457 488.883 147.714 490.546 150.818C492.005 153.57 493.62 156.236 495.385 158.802C495.613 159.131 495.793 159.49 495.921 159.869Z" fill="#2F2E41"/>
<path d="M559.568 197.308C557.691 198.048 556.177 199.491 555.349 201.33C554.52 203.17 554.441 205.26 555.13 207.156C555.276 207.539 555.453 207.91 555.66 208.263L538.29 228.957L545.689 241.465L566.42 210.545C567.821 209.573 568.86 208.164 569.376 206.538C569.893 204.912 569.856 203.162 569.272 201.559C568.932 200.65 568.415 199.817 567.752 199.108C567.09 198.399 566.294 197.827 565.41 197.426C564.527 197.024 563.573 196.801 562.603 196.768C561.633 196.735 560.666 196.893 559.757 197.234C559.694 197.258 559.631 197.283 559.568 197.308Z" fill="#FFB6B6"/>
<path d="M468.593 193.157C466.843 193.948 465.284 195.106 464.022 196.553C462.76 198 461.824 199.702 461.278 201.543C460.733 203.384 460.59 205.321 460.859 207.222C461.129 209.123 461.805 210.944 462.841 212.56L479.489 238.53L518.489 273.53C518.489 273.53 550.489 250.53 551.489 242.53C552.489 234.53 549.489 232.53 552.489 234.53C555.489 236.53 558.489 235.53 557.489 234.53C556.489 233.53 556.881 233.467 557.685 231.998C558.489 230.53 561.489 223.53 561.489 223.53L550.863 213.03C550.863 213.03 539.489 218.53 538.489 221.53C537.489 224.53 541.489 223.53 537.489 224.53C533.489 225.53 528.145 220.995 532.317 225.762C536.489 230.53 536.145 232.601 532.317 232.565C528.489 232.53 521.489 242.53 521.489 242.53L484.484 196.918C482.623 194.624 480.054 193.011 477.179 192.33C474.305 191.65 471.285 191.941 468.593 193.157Z" fill="#3F3D56"/>
<path d="M587.752 570.04C588.482 570.067 589.203 569.868 589.817 569.471C590.43 569.075 590.907 568.499 591.183 567.822C591.458 567.145 591.519 566.4 591.357 565.688C591.194 564.975 590.817 564.33 590.276 563.839C590.183 563.482 590.116 563.227 590.023 562.87C590.704 561.089 591.902 559.552 593.463 558.456C595.024 557.36 596.877 556.755 598.783 556.719C600.69 556.683 602.564 557.217 604.166 558.253C605.767 559.289 607.022 560.78 607.771 562.534C612.089 572.38 617.652 582.562 615.038 593.477C632.632 555.249 626.074 507.969 599.227 475.676C591.854 471.705 585.84 464.583 584.213 456.262C587.855 457.458 592.353 454.462 589.587 450.664C588.39 449.213 587.182 447.775 585.985 446.325C599.635 431.507 616.285 454.432 601.295 474.399C606.32 480.577 610.685 487.263 614.319 494.349C613.424 486.797 614.334 479.14 616.975 472.008C619.657 465.359 624.75 459.732 629.226 453.964C634.669 446.935 646.039 450.045 646.865 458.891C641.796 460.611 641.206 467.962 647.032 468.912C645.665 485.395 635.05 500.632 620.3 507.996C625.918 523.299 628.211 539.623 627.025 555.881C629.46 536.87 649.796 532.069 663.969 524.387C664.87 523.797 665.923 523.482 667 523.48C668.078 523.479 669.132 523.791 670.035 524.378C670.938 524.965 671.65 525.803 672.085 526.788C672.52 527.773 672.659 528.864 672.485 529.927C670.527 530.745 668.654 531.756 666.896 532.944C666.072 533.51 665.443 534.316 665.095 535.253C664.747 536.19 664.698 537.211 664.954 538.178C665.209 539.144 665.757 540.007 666.523 540.649C667.289 541.292 668.234 541.681 669.23 541.765C662.219 559.605 643.768 571.715 624.701 571.829C622.945 579.809 620.364 587.584 617 595.03L588.702 595.3C588.597 594.986 588.503 594.662 588.409 594.349C591.029 594.488 593.658 594.307 596.234 593.808C589.226 585.669 583.828 581.533 587.752 570.04Z" fill="#F2F2F2"/>
<path d="M2.05258e-05 595.139C-0.000445544 595.296 0.0300241 595.451 0.0896659 595.595C0.149308 595.74 0.236954 595.871 0.347555 595.982C0.458156 596.092 0.589526 596.18 0.734121 596.24C0.878716 596.299 1.03368 596.33 1.19008 596.329H716.48C716.796 596.329 717.098 596.204 717.322 595.981C717.545 595.757 717.67 595.455 717.67 595.139C717.67 594.824 717.545 594.521 717.322 594.298C717.098 594.075 716.796 593.949 716.48 593.949H1.19002C1.03362 593.949 0.878676 593.979 0.73409 594.039C0.589505 594.099 0.458133 594.186 0.347539 594.297C0.236946 594.407 0.149306 594.539 0.0896659 594.683C0.030026 594.828 -0.000440196 594.983 2.05258e-05 595.139Z" fill="#CCCCCC"/>
<path d="M177.941 29.073H150.941C149.615 29.073 148.343 28.5462 147.405 27.6085C146.467 26.6709 145.941 25.3991 145.941 24.073C145.941 22.7469 146.467 21.4751 147.405 20.5375C148.343 19.5998 149.615 19.073 150.941 19.073H177.941C179.267 19.073 180.539 19.5998 181.476 20.5375C182.414 21.4751 182.941 22.7469 182.941 24.073C182.941 25.3991 182.414 26.6709 181.476 27.6085C180.539 28.5462 179.267 29.073 177.941 29.073Z" fill="#E6E6E6"/>
<path d="M354.941 28.573C357.426 28.573 359.441 26.5583 359.441 24.073C359.441 21.5877 357.426 19.573 354.941 19.573C352.455 19.573 350.441 21.5877 350.441 24.073C350.441 26.5583 352.455 28.573 354.941 28.573Z" fill="#E6E6E6"/>
<path d="M368.941 28.573C371.426 28.573 373.441 26.5583 373.441 24.073C373.441 21.5877 371.426 19.573 368.941 19.573C366.455 19.573 364.441 21.5877 364.441 24.073C364.441 26.5583 366.455 28.573 368.941 28.573Z" fill="#E6E6E6"/>
<path d="M382.941 28.573C385.426 28.573 387.441 26.5583 387.441 24.073C387.441 21.5877 385.426 19.573 382.941 19.573C380.455 19.573 378.441 21.5877 378.441 24.073C378.441 26.5583 380.455 28.573 382.941 28.573Z" fill="#E6E6E6"/>
<path d="M236.574 128.982C236.037 129.571 235.43 130.23 234.754 130.958C234.078 131.669 233.367 132.405 232.622 133.168C231.894 133.913 231.166 134.65 230.438 135.378C229.71 136.106 229.025 136.782 228.384 137.406C229.129 137.926 229.918 138.567 230.75 139.33C231.582 140.093 232.397 140.907 233.194 141.774C233.991 142.641 234.737 143.525 235.43 144.426C236.141 145.327 236.73 146.185 237.198 147H234.234C233.714 146.185 233.116 145.371 232.44 144.556C231.764 143.724 231.045 142.935 230.282 142.19C229.537 141.427 228.774 140.725 227.994 140.084C227.231 139.443 226.486 138.897 225.758 138.446V147H223.236V128.982H225.758V136.938C226.365 136.366 227.032 135.725 227.76 135.014C228.488 134.286 229.207 133.558 229.918 132.83C230.629 132.102 231.296 131.409 231.92 130.75C232.561 130.074 233.099 129.485 233.532 128.982H236.574ZM250.807 140.24C250.807 141.315 250.651 142.285 250.339 143.152C250.027 144.019 249.585 144.764 249.013 145.388C248.458 146.012 247.791 146.497 247.011 146.844C246.231 147.173 245.382 147.338 244.463 147.338C243.544 147.338 242.695 147.173 241.915 146.844C241.135 146.497 240.459 146.012 239.887 145.388C239.332 144.764 238.899 144.019 238.587 143.152C238.275 142.285 238.119 141.315 238.119 140.24C238.119 139.183 238.275 138.221 238.587 137.354C238.899 136.47 239.332 135.716 239.887 135.092C240.459 134.468 241.135 133.991 241.915 133.662C242.695 133.315 243.544 133.142 244.463 133.142C245.382 133.142 246.231 133.315 247.011 133.662C247.791 133.991 248.458 134.468 249.013 135.092C249.585 135.716 250.027 136.47 250.339 137.354C250.651 138.221 250.807 139.183 250.807 140.24ZM248.285 140.24C248.285 138.715 247.938 137.51 247.245 136.626C246.569 135.725 245.642 135.274 244.463 135.274C243.284 135.274 242.348 135.725 241.655 136.626C240.979 137.51 240.641 138.715 240.641 140.24C240.641 141.765 240.979 142.979 241.655 143.88C242.348 144.764 243.284 145.206 244.463 145.206C245.642 145.206 246.569 144.764 247.245 143.88C247.938 142.979 248.285 141.765 248.285 140.24ZM254.209 133.87C254.764 133.731 255.5 133.584 256.419 133.428C257.338 133.272 258.395 133.194 259.591 133.194C260.666 133.194 261.558 133.35 262.269 133.662C262.98 133.957 263.543 134.381 263.959 134.936C264.392 135.473 264.696 136.123 264.869 136.886C265.042 137.649 265.129 138.489 265.129 139.408V147H262.711V139.928C262.711 139.096 262.65 138.385 262.529 137.796C262.425 137.207 262.243 136.73 261.983 136.366C261.723 136.002 261.376 135.742 260.943 135.586C260.51 135.413 259.972 135.326 259.331 135.326C259.071 135.326 258.802 135.335 258.525 135.352C258.248 135.369 257.979 135.395 257.719 135.43C257.476 135.447 257.251 135.473 257.043 135.508C256.852 135.543 256.714 135.569 256.627 135.586V147H254.209V133.87ZM271.401 133.48H276.523V135.508H271.401V141.748C271.401 142.424 271.453 142.987 271.557 143.438C271.661 143.871 271.817 144.218 272.025 144.478C272.233 144.721 272.493 144.894 272.805 144.998C273.117 145.102 273.481 145.154 273.897 145.154C274.625 145.154 275.205 145.076 275.639 144.92C276.089 144.747 276.401 144.625 276.575 144.556L277.043 146.558C276.8 146.679 276.375 146.827 275.769 147C275.162 147.191 274.469 147.286 273.689 147.286C272.77 147.286 272.007 147.173 271.401 146.948C270.811 146.705 270.335 146.35 269.971 145.882C269.607 145.414 269.347 144.842 269.191 144.166C269.052 143.473 268.983 142.675 268.983 141.774V129.71L271.401 129.294V133.48ZM284.176 145.258C284.748 145.258 285.25 145.249 285.684 145.232C286.134 145.197 286.507 145.145 286.802 145.076V141.046C286.628 140.959 286.342 140.89 285.944 140.838C285.562 140.769 285.094 140.734 284.54 140.734C284.176 140.734 283.786 140.76 283.37 140.812C282.971 140.864 282.598 140.977 282.252 141.15C281.922 141.306 281.645 141.531 281.42 141.826C281.194 142.103 281.082 142.476 281.082 142.944C281.082 143.811 281.359 144.417 281.914 144.764C282.468 145.093 283.222 145.258 284.176 145.258ZM283.968 133.142C284.938 133.142 285.753 133.272 286.412 133.532C287.088 133.775 287.625 134.13 288.024 134.598C288.44 135.049 288.734 135.595 288.908 136.236C289.081 136.86 289.168 137.553 289.168 138.316V146.766C288.96 146.801 288.665 146.853 288.284 146.922C287.92 146.974 287.504 147.026 287.036 147.078C286.568 147.13 286.056 147.173 285.502 147.208C284.964 147.26 284.427 147.286 283.89 147.286C283.127 147.286 282.425 147.208 281.784 147.052C281.142 146.896 280.588 146.653 280.12 146.324C279.652 145.977 279.288 145.527 279.028 144.972C278.768 144.417 278.638 143.75 278.638 142.97C278.638 142.225 278.785 141.583 279.08 141.046C279.392 140.509 279.808 140.075 280.328 139.746C280.848 139.417 281.454 139.174 282.148 139.018C282.841 138.862 283.569 138.784 284.332 138.784C284.574 138.784 284.826 138.801 285.086 138.836C285.346 138.853 285.588 138.888 285.814 138.94C286.056 138.975 286.264 139.009 286.438 139.044C286.611 139.079 286.732 139.105 286.802 139.122V138.446C286.802 138.047 286.758 137.657 286.672 137.276C286.585 136.877 286.429 136.531 286.204 136.236C285.978 135.924 285.666 135.681 285.268 135.508C284.886 135.317 284.384 135.222 283.76 135.222C282.962 135.222 282.26 135.283 281.654 135.404C281.064 135.508 280.622 135.621 280.328 135.742L280.042 133.74C280.354 133.601 280.874 133.471 281.602 133.35C282.33 133.211 283.118 133.142 283.968 133.142ZM298.072 139.564C298.592 139.963 299.138 140.457 299.71 141.046C300.299 141.635 300.871 142.277 301.426 142.97C301.998 143.646 302.535 144.339 303.038 145.05C303.54 145.743 303.965 146.393 304.312 147H301.478C301.114 146.393 300.689 145.778 300.204 145.154C299.736 144.513 299.242 143.906 298.722 143.334C298.202 142.745 297.673 142.207 297.136 141.722C296.598 141.237 296.087 140.829 295.602 140.5V147H293.184V127.24L295.602 126.824V139.148C296.018 138.732 296.477 138.273 296.98 137.77C297.482 137.267 297.976 136.756 298.462 136.236C298.947 135.716 299.406 135.222 299.84 134.754C300.273 134.269 300.646 133.844 300.958 133.48H303.792C303.393 133.913 302.96 134.39 302.492 134.91C302.024 135.43 301.538 135.959 301.036 136.496C300.533 137.016 300.022 137.545 299.502 138.082C298.999 138.602 298.522 139.096 298.072 139.564ZM309.03 133.48H314.152V135.508H309.03V141.748C309.03 142.424 309.082 142.987 309.186 143.438C309.29 143.871 309.446 144.218 309.654 144.478C309.862 144.721 310.122 144.894 310.434 144.998C310.746 145.102 311.11 145.154 311.526 145.154C312.254 145.154 312.834 145.076 313.268 144.92C313.718 144.747 314.03 144.625 314.204 144.556L314.672 146.558C314.429 146.679 314.004 146.827 313.398 147C312.791 147.191 312.098 147.286 311.318 147.286C310.399 147.286 309.636 147.173 309.03 146.948C308.44 146.705 307.964 146.35 307.6 145.882C307.236 145.414 306.976 144.842 306.82 144.166C306.681 143.473 306.612 142.675 306.612 141.774V129.71L309.03 129.294V133.48Z" fill="black"/>
<path d="M178.036 206.199H176.148L171.239 199.496L169.728 200.818V206.199H168.123V192.51H169.728V199.402C170.106 199.024 170.483 198.552 170.861 198.175C171.239 197.797 171.616 197.325 171.994 196.947L176.053 192.51H177.941L172.466 198.458L178.036 206.199Z" fill="black"/>
<path d="M184.361 195.721C184.55 195.721 184.739 195.721 185.022 195.721C185.211 195.721 185.494 195.815 185.589 195.815L185.4 197.231C185.211 197.231 185.022 197.137 184.833 197.137C184.645 197.137 184.456 197.137 184.267 197.137C183.889 197.137 183.417 197.231 183.134 197.42C182.756 197.609 182.473 197.798 182.19 198.175C181.907 198.459 181.718 198.836 181.529 199.308C181.34 199.78 181.34 200.252 181.34 200.724V206.294H179.735V196.004H181.057L181.246 197.892H181.34C181.529 197.515 181.812 197.137 182.096 196.854C182.379 196.571 182.756 196.287 183.134 196.098C183.512 195.815 183.889 195.721 184.361 195.721Z" fill="black"/>
<path d="M188.421 192.038C188.704 192.038 188.893 192.133 189.082 192.322C189.27 192.511 189.365 192.699 189.365 193.077C189.365 193.455 189.27 193.643 189.082 193.832C188.893 194.021 188.704 194.115 188.421 194.115C188.138 194.115 187.949 194.021 187.76 193.832C187.571 193.643 187.477 193.36 187.477 193.077C187.477 192.699 187.571 192.511 187.76 192.322C187.854 192.133 188.138 192.038 188.421 192.038ZM189.176 195.909V206.2H187.571V195.909H189.176Z" fill="black"/>
<path d="M199.088 203.367C199.088 204.028 198.9 204.594 198.616 205.066C198.333 205.538 197.861 205.821 197.2 206.104C196.634 206.293 195.879 206.482 195.029 206.482C194.274 206.482 193.707 206.388 193.141 206.293C192.574 206.199 192.197 206.01 191.725 205.821V204.405C192.102 204.594 192.669 204.783 193.235 204.972C193.802 205.16 194.368 205.255 195.029 205.255C195.879 205.255 196.539 205.066 197.012 204.783C197.389 204.5 197.578 204.122 197.578 203.65C197.578 203.367 197.484 203.083 197.295 202.895C197.106 202.706 196.823 202.423 196.445 202.234C196.067 202.045 195.595 201.762 194.84 201.573C194.179 201.29 193.613 201.101 193.141 200.818C192.669 200.534 192.291 200.251 192.008 199.874C191.725 199.496 191.63 199.024 191.63 198.458C191.63 197.608 192.008 196.947 192.669 196.475C193.33 196.003 194.274 195.814 195.407 195.814C196.067 195.814 196.634 195.909 197.106 196.003C197.672 196.097 198.144 196.286 198.616 196.475L198.05 197.702C197.578 197.513 197.2 197.325 196.728 197.23C196.256 197.136 195.784 197.041 195.218 197.041C194.463 197.041 193.99 197.136 193.518 197.419C193.141 197.702 192.952 197.985 192.952 198.363C192.952 198.646 193.046 198.93 193.235 199.118C193.424 199.307 193.707 199.496 194.085 199.685C194.463 199.874 195.029 200.062 195.69 200.346C196.351 200.629 196.917 200.818 197.389 201.101C197.861 201.384 198.239 201.667 198.522 202.045C198.994 202.328 199.088 202.8 199.088 203.367Z" fill="black"/>
<path d="M204.942 205.161C205.225 205.161 205.508 205.161 205.697 205.066C205.98 205.066 206.169 204.972 206.358 204.878V206.105C206.169 206.199 205.886 206.294 205.603 206.294C205.32 206.388 204.942 206.388 204.659 206.388C204.092 206.388 203.62 206.294 203.148 206.105C202.676 205.916 202.393 205.633 202.11 205.161C201.827 204.689 201.732 204.028 201.732 203.273V197.136H200.222V196.381L201.732 195.814L202.393 193.549H203.337V195.909H206.358V197.136H203.337V203.178C203.337 203.839 203.526 204.311 203.809 204.594C204.092 204.972 204.47 205.161 204.942 205.161Z" fill="black"/>
<path d="M209.285 192.038C209.568 192.038 209.757 192.133 209.946 192.322C210.134 192.511 210.229 192.699 210.229 193.077C210.229 193.455 210.134 193.643 209.946 193.832C209.757 194.021 209.568 194.115 209.285 194.115C209.002 194.115 208.813 194.021 208.624 193.832C208.435 193.643 208.341 193.36 208.341 193.077C208.341 192.699 208.435 192.511 208.624 192.322C208.813 192.133 209.002 192.038 209.285 192.038ZM210.04 195.909V206.2H208.435V195.909H210.04Z" fill="black"/>
<path d="M217.215 195.72C218.442 195.72 219.386 196.003 219.953 196.57C220.519 197.136 220.802 197.986 220.802 199.213V206.199H219.67L219.386 204.689H219.292C219.009 205.066 218.725 205.35 218.348 205.633C218.065 205.916 217.687 206.105 217.215 206.199C216.837 206.294 216.271 206.388 215.704 206.388C215.044 206.388 214.477 206.294 214.005 206.105C213.533 205.916 213.155 205.538 212.872 205.066C212.589 204.594 212.495 204.028 212.495 203.367C212.495 202.329 212.872 201.573 213.722 201.007C214.572 200.44 215.799 200.157 217.404 200.063L219.198 199.968V199.307C219.198 198.458 219.009 197.797 218.631 197.419C218.253 197.042 217.687 196.853 217.026 196.853C216.46 196.853 215.988 196.947 215.516 197.042C215.044 197.231 214.572 197.419 214.1 197.608L213.627 196.381C214.1 196.098 214.666 195.909 215.232 195.814C215.893 195.814 216.554 195.72 217.215 195.72ZM219.292 201.101L217.687 201.196C216.365 201.29 215.516 201.479 214.949 201.856C214.383 202.234 214.194 202.706 214.194 203.461C214.194 204.028 214.383 204.5 214.76 204.783C215.138 205.066 215.61 205.161 216.176 205.161C217.121 205.161 217.876 204.878 218.442 204.405C219.009 203.933 219.292 203.178 219.292 202.14V201.101ZM219.764 191.472V191.661C219.67 191.849 219.481 192.038 219.292 192.321C219.103 192.605 218.82 192.888 218.537 193.077C218.253 193.36 217.97 193.643 217.781 193.832C217.498 194.115 217.309 194.304 217.026 194.493H215.988V194.304C216.176 194.021 216.365 193.737 216.649 193.454C216.932 193.077 217.121 192.793 217.309 192.416C217.498 192.038 217.687 191.755 217.876 191.472H219.764Z" fill="black"/>
<path d="M228.921 195.721C230.149 195.721 231.093 196.004 231.659 196.665C232.32 197.231 232.603 198.27 232.603 199.592V206.294H231.093V199.686C231.093 198.836 230.904 198.175 230.526 197.798C230.149 197.326 229.488 197.137 228.733 197.137C227.6 197.137 226.75 197.42 226.372 198.081C225.9 198.742 225.712 199.686 225.712 200.913V206.294H224.107V196.004H225.334L225.523 197.515H225.617C225.806 197.137 226.089 196.854 226.467 196.571C226.844 196.287 227.222 196.098 227.6 196.004C227.977 195.815 228.449 195.721 228.921 195.721Z" fill="black"/>
<path d="M251.013 206.199H249.125L244.215 199.496L242.705 200.818V206.199H241.1V192.51H242.705V199.402C243.083 199.024 243.46 198.552 243.838 198.175C244.215 197.797 244.593 197.325 244.971 196.947L249.03 192.51H250.918L245.443 198.458L251.013 206.199Z" fill="black"/>
<path d="M256.488 195.721C257.716 195.721 258.66 196.004 259.226 196.571C259.793 197.137 260.076 197.987 260.076 199.214V206.2H258.943L258.66 204.69H258.565C258.282 205.067 257.999 205.35 257.621 205.634C257.338 205.917 256.96 206.106 256.488 206.2C256.111 206.294 255.544 206.389 254.978 206.389C254.317 206.389 253.751 206.294 253.279 206.106C252.807 205.917 252.429 205.539 252.146 205.067C251.863 204.595 251.768 204.029 251.768 203.368C251.768 202.329 252.146 201.574 252.995 201.008C253.845 200.441 255.072 200.158 256.677 200.064L258.471 199.969V199.308C258.471 198.459 258.282 197.798 257.905 197.42C257.527 197.043 256.96 196.854 256.3 196.854C255.733 196.854 255.261 196.948 254.789 197.043C254.317 197.231 253.845 197.42 253.373 197.609L252.901 196.382C253.373 196.098 253.939 195.91 254.506 195.815C255.167 195.815 255.828 195.721 256.488 195.721ZM258.565 201.102L256.96 201.196C255.639 201.291 254.789 201.48 254.223 201.857C253.656 202.235 253.467 202.707 253.467 203.462C253.467 204.029 253.656 204.501 254.034 204.784C254.412 205.067 254.884 205.162 255.45 205.162C256.394 205.162 257.149 204.878 257.716 204.406C258.282 203.934 258.565 203.179 258.565 202.141V201.102Z" fill="black"/>
<path d="M264.891 206.198H263.286V191.565H264.891V206.198Z" fill="black"/>
<path d="M272.16 195.721C273.01 195.721 273.765 195.91 274.426 196.287C275.086 196.665 275.558 197.231 275.842 197.892C276.219 198.553 276.314 199.403 276.314 200.347V201.291H269.233C269.233 202.518 269.516 203.462 270.177 204.029C270.744 204.69 271.593 204.973 272.632 204.973C273.293 204.973 273.859 204.878 274.331 204.784C274.803 204.69 275.37 204.501 275.936 204.217V205.634C275.37 205.822 274.898 206.011 274.426 206.106C273.954 206.2 273.293 206.294 272.632 206.294C271.688 206.294 270.744 206.106 270.083 205.728C269.328 205.35 268.761 204.69 268.384 203.934C268.006 203.179 267.817 202.235 267.817 201.102C267.817 199.969 268.006 199.025 268.384 198.175C268.761 197.326 269.328 196.759 269.988 196.287C270.461 195.91 271.216 195.721 272.16 195.721ZM272.16 197.043C271.31 197.043 270.649 197.326 270.177 197.892C269.705 198.459 269.422 199.214 269.328 200.158H274.803C274.803 199.497 274.709 199.025 274.52 198.553C274.331 198.081 274.048 197.703 273.67 197.42C273.198 197.137 272.726 197.043 272.16 197.043Z" fill="black"/>
<path d="M282.356 205.161C282.639 205.161 282.922 205.161 283.111 205.066C283.394 205.066 283.583 204.972 283.772 204.878V206.105C283.583 206.199 283.3 206.294 283.017 206.294C282.733 206.388 282.356 206.388 282.073 206.388C281.506 206.388 281.034 206.294 280.562 206.105C280.09 205.916 279.807 205.633 279.524 205.161C279.24 204.689 279.146 204.028 279.146 203.273V197.136H277.635V196.381L279.146 195.814L279.807 193.549H280.751V195.909H283.772V197.136H280.751V203.178C280.751 203.839 280.94 204.311 281.223 204.594C281.412 204.972 281.884 205.161 282.356 205.161Z" fill="black"/>
<path d="M289.719 195.721C290.947 195.721 291.891 196.004 292.457 196.571C293.024 197.137 293.307 197.987 293.307 199.214V206.2H292.268L291.985 204.69H291.891C291.608 205.067 291.324 205.35 290.947 205.634C290.663 205.917 290.286 206.106 289.814 206.2C289.436 206.294 288.87 206.389 288.303 206.389C287.642 206.389 287.076 206.294 286.604 206.106C286.132 205.917 285.754 205.539 285.471 205.067C285.188 204.595 285.093 204.029 285.093 203.368C285.093 202.329 285.471 201.574 286.321 201.008C287.17 200.441 288.398 200.158 290.003 200.064L291.796 199.969V199.308C291.796 198.459 291.608 197.798 291.23 197.42C290.852 197.043 290.286 196.854 289.625 196.854C289.059 196.854 288.586 196.948 288.114 197.043C287.642 197.231 287.17 197.42 286.698 197.609L286.226 196.382C286.698 196.098 287.265 195.91 287.831 195.815C288.398 195.815 289.059 195.721 289.719 195.721ZM291.796 201.102L290.191 201.196C288.87 201.291 288.02 201.48 287.454 201.857C286.887 202.235 286.698 202.707 286.698 203.462C286.698 204.029 286.887 204.501 287.265 204.784C287.642 205.067 288.114 205.162 288.681 205.162C289.625 205.162 290.38 204.878 290.947 204.406C291.513 203.934 291.796 203.179 291.796 202.141V201.102Z" fill="black"/>
<mask id="mask0_1_144" style="mask-type:luminance" maskUnits="userSpaceOnUse" x="128" y="183" width="26" height="29">
<path d="M153.584 183.356H128.85V211.395H153.584V183.356Z" fill="white"/>
</mask>
<g mask="url(#mask0_1_144)">
<path d="M146.126 199.217C144.521 199.217 143.766 200.066 141.217 200.066C138.574 200.066 137.818 199.217 136.308 199.217C132.248 199.217 128.85 202.521 128.85 206.58V208.846C128.85 210.262 130.077 211.49 131.493 211.49H150.941C152.451 211.49 153.584 210.357 153.584 208.846V206.58C153.584 202.521 150.28 199.217 146.126 199.217ZM151.791 208.846C151.791 209.318 151.413 209.696 150.941 209.696H131.493C131.021 209.696 130.643 209.318 130.643 208.846V206.58C130.643 203.465 133.192 201.01 136.308 201.01C137.346 201.01 138.479 201.86 141.217 201.86C144.049 201.86 145.088 201.01 146.126 201.01C149.242 201.01 151.791 203.559 151.791 206.58V208.846ZM141.217 197.423C145.088 197.423 148.298 194.308 148.298 190.437C148.298 186.566 145.088 183.451 141.217 183.451C137.346 183.451 134.136 186.566 134.136 190.437C134.136 194.308 137.252 197.423 141.217 197.423ZM141.217 185.15C144.144 185.15 146.504 187.51 146.504 190.437C146.504 193.363 144.144 195.724 141.217 195.724C138.29 195.724 135.93 193.363 135.93 190.437C135.93 187.51 138.29 185.15 141.217 185.15Z" fill="#005178"/>
</g>
<path d="M172.371 246.603H176.242V247.925H172.371V251.89H171.05V247.925H167.179V246.603H171.05V242.638H172.371V246.603Z" fill="black"/>
<path d="M187.948 250.851H185.871V254.061H184.361V250.851H177.752V249.529L184.267 240.183H185.871V249.435H187.948V250.851ZM184.361 249.435V244.903C184.361 244.525 184.361 244.242 184.361 243.959C184.361 243.676 184.361 243.393 184.361 243.204C184.361 242.921 184.361 242.732 184.361 242.543C184.361 242.354 184.361 242.071 184.361 241.882H184.267C184.172 242.165 183.983 242.354 183.889 242.637C183.7 242.921 183.606 243.204 183.417 243.393L179.169 249.435H184.361Z" fill="black"/>
<path d="M198.239 254.061H189.27V252.739L192.952 248.963C193.613 248.302 194.179 247.641 194.651 247.075C195.123 246.508 195.501 246.036 195.69 245.47C195.973 244.904 196.067 244.337 196.067 243.771C196.067 243.015 195.879 242.355 195.407 241.977C194.934 241.599 194.368 241.316 193.613 241.316C192.952 241.316 192.385 241.41 191.819 241.694C191.253 241.977 190.781 242.26 190.214 242.638L189.364 241.599C189.742 241.316 190.12 241.033 190.592 240.75C191.064 240.466 191.441 240.278 192.008 240.183C192.48 240.089 193.046 239.994 193.613 239.994C194.462 239.994 195.218 240.183 195.784 240.466C196.445 240.75 196.917 241.222 197.2 241.694C197.578 242.26 197.672 242.921 197.672 243.676C197.672 244.432 197.483 245.092 197.2 245.659C196.917 246.32 196.539 246.886 195.973 247.547C195.407 248.113 194.84 248.774 194.179 249.529L191.158 252.551V252.645H198.144L198.239 254.061Z" fill="black"/>
<path d="M206.075 254.062H204.564V244.338C204.564 243.96 204.564 243.677 204.564 243.394C204.564 243.111 204.564 242.922 204.564 242.639C204.564 242.45 204.564 242.167 204.564 241.978C204.375 242.167 204.187 242.355 203.998 242.45C203.809 242.544 203.62 242.733 203.337 243.016L201.732 244.244L200.882 243.205L204.564 240.373H205.886V254.062H206.075Z" fill="black"/>
<path d="M225.334 246.131C225.334 246.981 225.239 247.736 225.145 248.585C225.05 249.341 224.862 250.096 224.578 250.757C224.295 251.418 223.918 252.078 223.446 252.551C222.973 253.023 222.407 253.495 221.652 253.778C220.897 254.061 220.047 254.25 219.103 254.25C218.82 254.25 218.536 254.25 218.159 254.155C217.781 254.155 217.498 254.061 217.309 253.967V252.645C217.498 252.739 217.781 252.834 218.159 252.834C218.536 252.834 218.82 252.928 219.103 252.928C220.236 252.928 221.18 252.645 221.841 252.173C222.501 251.701 222.973 250.946 223.257 250.096C223.54 249.246 223.729 248.208 223.729 247.169H223.634C223.446 247.453 223.162 247.736 222.879 248.019C222.596 248.302 222.218 248.491 221.746 248.585C221.274 248.774 220.802 248.774 220.236 248.774C219.48 248.774 218.725 248.585 218.159 248.302C217.592 248.019 217.12 247.547 216.743 246.886C216.459 246.225 216.271 245.47 216.271 244.62C216.271 243.676 216.459 242.827 216.837 242.166C217.215 241.505 217.687 240.938 218.348 240.561C219.008 240.183 219.764 239.994 220.613 239.994C221.274 239.994 221.935 240.089 222.501 240.372C223.068 240.655 223.54 241.033 224.012 241.505C224.484 241.977 224.767 242.638 224.956 243.393C225.145 244.243 225.334 245.187 225.334 246.131ZM220.613 241.41C219.764 241.41 219.103 241.694 218.631 242.26C218.159 242.827 217.875 243.582 217.875 244.715C217.875 245.659 218.064 246.32 218.536 246.886C219.008 247.453 219.669 247.641 220.613 247.641C221.274 247.641 221.841 247.547 222.313 247.264C222.785 246.98 223.162 246.697 223.351 246.32C223.634 245.942 223.729 245.564 223.729 245.092C223.729 244.62 223.634 244.243 223.54 243.865C223.446 243.487 223.257 243.015 222.973 242.732C222.69 242.449 222.407 242.071 222.029 241.883C221.652 241.505 221.18 241.41 220.613 241.41Z" fill="black"/>
<path d="M236.379 247.169C236.379 248.302 236.285 249.246 236.096 250.19C235.907 251.04 235.624 251.795 235.341 252.456C234.963 253.022 234.491 253.494 233.925 253.872C233.358 254.249 232.697 254.344 231.848 254.344C230.809 254.344 229.96 254.061 229.299 253.494C228.638 252.928 228.166 252.172 227.788 251.04C227.505 250.001 227.316 248.679 227.316 247.263C227.316 245.753 227.505 244.525 227.788 243.487C228.072 242.449 228.544 241.599 229.204 241.032C229.865 240.466 230.715 240.183 231.848 240.183C232.886 240.183 233.736 240.466 234.397 241.032C235.058 241.599 235.53 242.449 235.907 243.487C236.191 244.431 236.379 245.658 236.379 247.169ZM228.827 247.169C228.827 248.491 228.921 249.529 229.11 250.379C229.299 251.228 229.582 251.889 230.054 252.267C230.526 252.645 231.093 252.928 231.753 252.928C232.509 252.928 233.075 252.739 233.453 252.267C233.925 251.889 234.208 251.228 234.397 250.379C234.586 249.529 234.68 248.491 234.68 247.169C234.68 245.942 234.586 244.809 234.397 243.959C234.208 243.109 233.925 242.449 233.453 242.071C232.981 241.599 232.414 241.41 231.753 241.41C230.998 241.41 230.432 241.599 230.054 242.071C229.582 242.543 229.299 243.109 229.11 243.959C228.921 244.809 228.827 245.942 228.827 247.169Z" fill="black"/>
<path d="M242.61 245.66C243.554 245.66 244.31 245.849 245.065 246.132C245.82 246.415 246.292 246.887 246.67 247.548C247.047 248.114 247.236 248.87 247.236 249.719C247.236 250.663 247.047 251.513 246.67 252.174C246.292 252.835 245.631 253.401 244.876 253.779C244.121 254.156 243.177 254.345 242.138 254.345C241.383 254.345 240.722 254.251 240.156 254.156C239.495 254.062 239.023 253.873 238.645 253.59V251.985C239.117 252.268 239.684 252.457 240.344 252.646C241.005 252.835 241.666 252.929 242.233 252.929C242.893 252.929 243.554 252.835 244.026 252.551C244.593 252.363 244.97 251.985 245.254 251.513C245.537 251.041 245.726 250.474 245.726 249.814C245.726 248.87 245.442 248.209 244.876 247.737C244.31 247.265 243.46 246.981 242.233 246.981C241.855 246.981 241.383 246.981 240.911 247.076C240.439 247.17 240.061 247.17 239.778 247.265L239.023 246.793L239.589 240.373H246.386V241.789H240.911L240.533 245.943C240.816 245.849 241.1 245.849 241.477 245.754C241.761 245.66 242.138 245.66 242.61 245.66Z" fill="black"/>
<path d="M263.946 250.851H261.869V254.061H260.359V250.851H253.75V249.529L260.264 240.183H261.869V249.435H263.946V250.851ZM260.453 249.435V244.903C260.453 244.525 260.453 244.242 260.453 243.959C260.453 243.676 260.453 243.393 260.453 243.204C260.453 242.921 260.453 242.732 260.453 242.543C260.453 242.354 260.453 242.071 260.453 241.882H260.359C260.264 242.165 260.075 242.354 259.981 242.637C259.792 242.921 259.698 243.204 259.509 243.393L255.261 249.435H260.453Z" fill="black"/>
<path d="M265.457 248.207C265.457 247.357 265.551 246.602 265.646 245.752C265.74 244.997 265.929 244.241 266.212 243.581C266.495 242.92 266.873 242.259 267.345 241.787C267.817 241.315 268.383 240.843 269.139 240.56C269.894 240.276 270.744 240.088 271.688 240.088C271.971 240.088 272.254 240.088 272.632 240.088C272.915 240.088 273.198 240.182 273.481 240.182V241.504C273.293 241.409 273.009 241.409 272.726 241.315C272.443 241.22 272.16 241.22 271.782 241.22C270.649 241.22 269.705 241.504 269.044 241.976C268.383 242.448 267.911 243.203 267.628 244.053C267.345 244.902 267.156 245.941 267.156 246.979H267.251C267.439 246.696 267.723 246.413 268.006 246.13C268.289 245.846 268.667 245.658 269.139 245.563C269.611 245.374 270.083 245.374 270.649 245.374C271.405 245.374 272.16 245.563 272.726 245.846C273.293 246.13 273.765 246.602 274.142 247.262C274.52 247.923 274.614 248.679 274.614 249.528C274.614 250.472 274.426 251.322 274.048 251.983C273.67 252.644 273.198 253.21 272.537 253.588C271.877 253.965 271.121 254.154 270.177 254.154C269.516 254.154 268.856 254.06 268.289 253.777C267.723 253.493 267.251 253.116 266.779 252.644C266.307 252.172 266.023 251.511 265.834 250.756C265.551 250.095 265.457 249.151 265.457 248.207ZM270.083 252.927C270.932 252.927 271.593 252.644 272.16 252.077C272.632 251.511 272.915 250.661 272.915 249.623C272.915 248.679 272.726 248.018 272.254 247.451C271.782 246.885 271.121 246.696 270.177 246.696C269.516 246.696 269.044 246.79 268.572 247.074C268.1 247.357 267.723 247.64 267.534 248.018C267.251 248.395 267.156 248.773 267.156 249.245C267.156 249.623 267.251 250.095 267.345 250.472C267.439 250.944 267.628 251.322 267.911 251.7C268.195 252.077 268.478 252.36 268.856 252.549C269.139 252.833 269.516 252.927 270.083 252.927Z" fill="black"/>
<path d="M286.038 250.851H283.961V254.061H282.45V250.851H275.842V249.529L282.356 240.183H283.961V249.435H286.038V250.851ZM282.45 249.435V244.903C282.45 244.525 282.45 244.242 282.45 243.959C282.45 243.676 282.45 243.393 282.45 243.204C282.45 242.921 282.45 242.732 282.45 242.543C282.45 242.354 282.45 242.071 282.45 241.882H282.356C282.261 242.165 282.073 242.354 281.978 242.637C281.789 242.921 281.695 243.204 281.506 243.393L277.258 249.435H282.45Z" fill="black"/>
<path d="M292.457 248.207C292.457 247.357 292.552 246.602 292.646 245.752C292.74 244.997 292.929 244.241 293.212 243.581C293.496 242.92 293.873 242.259 294.345 241.787C294.817 241.315 295.384 240.843 296.139 240.56C296.894 240.276 297.744 240.088 298.688 240.088C298.971 240.088 299.254 240.088 299.632 240.088C299.915 240.088 300.199 240.182 300.482 240.182V241.504C300.293 241.409 300.01 241.409 299.727 241.315C299.443 241.22 299.16 241.22 298.782 241.22C297.65 241.22 296.705 241.504 296.045 241.976C295.384 242.448 294.912 243.203 294.629 244.053C294.345 244.902 294.156 245.941 294.156 246.979H294.251C294.44 246.696 294.723 246.413 295.006 246.13C295.289 245.846 295.667 245.658 296.139 245.563C296.611 245.374 297.083 245.374 297.65 245.374C298.405 245.374 299.16 245.563 299.727 245.846C300.293 246.13 300.765 246.602 301.143 247.262C301.52 247.923 301.615 248.679 301.615 249.528C301.615 250.472 301.426 251.322 301.048 251.983C300.671 252.644 300.199 253.21 299.538 253.588C298.877 253.965 298.122 254.154 297.178 254.154C296.517 254.154 295.856 254.06 295.289 253.777C294.723 253.493 294.251 253.116 293.779 252.644C293.307 252.172 293.024 251.511 292.835 250.756C292.552 250.095 292.457 249.151 292.457 248.207ZM297.083 252.927C297.933 252.927 298.594 252.644 299.16 252.077C299.632 251.511 299.915 250.661 299.915 249.623C299.915 248.679 299.727 248.018 299.254 247.451C298.782 246.885 298.122 246.696 297.178 246.696C296.517 246.696 296.045 246.79 295.573 247.074C295.101 247.357 294.723 247.64 294.534 248.018C294.251 248.395 294.156 248.773 294.156 249.245C294.156 249.623 294.251 250.095 294.345 250.472C294.44 250.944 294.629 251.322 294.912 251.7C295.195 252.077 295.478 252.36 295.856 252.549C296.139 252.833 296.611 252.927 297.083 252.927Z" fill="black"/>
<path d="M311.811 243.487C311.811 244.148 311.717 244.62 311.433 245.092C311.15 245.564 310.867 245.942 310.395 246.225C309.923 246.508 309.451 246.697 308.884 246.791V246.886C310.017 246.98 310.772 247.358 311.339 247.924C311.905 248.491 312.189 249.246 312.189 250.19C312.189 250.945 312 251.7 311.622 252.267C311.244 252.928 310.678 253.4 309.923 253.683C309.168 254.061 308.129 254.249 306.996 254.249C306.241 254.249 305.58 254.155 305.014 254.061C304.353 253.966 303.786 253.777 303.22 253.494V251.984C303.786 252.267 304.447 252.456 305.108 252.644C305.769 252.833 306.43 252.928 307.091 252.928C308.318 252.928 309.262 252.644 309.828 252.172C310.395 251.7 310.678 251.04 310.678 250.095C310.678 249.529 310.489 249.057 310.206 248.679C309.923 248.302 309.451 248.019 308.884 247.83C308.318 247.641 307.563 247.547 306.807 247.547H305.391V246.319H306.807C307.563 246.319 308.223 246.225 308.695 246.036C309.262 245.847 309.64 245.47 309.923 245.092C310.206 244.714 310.3 244.242 310.3 243.676C310.3 243.015 310.112 242.449 309.64 242.071C309.168 241.693 308.507 241.504 307.751 241.504C307.279 241.504 306.807 241.599 306.43 241.693C306.052 241.788 305.674 241.976 305.297 242.071C304.919 242.26 304.636 242.449 304.258 242.637L303.503 241.599C303.975 241.221 304.636 240.844 305.297 240.56C306.052 240.277 306.807 240.183 307.751 240.183C309.168 240.183 310.206 240.466 310.867 241.127C311.528 241.788 311.811 242.543 311.811 243.487Z" fill="black"/>
<path d="M323.328 254.061H314.36V252.739L318.042 248.963C318.702 248.302 319.269 247.641 319.741 247.075C320.213 246.508 320.591 246.036 320.779 245.47C321.063 244.904 321.157 244.337 321.157 243.771C321.157 243.015 320.968 242.355 320.496 241.977C320.024 241.599 319.458 241.316 318.702 241.316C318.042 241.316 317.475 241.41 316.909 241.694C316.342 241.977 315.87 242.26 315.304 242.638L314.454 241.599C314.832 241.316 315.209 241.033 315.681 240.75C316.153 240.466 316.531 240.278 317.097 240.183C317.57 240.089 318.136 239.994 318.702 239.994C319.552 239.994 320.307 240.183 320.874 240.466C321.535 240.75 322.007 241.222 322.29 241.694C322.668 242.26 322.762 242.921 322.762 243.676C322.762 244.432 322.573 245.092 322.29 245.659C322.007 246.32 321.629 246.886 321.063 247.547C320.496 248.113 319.93 248.774 319.269 249.529L316.248 252.551V252.645H323.234L323.328 254.061Z" fill="black"/>
<path d="M139.046 230.841H135.741C134.892 230.841 134.042 231.219 133.476 231.785C132.909 232.351 132.532 233.201 132.532 234.051V257.936C132.532 258.785 132.909 259.635 133.476 260.202C134.042 260.768 134.892 261.146 135.741 261.146H146.598C147.448 261.146 148.298 260.768 148.864 260.202C149.431 259.635 149.808 258.785 149.808 257.936V234.051C149.808 233.201 149.431 232.351 148.864 231.785C148.298 231.219 147.448 230.841 146.598 230.841H143.294M139.046 230.841V233.012H143.388V230.841H139.046ZM139.046 258.03H143.388" stroke="#005178" stroke-width="2" stroke-linecap="round" stroke-linejoin="round"/>
<path d="M169.445 283.236V290.788C169.445 291.071 169.445 291.355 169.445 291.732C169.445 292.11 169.445 292.393 169.445 292.676H169.539C169.634 292.487 169.822 292.299 170.106 291.921C170.389 291.638 170.578 291.355 170.766 291.166L174.165 287.484H175.959L171.805 291.921L176.242 297.869H174.354L170.672 292.96L169.445 294.092V297.869H167.934V283.236H169.445Z" fill="black"/>
<path d="M182.756 287.39C182.945 287.39 183.134 287.39 183.417 287.39C183.606 287.39 183.889 287.484 183.983 287.484L183.795 288.9C183.606 288.9 183.417 288.806 183.228 288.806C183.039 288.806 182.851 288.806 182.662 288.806C182.284 288.806 181.812 288.9 181.529 289.089C181.151 289.278 180.868 289.467 180.585 289.844C180.302 290.127 180.113 290.505 179.924 290.977C179.735 291.449 179.735 291.921 179.735 292.393V297.963H178.036V287.673H179.357L179.546 289.561H179.641C179.83 289.183 180.113 288.806 180.396 288.523C180.679 288.239 181.057 287.956 181.434 287.767C181.812 287.484 182.284 287.39 182.756 287.39Z" fill="black"/>
<path d="M186.721 283.707C187.004 283.707 187.193 283.802 187.382 283.99C187.571 284.179 187.665 284.463 187.665 284.746C187.665 285.123 187.571 285.312 187.382 285.501C187.193 285.69 187.004 285.784 186.721 285.784C186.438 285.784 186.249 285.69 186.06 285.501C185.872 285.312 185.777 285.029 185.777 284.746C185.777 284.368 185.872 284.179 186.06 283.99C186.249 283.802 186.438 283.707 186.721 283.707ZM187.476 287.578V297.868H185.872V287.578H187.476Z" fill="black"/>
<path d="M197.484 295.037C197.484 295.698 197.295 296.265 197.011 296.737C196.728 297.209 196.256 297.492 195.595 297.775C195.029 297.964 194.274 298.153 193.424 298.153C192.669 298.153 192.102 298.058 191.536 297.964C190.969 297.87 190.592 297.681 190.12 297.492V296.076C190.497 296.265 191.064 296.453 191.63 296.642C192.197 296.831 192.763 296.925 193.424 296.925C194.274 296.925 194.935 296.737 195.407 296.453C195.879 296.17 195.973 295.793 195.973 295.321C195.973 295.037 195.879 294.754 195.69 294.565C195.501 294.376 195.218 294.093 194.84 293.904C194.462 293.716 193.99 293.432 193.235 293.244C192.574 292.96 192.008 292.772 191.536 292.488C191.064 292.205 190.686 291.922 190.403 291.544C190.12 291.167 190.025 290.695 190.025 290.128C190.025 289.278 190.403 288.618 191.064 288.146C191.725 287.674 192.669 287.485 193.802 287.485C194.462 287.485 195.029 287.579 195.501 287.674C196.067 287.768 196.539 287.957 197.011 288.146L196.445 289.373C195.973 289.184 195.595 288.995 195.123 288.901C194.651 288.806 194.179 288.712 193.613 288.712C192.858 288.712 192.386 288.806 191.914 289.09C191.536 289.373 191.347 289.656 191.347 290.034C191.347 290.317 191.441 290.6 191.63 290.789C191.819 290.978 192.102 291.167 192.48 291.355C192.858 291.544 193.424 291.733 194.085 292.016C194.746 292.299 195.312 292.488 195.784 292.772C196.256 293.055 196.634 293.338 196.917 293.716C197.295 293.999 197.484 294.471 197.484 295.037Z" fill="black"/>
<path d="M203.242 296.735C203.526 296.735 203.809 296.735 203.998 296.641C204.281 296.641 204.47 296.546 204.658 296.452V297.679C204.47 297.774 204.186 297.868 203.903 297.868C203.62 297.962 203.242 297.962 202.959 297.962C202.393 297.962 201.921 297.868 201.449 297.679C200.977 297.49 200.693 297.207 200.41 296.735C200.127 296.263 200.033 295.602 200.033 294.847V288.805H198.522V288.05L200.033 287.483L200.693 285.218H201.637V287.578H204.658V288.805H201.637V294.847C201.637 295.508 201.826 295.98 202.11 296.263C202.393 296.641 202.77 296.735 203.242 296.735Z" fill="black"/>
<path d="M207.585 283.707C207.868 283.707 208.057 283.802 208.246 283.99C208.435 284.179 208.529 284.463 208.529 284.746C208.529 285.123 208.435 285.312 208.246 285.501C208.057 285.69 207.868 285.784 207.585 285.784C207.302 285.784 207.113 285.69 206.924 285.501C206.736 285.312 206.641 285.029 206.641 284.746C206.641 284.368 206.736 284.179 206.924 283.99C207.113 283.802 207.302 283.707 207.585 283.707ZM208.34 287.578V297.868H206.736V287.578H208.34Z" fill="black"/>
<path d="M215.515 287.39C216.743 287.39 217.687 287.673 218.253 288.239C218.82 288.806 219.103 289.655 219.103 290.883V297.869H217.97L217.687 296.358C217.404 296.736 217.12 297.019 216.743 297.302C216.459 297.586 216.082 297.774 215.61 297.869C215.232 297.963 214.666 298.058 214.099 298.058C213.438 298.058 212.872 297.963 212.4 297.774C211.928 297.586 211.55 297.208 211.267 296.736C210.984 296.264 210.889 295.697 210.889 295.037C210.889 293.998 211.267 293.243 212.117 292.676C212.966 292.11 214.194 291.827 215.799 291.732L217.592 291.638V290.977C217.592 290.127 217.403 289.467 217.026 289.089C216.648 288.711 216.082 288.523 215.421 288.523C214.855 288.523 214.382 288.617 213.91 288.711C213.438 288.9 212.966 289.089 212.494 289.278L212.022 288.051C212.494 287.767 213.061 287.578 213.627 287.484C214.194 287.484 214.855 287.39 215.515 287.39ZM217.592 292.771L215.987 292.865C214.666 292.96 213.816 293.148 213.25 293.526C212.683 293.904 212.494 294.376 212.494 295.131C212.494 295.697 212.683 296.17 213.061 296.453C213.438 296.736 213.91 296.83 214.477 296.83C215.421 296.83 216.176 296.547 216.743 296.075C217.309 295.603 217.592 294.848 217.592 293.809V292.771Z" fill="black"/>
<path d="M227.222 287.39C228.449 287.39 229.393 287.673 229.96 288.334C230.621 288.9 230.904 289.939 230.904 291.26V297.963H229.393V291.355C229.393 290.505 229.205 289.844 228.827 289.467C228.449 289.089 227.788 288.806 227.033 288.806C225.9 288.806 225.051 289.089 224.673 289.75C224.201 290.411 224.012 291.355 224.012 292.582V297.963H222.407V287.673H223.635L223.823 289.183H223.918C224.107 288.806 224.39 288.523 224.767 288.239C225.145 287.956 225.523 287.767 225.9 287.673C226.278 287.578 226.75 287.39 227.222 287.39Z" fill="black"/>
<path d="M233.925 296.923C233.925 296.451 234.019 296.168 234.208 295.979C234.397 295.79 234.68 295.696 234.963 295.696C235.247 295.696 235.53 295.79 235.813 295.979C236.002 296.168 236.096 296.451 236.096 296.923C236.096 297.395 236.002 297.678 235.813 297.867C235.624 298.056 235.341 298.15 234.963 298.15C234.68 298.15 234.397 298.056 234.208 297.867C234.019 297.584 233.925 297.301 233.925 296.923Z" fill="black"/>
<path d="M240.817 283.236V290.788C240.817 291.071 240.817 291.355 240.817 291.732C240.817 292.11 240.817 292.393 240.817 292.676H240.911C241.006 292.487 241.194 292.299 241.478 291.921C241.761 291.638 241.95 291.355 242.138 291.166L245.537 287.484H247.331L243.177 291.921L247.614 297.869H245.726L242.044 292.96L240.817 294.092V297.869H239.306V283.236H240.817Z" fill="black"/>
<path d="M253.184 287.39C254.411 287.39 255.355 287.673 255.922 288.239C256.488 288.806 256.771 289.655 256.771 290.883V297.869H255.639L255.355 296.358H255.261C254.978 296.736 254.695 297.019 254.317 297.302C254.034 297.586 253.656 297.774 253.184 297.869C252.806 297.963 252.24 298.058 251.674 298.058C251.013 298.058 250.446 297.963 249.974 297.774C249.502 297.586 249.125 297.208 248.841 296.736C248.558 296.264 248.464 295.697 248.464 295.037C248.464 293.998 248.841 293.243 249.691 292.676C250.541 292.11 251.768 291.827 253.373 291.732L255.167 291.638V290.977C255.167 290.127 254.978 289.467 254.6 289.089C254.222 288.711 253.656 288.523 252.995 288.523C252.429 288.523 251.957 288.617 251.485 288.711C251.013 288.9 250.541 289.089 250.069 289.278L249.597 288.051C250.069 287.767 250.635 287.578 251.201 287.484C251.957 287.484 252.523 287.39 253.184 287.39ZM255.261 292.771L253.656 292.865C252.334 292.96 251.485 293.148 250.918 293.526C250.352 293.904 250.163 294.376 250.163 295.131C250.163 295.697 250.352 296.17 250.729 296.453C251.107 296.736 251.579 296.83 252.146 296.83C253.09 296.83 253.845 296.547 254.411 296.075C254.978 295.603 255.261 294.848 255.261 293.809V292.771Z" fill="black"/>
<path d="M261.586 297.869H259.981V283.236H261.586V297.869Z" fill="black"/>
<path d="M268.856 287.39C269.705 287.39 270.461 287.578 271.121 287.956C271.782 288.334 272.254 288.9 272.538 289.561C272.915 290.222 273.01 291.072 273.01 292.016V292.96H265.929C265.929 294.187 266.212 295.131 266.873 295.697C267.44 296.358 268.289 296.642 269.328 296.642C269.989 296.642 270.555 296.547 271.027 296.453C271.499 296.358 272.065 296.17 272.632 295.886V297.302C272.065 297.491 271.593 297.68 271.121 297.774C270.649 297.869 269.989 297.963 269.328 297.963C268.384 297.963 267.44 297.774 266.779 297.397C266.023 297.019 265.457 296.358 265.079 295.603C264.702 294.848 264.513 293.904 264.513 292.771C264.513 291.638 264.702 290.694 265.079 289.844C265.457 288.995 266.023 288.428 266.684 287.956C267.156 287.578 267.912 287.39 268.856 287.39ZM268.856 288.617C268.006 288.617 267.345 288.9 266.873 289.467C266.401 290.033 266.118 290.788 266.023 291.732H271.499C271.499 291.072 271.405 290.599 271.216 290.127C271.027 289.655 270.744 289.278 270.366 288.995C269.894 288.806 269.422 288.617 268.856 288.617Z" fill="black"/>
<path d="M279.051 296.735C279.335 296.735 279.618 296.735 279.807 296.641C280.09 296.641 280.279 296.546 280.468 296.452V297.679C280.279 297.774 279.995 297.868 279.712 297.868C279.429 297.962 279.051 297.962 278.768 297.962C278.202 297.962 277.73 297.868 277.258 297.679C276.786 297.49 276.502 297.207 276.219 296.735C275.936 296.263 275.842 295.602 275.842 294.847V288.805H274.331V288.05L275.842 287.483L276.502 285.218H277.446V287.578H280.468V288.805H277.446V294.847C277.446 295.508 277.635 295.98 277.919 296.263C278.202 296.641 278.579 296.735 279.051 296.735Z" fill="black"/>
<path d="M286.415 287.39C287.642 287.39 288.587 287.673 289.153 288.239C289.719 288.806 290.003 289.655 290.003 290.883V297.869H288.87L288.587 296.358H288.492C288.209 296.736 287.926 297.019 287.548 297.302C287.265 297.586 286.887 297.774 286.415 297.869C286.038 297.963 285.471 298.058 284.905 298.058C284.244 298.058 283.677 297.963 283.205 297.774C282.733 297.586 282.356 297.208 282.072 296.736C281.789 296.264 281.695 295.697 281.695 295.037C281.695 293.998 282.072 293.243 282.922 292.676C283.772 292.11 284.999 291.827 286.604 291.732L288.398 291.638V290.977C288.398 290.127 288.209 289.467 287.831 289.089C287.454 288.711 286.887 288.523 286.226 288.523C285.66 288.523 285.188 288.617 284.716 288.711C284.244 288.9 283.772 289.089 283.3 289.278L282.828 288.051C283.3 287.767 283.866 287.578 284.433 287.484C285.188 287.484 285.754 287.39 286.415 287.39ZM288.492 292.771L286.887 292.865C285.566 292.96 284.716 293.148 284.149 293.526C283.583 293.904 283.394 294.376 283.394 295.131C283.394 295.697 283.583 296.17 283.961 296.453C284.338 296.736 284.81 296.83 285.377 296.83C286.321 296.83 287.076 296.547 287.642 296.075C288.209 295.603 288.492 294.848 288.492 293.809V292.771Z" fill="black"/>
<path d="M307.846 290.977C307.846 291.544 307.751 292.11 307.657 292.677C307.562 293.243 307.279 293.715 306.996 294.187C306.713 294.659 306.335 295.037 305.958 295.226C305.58 295.509 305.108 295.603 304.541 295.603C303.975 295.603 303.503 295.414 303.125 295.131C302.748 294.848 302.559 294.376 302.464 293.904H302.37C302.087 294.376 301.804 294.848 301.332 295.131C300.86 295.414 300.293 295.603 299.632 295.603C298.688 295.603 297.933 295.32 297.367 294.659C296.8 293.998 296.611 293.149 296.611 292.11C296.611 291.261 296.8 290.505 297.083 289.844C297.461 289.184 297.933 288.712 298.499 288.334C299.066 287.956 299.821 287.767 300.671 287.767C301.237 287.767 301.804 287.767 302.276 287.862C302.748 287.956 303.22 288.051 303.503 288.145L303.314 291.921C303.314 292.11 303.314 292.299 303.314 292.488C303.314 292.582 303.314 292.677 303.314 292.771C303.314 293.432 303.409 293.904 303.692 294.093C303.975 294.282 304.258 294.47 304.541 294.47C304.919 294.47 305.297 294.282 305.58 293.998C305.863 293.715 306.052 293.243 306.241 292.677C306.43 292.11 306.43 291.544 306.43 290.788C306.43 289.561 306.146 288.523 305.674 287.767C305.202 286.918 304.541 286.257 303.692 285.785C302.842 285.313 301.898 285.124 300.765 285.124C299.632 285.124 298.688 285.313 297.839 285.596C296.989 285.974 296.234 286.446 295.667 287.012C295.101 287.579 294.629 288.428 294.345 289.278C294.062 290.128 293.873 291.072 293.873 292.11C293.873 293.432 294.062 294.47 294.534 295.414C295.006 296.359 295.667 297.019 296.517 297.491C297.367 297.963 298.499 298.152 299.727 298.152C300.482 298.152 301.237 298.058 301.898 297.869C302.653 297.68 303.22 297.491 303.786 297.303V298.53C303.22 298.719 302.653 298.907 301.898 299.096C301.237 299.285 300.482 299.285 299.632 299.285C298.122 299.285 296.8 299.002 295.762 298.435C294.723 297.869 293.873 297.019 293.307 295.981C292.741 294.942 292.457 293.621 292.457 292.11C292.457 290.883 292.646 289.75 293.024 288.806C293.401 287.767 293.968 286.918 294.629 286.163C295.29 285.407 296.234 284.841 297.178 284.463C298.216 284.086 299.349 283.802 300.576 283.802C301.898 283.802 303.125 284.086 304.164 284.652C305.202 285.218 306.052 285.974 306.618 287.012C307.468 288.334 307.846 289.561 307.846 290.977ZM298.027 292.205C298.027 293.054 298.216 293.621 298.499 293.998C298.877 294.376 299.255 294.565 299.915 294.565C300.671 294.565 301.143 294.282 301.52 293.715C301.898 293.149 302.087 292.488 302.087 291.544L302.181 289.089C301.992 288.995 301.804 288.995 301.52 288.9C301.237 288.9 300.954 288.806 300.671 288.806C300.01 288.806 299.538 288.995 299.066 289.278C298.688 289.561 298.405 289.939 298.216 290.505C298.122 291.166 298.027 291.638 298.027 292.205Z" fill="black"/>
<path d="M313.416 302.496C312.094 302.496 311.056 302.213 310.3 301.741C309.545 301.269 309.168 300.514 309.168 299.664C309.168 299.003 309.356 298.437 309.828 297.965C310.206 297.493 310.772 297.209 311.528 297.02C311.244 296.926 311.056 296.737 310.867 296.454C310.678 296.171 310.584 295.888 310.584 295.604C310.584 295.227 310.678 294.944 310.867 294.566C311.056 294.283 311.433 293.999 311.811 293.716C311.245 293.527 310.867 293.15 310.489 292.583C310.112 292.017 310.017 291.45 310.017 290.79C310.017 290.034 310.206 289.373 310.489 288.901C310.772 288.335 311.245 287.957 311.811 287.674C312.377 287.391 313.133 287.297 313.888 287.297C314.077 287.297 314.266 287.297 314.454 287.297C314.643 287.297 314.832 287.297 315.021 287.391C315.21 287.391 315.304 287.485 315.493 287.485H318.986V288.524L317.098 288.713C317.287 288.996 317.475 289.279 317.57 289.562C317.664 289.846 317.759 290.318 317.759 290.695C317.759 291.734 317.381 292.583 316.72 293.15C316.059 293.716 315.115 294.094 313.888 294.094C313.605 294.094 313.321 294.094 313.038 293.999C312.755 294.188 312.472 294.377 312.377 294.566C312.189 294.755 312.094 295.038 312.094 295.321C312.094 295.51 312.189 295.699 312.283 295.793C312.377 295.888 312.566 295.982 312.849 296.076C313.133 296.171 313.321 296.171 313.699 296.171H315.493C316.626 296.171 317.475 296.36 318.042 296.832C318.608 297.304 318.986 297.965 318.986 298.909C318.986 300.041 318.514 300.891 317.57 301.552C316.531 302.213 315.21 302.496 313.416 302.496ZM313.51 301.269C314.36 301.269 315.115 301.174 315.587 300.986C316.154 300.797 316.531 300.608 316.815 300.23C317.098 299.853 317.192 299.569 317.192 299.097C317.192 298.72 317.098 298.342 316.909 298.153C316.72 297.965 316.437 297.776 316.059 297.776C315.682 297.681 315.21 297.681 314.738 297.681H313.038C312.566 297.681 312.189 297.776 311.811 297.87C311.433 298.059 311.244 298.248 311.056 298.531C310.867 298.814 310.772 299.192 310.772 299.569C310.772 300.136 310.961 300.514 311.433 300.797C311.905 301.08 312.566 301.269 313.51 301.269ZM313.888 293.055C314.643 293.055 315.21 292.867 315.587 292.489C315.965 292.111 316.154 291.545 316.154 290.884C316.154 290.129 315.965 289.562 315.587 289.185C315.21 288.807 314.643 288.618 313.888 288.618C313.133 288.618 312.661 288.807 312.283 289.185C311.905 289.562 311.717 290.129 311.717 290.884C311.717 291.545 311.905 292.111 312.283 292.489C312.566 292.867 313.133 293.055 313.888 293.055Z" fill="black"/>
<path d="M332.203 287.39C333.336 287.39 334.185 287.673 334.752 288.239C335.318 288.806 335.601 289.75 335.601 291.071V297.869H334.091V291.166C334.091 290.316 333.902 289.75 333.525 289.278C333.147 288.9 332.675 288.617 331.92 288.617C330.881 288.617 330.22 288.9 329.748 289.467C329.276 290.033 329.087 290.883 329.087 292.015V297.774H327.577V291.071C327.577 290.505 327.482 290.033 327.294 289.655C327.105 289.278 326.916 288.994 326.538 288.806C326.255 288.617 325.783 288.522 325.311 288.522C324.65 288.522 324.084 288.617 323.706 288.9C323.329 289.183 322.951 289.561 322.762 290.127C322.573 290.694 322.479 291.355 322.479 292.204V297.68H320.874V287.39H322.101L322.29 288.806H322.384C322.573 288.428 322.856 288.145 323.14 287.862C323.423 287.578 323.801 287.39 324.178 287.295C324.556 287.201 324.933 287.106 325.405 287.106C326.161 287.106 326.822 287.295 327.388 287.578C327.954 287.862 328.332 288.334 328.521 288.9H328.615C328.993 288.334 329.371 287.862 330.031 287.578C330.692 287.295 331.448 287.39 332.203 287.39Z" fill="black"/>
<path d="M342.682 287.39C343.909 287.39 344.853 287.673 345.42 288.239C345.986 288.806 346.27 289.655 346.27 290.883V297.869H345.137L344.853 296.358H344.759C344.476 296.736 344.193 297.019 343.815 297.302C343.532 297.586 343.154 297.774 342.682 297.869C342.304 297.963 341.738 298.058 341.172 298.058C340.511 298.058 339.944 297.963 339.472 297.774C339 297.586 338.623 297.208 338.339 296.736C338.056 296.264 337.962 295.697 337.962 295.037C337.962 293.998 338.339 293.243 339.189 292.676C340.039 292.11 341.266 291.827 342.871 291.732L344.665 291.638V290.977C344.665 290.127 344.476 289.467 344.098 289.089C343.721 288.711 343.154 288.523 342.493 288.523C341.927 288.523 341.455 288.617 340.983 288.711C340.511 288.9 340.039 289.089 339.567 289.278L339.095 288.051C339.567 287.767 340.133 287.578 340.7 287.484C341.36 287.484 342.021 287.39 342.682 287.39ZM344.759 292.771L343.154 292.865C341.832 292.96 340.983 293.148 340.416 293.526C339.85 293.904 339.661 294.376 339.661 295.131C339.661 295.697 339.85 296.17 340.227 296.453C340.605 296.736 341.077 296.83 341.644 296.83C342.588 296.83 343.343 296.547 343.909 296.075C344.476 295.603 344.759 294.848 344.759 293.809V292.771Z" fill="black"/>
<path d="M350.329 283.707C350.612 283.707 350.801 283.802 350.99 283.99C351.178 284.179 351.273 284.463 351.273 284.746C351.273 285.123 351.178 285.312 350.99 285.501C350.801 285.69 350.612 285.784 350.329 285.784C350.046 285.784 349.857 285.69 349.668 285.501C349.479 285.312 349.385 285.029 349.385 284.746C349.385 284.368 349.479 284.179 349.668 283.99C349.857 283.802 350.046 283.707 350.329 283.707ZM351.084 287.578V297.868H349.479V287.578H351.084Z" fill="black"/>
<path d="M355.993 297.869H354.388V283.236H355.993V297.869Z" fill="black"/>
<path d="M359.014 296.923C359.014 296.451 359.109 296.168 359.298 295.979C359.486 295.79 359.77 295.696 360.053 295.696C360.336 295.696 360.619 295.79 360.902 295.979C361.091 296.168 361.186 296.451 361.186 296.923C361.186 297.395 361.091 297.678 360.902 297.867C360.714 298.056 360.43 298.15 360.053 298.15C359.77 298.15 359.486 298.056 359.298 297.867C359.109 297.584 359.014 297.301 359.014 296.923Z" fill="black"/>
<path d="M368.455 298.058C367.511 298.058 366.756 297.869 366 297.491C365.245 297.114 364.773 296.547 364.301 295.697C363.924 294.942 363.735 293.904 363.735 292.771C363.735 291.544 363.924 290.505 364.396 289.75C364.868 288.995 365.434 288.334 366.095 287.956C366.85 287.578 367.7 287.39 368.549 287.39C369.021 287.39 369.588 287.484 370.06 287.578C370.532 287.673 370.91 287.767 371.193 287.956L370.721 289.278C370.438 289.183 370.06 288.995 369.588 288.9C369.21 288.806 368.833 288.711 368.455 288.711C367.7 288.711 367.133 288.9 366.661 289.183C366.189 289.467 365.812 289.939 365.623 290.505C365.434 291.072 365.245 291.827 365.245 292.676C365.245 293.526 365.34 294.187 365.623 294.848C365.906 295.509 366.189 295.886 366.661 296.17C367.133 296.453 367.7 296.642 368.361 296.642C368.927 296.642 369.399 296.547 369.871 296.453C370.343 296.358 370.721 296.17 371.098 296.075V297.491C370.721 297.68 370.343 297.774 369.966 297.869C369.494 297.963 369.021 298.058 368.455 298.058Z" fill="black"/>
<path d="M382.427 292.678C382.427 293.527 382.333 294.283 382.144 294.943C381.955 295.604 381.578 296.171 381.2 296.643C380.822 297.115 380.256 297.492 379.689 297.681C379.123 297.87 378.462 298.059 377.707 298.059C377.046 298.059 376.385 297.965 375.819 297.681C375.252 297.398 374.78 297.115 374.308 296.643C373.836 296.171 373.553 295.604 373.364 294.943C373.175 294.283 372.987 293.527 372.987 292.678C372.987 291.545 373.175 290.601 373.553 289.751C373.931 288.901 374.497 288.335 375.158 287.957C375.819 287.58 376.763 287.297 377.707 287.297C378.651 287.297 379.501 287.485 380.161 287.957C380.822 288.429 381.389 288.996 381.766 289.751C382.144 290.506 382.427 291.545 382.427 292.678ZM374.591 292.678C374.591 293.527 374.686 294.188 374.875 294.849C375.063 295.416 375.441 295.888 375.913 296.265C376.385 296.643 376.952 296.737 377.707 296.737C378.462 296.737 379.029 296.548 379.501 296.265C379.973 295.888 380.256 295.51 380.539 294.849C380.728 294.283 380.822 293.527 380.822 292.678C380.822 291.828 380.728 291.167 380.539 290.506C380.35 289.846 379.973 289.468 379.501 289.09C379.029 288.807 378.462 288.618 377.707 288.618C376.668 288.618 375.819 288.996 375.347 289.657C374.78 290.412 374.591 291.45 374.591 292.678Z" fill="black"/>
<path d="M396.305 287.39C397.438 287.39 398.288 287.673 398.854 288.239C399.421 288.806 399.704 289.75 399.704 291.071V297.869H398.193V291.166C398.193 290.316 398.005 289.75 397.627 289.278C397.249 288.9 396.777 288.617 396.022 288.617C394.983 288.617 394.323 288.9 393.851 289.467C393.379 290.033 393.19 290.883 393.19 292.015V297.774H391.679V291.071C391.679 290.505 391.585 290.033 391.396 289.655C391.207 289.278 391.018 288.994 390.641 288.806C390.358 288.617 389.886 288.522 389.413 288.522C388.753 288.522 388.186 288.617 387.809 288.9C387.431 289.183 387.053 289.561 386.864 290.127C386.676 290.694 386.581 291.355 386.581 292.204V297.68H384.976V287.39H386.204L386.392 288.806H386.487C386.676 288.428 386.959 288.145 387.242 287.862C387.525 287.578 387.903 287.39 388.281 287.295C388.658 287.201 389.036 287.106 389.508 287.106C390.263 287.106 390.924 287.295 391.49 287.578C392.057 287.862 392.434 288.334 392.623 288.9H392.718C393.095 288.334 393.473 287.862 394.134 287.578C394.795 287.295 395.55 287.39 396.305 287.39Z" fill="black"/>
<path d="M175.959 339.878C175.959 340.727 175.77 341.388 175.393 341.955C175.015 342.521 174.449 342.993 173.693 343.276C172.938 343.56 172.088 343.748 171.144 343.748C170.578 343.748 170.106 343.749 169.634 343.654C169.162 343.56 168.784 343.56 168.312 343.465C167.84 343.371 167.557 343.277 167.274 343.088V341.577C167.746 341.766 168.312 341.955 168.973 342.144C169.634 342.332 170.389 342.427 171.144 342.427C171.805 342.427 172.372 342.332 172.938 342.144C173.41 341.955 173.788 341.672 174.071 341.388C174.354 341.011 174.449 340.633 174.449 340.161C174.449 339.689 174.354 339.311 174.165 339.028C173.977 338.745 173.599 338.462 173.127 338.179C172.655 337.895 171.994 337.612 171.144 337.329C170.578 337.14 170.011 336.857 169.634 336.668C169.162 336.385 168.784 336.102 168.501 335.818C168.218 335.535 167.934 335.157 167.84 334.685C167.651 334.308 167.651 333.836 167.651 333.269C167.651 332.514 167.84 331.948 168.218 331.381C168.595 330.815 169.067 330.437 169.728 330.154C170.389 329.871 171.144 329.776 171.994 329.776C172.749 329.776 173.41 329.871 174.071 329.965C174.732 330.059 175.298 330.248 175.77 330.531L175.298 331.948C174.826 331.759 174.26 331.57 173.693 331.476C173.127 331.381 172.56 331.287 171.994 331.287C171.428 331.287 170.956 331.381 170.483 331.57C170.011 331.759 169.728 331.948 169.539 332.325C169.351 332.703 169.256 332.986 169.256 333.458C169.256 333.93 169.351 334.308 169.539 334.685C169.728 334.969 170.106 335.252 170.483 335.535C170.956 335.818 171.522 336.007 172.277 336.29C173.127 336.574 173.788 336.857 174.354 337.234C174.921 337.518 175.393 337.99 175.676 338.462C175.77 338.556 175.959 339.123 175.959 339.878Z" fill="black"/>
<path d="M181.812 342.427C182.095 342.427 182.379 342.427 182.567 342.332C182.851 342.332 183.039 342.238 183.228 342.144V343.371C183.039 343.465 182.756 343.56 182.473 343.56C182.19 343.654 181.812 343.654 181.529 343.654C180.962 343.654 180.49 343.56 180.018 343.371C179.546 343.182 179.263 342.899 178.98 342.427C178.697 341.955 178.602 341.294 178.602 340.539V334.402H177.092V333.647L178.602 333.08L179.263 330.815H180.207V333.175H183.228V334.402H180.207V340.444C180.207 341.105 180.396 341.577 180.679 341.86C180.962 342.238 181.34 342.427 181.812 342.427Z" fill="black"/>
<path d="M189.176 333.08C190.403 333.08 191.348 333.363 191.914 333.93C192.48 334.496 192.764 335.346 192.764 336.573V343.559H191.631L191.347 342.049H191.253C190.97 342.426 190.687 342.71 190.309 342.993C190.026 343.276 189.648 343.465 189.176 343.559C188.799 343.654 188.232 343.748 187.666 343.748C187.005 343.748 186.438 343.654 185.966 343.465C185.494 343.276 185.117 342.898 184.833 342.426C184.55 341.954 184.456 341.388 184.456 340.727C184.456 339.689 184.833 338.933 185.683 338.367C186.533 337.8 187.76 337.517 189.365 337.423L191.159 337.328V336.668C191.159 335.818 190.97 335.157 190.592 334.779C190.215 334.402 189.648 334.213 188.987 334.213C188.421 334.213 187.949 334.307 187.477 334.402C187.005 334.591 186.533 334.779 186.061 334.968L185.589 333.741C186.061 333.458 186.627 333.269 187.194 333.175C187.949 333.08 188.515 333.08 189.176 333.08ZM191.253 338.461L189.648 338.556C188.326 338.65 187.477 338.839 186.91 339.217C186.344 339.594 186.155 340.066 186.155 340.821C186.155 341.388 186.344 341.86 186.722 342.143C187.099 342.426 187.571 342.521 188.138 342.521C189.082 342.521 189.837 342.238 190.403 341.766C190.97 341.294 191.253 340.538 191.253 339.5V338.461Z" fill="black"/>
<path d="M200.694 332.987C200.883 332.987 201.071 332.987 201.355 332.987C201.543 332.987 201.827 333.081 201.921 333.081L201.732 334.497C201.543 334.497 201.355 334.403 201.166 334.403C200.977 334.403 200.788 334.403 200.599 334.403C200.222 334.403 199.75 334.497 199.466 334.686C199.089 334.875 198.806 335.064 198.522 335.441C198.239 335.725 198.05 336.102 197.862 336.574C197.673 337.046 197.673 337.518 197.673 337.99V343.56H196.068V333.176H197.389L197.578 335.064H197.673C197.862 334.686 198.145 334.308 198.428 334.025C198.711 333.742 199.089 333.459 199.466 333.27C199.844 333.081 200.222 332.987 200.694 332.987Z" fill="black"/>
<path d="M207.774 333.08C209.001 333.08 209.945 333.364 210.512 333.93C211.078 334.497 211.362 335.346 211.362 336.573V343.56H210.229L209.945 342.049H209.851C209.568 342.427 209.285 342.71 208.907 342.993C208.624 343.276 208.246 343.465 207.774 343.56C207.397 343.654 206.83 343.748 206.264 343.748C205.603 343.748 205.036 343.654 204.564 343.465C204.092 343.276 203.715 342.899 203.431 342.427C203.148 341.955 203.054 341.388 203.054 340.727C203.054 339.689 203.431 338.934 204.281 338.367C205.131 337.801 206.358 337.518 207.963 337.423L209.757 337.329V336.668C209.757 335.818 209.568 335.157 209.19 334.78C208.813 334.402 208.246 334.213 207.585 334.213C207.019 334.213 206.547 334.308 206.075 334.402C205.603 334.591 205.131 334.78 204.659 334.969L204.187 333.741C204.659 333.458 205.225 333.269 205.792 333.175C206.452 333.08 207.113 333.08 207.774 333.08ZM209.851 338.462L208.246 338.556C206.924 338.65 206.075 338.839 205.508 339.217C204.942 339.594 204.753 340.067 204.753 340.822C204.753 341.388 204.942 341.86 205.32 342.144C205.697 342.427 206.169 342.521 206.736 342.521C207.68 342.521 208.435 342.238 209.001 341.766C209.568 341.294 209.851 340.539 209.851 339.5V338.462ZM210.323 328.738V328.926C210.229 329.115 210.04 329.304 209.851 329.587C209.662 329.871 209.379 330.154 209.096 330.343C208.813 330.626 208.529 330.909 208.341 331.098C208.057 331.381 207.869 331.57 207.585 331.759H206.547V331.57C206.736 331.287 206.924 331.003 207.208 330.72C207.491 330.343 207.68 330.059 207.869 329.682C208.057 329.304 208.246 329.021 208.435 328.738H210.323Z" fill="black"/>
<path d="M221.18 343.559H219.575V328.926H221.18V343.559ZM224.201 328.926V329.115C224.106 329.398 224.012 329.681 223.918 329.964C223.729 330.342 223.634 330.625 223.446 331.003C223.257 331.381 223.068 331.664 222.879 331.947H222.03V331.758C222.124 331.569 222.124 331.381 222.218 331.097C222.313 330.814 222.313 330.625 222.407 330.342C222.502 330.059 222.502 329.776 222.596 329.587C222.69 329.398 222.69 329.115 222.69 328.926H224.201Z" fill="black"/>
<path d="M232.981 333.175V343.56H231.659L231.471 342.144H231.376C231.187 342.521 230.904 342.805 230.526 343.088C230.149 343.371 229.771 343.56 229.394 343.654C229.016 343.749 228.544 343.843 228.072 343.843C227.222 343.843 226.561 343.749 225.995 343.466C225.428 343.182 225.051 342.805 224.768 342.238C224.484 341.672 224.39 341.011 224.39 340.161V333.175H225.995V339.784C225.995 340.633 226.184 341.294 226.561 341.672C226.939 342.049 227.505 342.333 228.355 342.333C229.11 342.333 229.771 342.144 230.149 341.861C230.526 341.577 230.904 341.105 231.093 340.633C231.282 340.067 231.376 339.406 231.376 338.556V333.175H232.981Z" fill="black"/>
<path d="M237.89 328.926V332.608C237.89 332.985 237.89 333.458 237.89 333.835C237.89 334.213 237.89 334.496 237.796 334.779H237.89C238.173 334.307 238.551 333.93 239.117 333.646C239.684 333.363 240.345 333.174 241.194 333.174C242.516 333.174 243.555 333.646 244.31 334.496C245.065 335.346 245.443 336.762 245.443 338.461C245.443 339.594 245.254 340.632 244.876 341.388C244.499 342.143 244.027 342.804 243.366 343.181C242.705 343.559 241.95 343.748 241.1 343.748C240.25 343.748 239.589 343.559 239.117 343.276C238.551 342.993 238.173 342.615 237.89 342.143H237.796L237.512 343.559H236.38V328.926H237.89ZM240.817 334.307C240.061 334.307 239.495 334.496 239.023 334.779C238.551 335.062 238.268 335.535 238.079 336.101C237.89 336.667 237.796 337.423 237.796 338.367V338.461C237.796 339.783 237.985 340.727 238.457 341.482C238.929 342.143 239.684 342.521 240.817 342.521C241.761 342.521 242.516 342.143 242.988 341.482C243.46 340.821 243.743 339.783 243.743 338.461C243.743 337.139 243.46 336.101 242.988 335.44C242.516 334.685 241.855 334.307 240.817 334.307Z" fill="black"/>
<path d="M256.96 338.368C256.96 339.218 256.866 339.973 256.677 340.634C256.488 341.295 256.111 341.861 255.733 342.333C255.355 342.805 254.789 343.183 254.223 343.372C253.656 343.655 252.995 343.749 252.24 343.749C251.579 343.749 250.918 343.655 250.352 343.372C249.785 343.088 249.313 342.805 248.841 342.333C248.464 341.861 248.086 341.295 247.897 340.634C247.708 339.973 247.52 339.218 247.52 338.368C247.52 337.235 247.708 336.291 248.086 335.441C248.464 334.592 249.03 334.025 249.691 333.648C250.446 333.27 251.296 332.987 252.24 332.987C253.184 332.987 254.034 333.176 254.695 333.648C255.355 334.025 255.922 334.686 256.299 335.441C256.677 336.197 256.96 337.235 256.96 338.368ZM249.125 338.368C249.125 339.218 249.219 339.879 249.408 340.539C249.597 341.106 249.974 341.578 250.446 341.955C250.918 342.333 251.485 342.428 252.24 342.428C252.995 342.428 253.562 342.239 254.034 341.955C254.506 341.578 254.789 341.106 255.072 340.539C255.355 339.973 255.355 339.218 255.355 338.368C255.355 337.518 255.261 336.857 255.072 336.197C254.883 335.536 254.506 335.158 254.034 334.781C253.562 334.497 252.995 334.308 252.24 334.308C251.202 334.308 250.352 334.686 249.88 335.347C249.408 336.008 249.125 337.046 249.125 338.368Z" fill="black"/>
<path d="M261.87 343.561L257.999 333.27H259.698L261.964 339.501C262.153 339.973 262.247 340.351 262.436 340.917C262.625 341.389 262.719 341.861 262.814 342.145H262.908C263.003 341.861 263.097 341.389 263.286 340.917C263.475 340.445 263.663 339.973 263.758 339.501L266.024 333.27H267.723L263.758 343.561H261.87Z" fill="black"/>
<path d="M274.143 332.987C275.37 332.987 276.314 333.27 276.88 333.931C277.541 334.497 277.824 335.536 277.824 336.857V343.56H276.314V336.952C276.314 336.102 276.125 335.441 275.748 335.064C275.37 334.592 274.709 334.403 273.954 334.403C272.821 334.403 271.971 334.686 271.594 335.347C271.122 336.008 270.933 336.952 270.933 338.179V343.56H269.328V333.176H270.555L270.744 334.686H270.838C271.027 334.308 271.31 334.025 271.688 333.742C272.066 333.459 272.443 333.27 272.821 333.176C273.199 333.081 273.671 332.987 274.143 332.987ZM272.726 331.854C272.538 331.571 272.349 331.287 272.066 330.91C271.782 330.532 271.499 330.249 271.216 329.871C270.933 329.494 270.65 329.21 270.366 329.022V328.833H271.405C271.782 329.022 272.066 329.305 272.443 329.682C272.821 330.06 273.104 330.343 273.482 330.721C273.859 330.343 274.143 330.06 274.52 329.682C274.898 329.305 275.181 329.116 275.559 328.833H276.692V329.022C276.408 329.305 276.125 329.588 275.842 329.871C275.559 330.249 275.275 330.532 274.992 330.91C274.709 331.287 274.52 331.571 274.331 331.854H272.726Z" fill="black"/>
<path d="M284.905 333.08C286.132 333.08 287.076 333.363 287.643 333.93C288.209 334.496 288.493 335.346 288.493 336.573V343.559H287.36L287.076 342.049H286.982C286.699 342.426 286.416 342.71 286.038 342.993C285.755 343.276 285.377 343.465 284.905 343.559C284.527 343.654 283.961 343.748 283.395 343.748C282.734 343.748 282.167 343.654 281.695 343.465C281.223 343.276 280.846 342.898 280.562 342.426C280.279 341.954 280.185 341.388 280.185 340.727C280.185 339.689 280.562 338.933 281.412 338.367C282.262 337.8 283.489 337.517 285.094 337.423L286.888 337.328V336.668C286.888 335.818 286.699 335.157 286.321 334.779C285.944 334.402 285.377 334.213 284.716 334.213C284.15 334.213 283.678 334.307 283.206 334.402C282.734 334.591 282.262 334.779 281.79 334.968L281.318 333.741C281.79 333.458 282.356 333.269 282.922 333.175C283.583 333.08 284.244 333.08 284.905 333.08ZM286.982 338.461L285.377 338.556C284.055 338.65 283.206 338.839 282.639 339.217C282.073 339.594 281.884 340.066 281.884 340.821C281.884 341.388 282.073 341.86 282.45 342.143C282.828 342.426 283.3 342.521 283.867 342.521C284.811 342.521 285.566 342.238 286.132 341.766C286.699 341.294 286.982 340.538 286.982 339.5V338.461Z" fill="black"/>
<path d="M293.59 341.295L293.685 341.484C293.59 341.956 293.402 342.428 293.213 342.994C293.024 343.561 292.835 344.033 292.646 344.599C292.457 345.166 292.269 345.638 291.985 346.11H290.853C290.947 345.638 291.136 345.071 291.23 344.505C291.325 343.938 291.513 343.372 291.608 342.9C291.702 342.334 291.797 341.861 291.891 341.389L293.59 341.295Z" fill="black"/>
<path d="M308.035 343.56L303.409 331.381H303.314C303.314 331.664 303.314 331.948 303.409 332.325C303.409 332.703 303.409 333.08 303.409 333.553C303.409 334.025 303.409 334.402 303.409 334.874V343.56H301.898V329.776H304.258L308.601 341.2H308.696L313.133 329.776H315.493V343.56H313.982V334.78C313.982 334.402 313.982 333.93 313.982 333.553C313.982 333.175 313.982 332.797 313.982 332.42C313.982 332.042 313.982 331.759 314.077 331.476H313.982L309.356 343.654H308.035V343.56Z" fill="black"/>
<path d="M319.836 329.398C320.119 329.398 320.308 329.492 320.497 329.681C320.685 329.87 320.78 330.059 320.78 330.436C320.78 330.814 320.685 331.003 320.497 331.191C320.308 331.38 320.119 331.475 319.836 331.475C319.552 331.475 319.364 331.38 319.175 331.191C318.986 331.003 318.892 330.719 318.892 330.436C318.892 330.059 318.986 329.87 319.175 329.681C319.364 329.398 319.647 329.398 319.836 329.398ZM320.591 333.174V343.559H318.986V333.174H320.591Z" fill="black"/>
<path d="M327.86 332.987C328.71 332.987 329.465 333.176 330.126 333.553C330.787 333.931 331.259 334.497 331.542 335.158C331.92 335.819 332.014 336.669 332.014 337.613V338.557H324.934C324.934 339.784 325.217 340.728 325.878 341.295C326.444 341.955 327.294 342.239 328.332 342.239C328.993 342.239 329.559 342.144 330.031 342.05C330.504 341.955 331.07 341.767 331.636 341.483V342.9C331.07 343.088 330.598 343.277 330.126 343.372C329.654 343.466 328.993 343.56 328.332 343.56C327.388 343.56 326.444 343.372 325.783 342.994C325.028 342.616 324.461 341.956 324.084 341.2C323.706 340.445 323.517 339.501 323.517 338.368C323.517 337.235 323.706 336.291 324.084 335.441C324.461 334.592 325.028 334.025 325.689 333.553C326.161 333.27 327.01 332.987 327.86 332.987ZM327.86 334.308C327.01 334.308 326.35 334.592 325.878 335.158C325.406 335.725 325.122 336.48 325.028 337.424H330.504C330.504 336.763 330.409 336.291 330.22 335.819C330.031 335.347 329.748 334.969 329.371 334.686C328.993 334.403 328.427 334.308 327.86 334.308Z" fill="black"/>
<path d="M339.472 332.987C339.661 332.987 339.85 332.987 340.133 332.987C340.322 332.987 340.605 333.081 340.7 333.081L340.511 334.497C340.322 334.497 340.133 334.403 339.944 334.403C339.755 334.403 339.567 334.403 339.378 334.403C339 334.403 338.528 334.497 338.245 334.686C337.867 334.875 337.584 335.064 337.301 335.441C337.018 335.725 336.829 336.102 336.64 336.574C336.451 337.046 336.451 337.518 336.451 337.99V343.56H334.752V333.176H336.074L336.262 335.064H336.357C336.546 334.686 336.829 334.308 337.112 334.025C337.395 333.742 337.773 333.459 338.151 333.27C338.528 333.081 338.906 332.987 339.472 332.987Z" fill="black"/>
<path d="M351.462 338.368C351.462 339.218 351.368 339.973 351.179 340.634C350.99 341.295 350.613 341.861 350.235 342.333C349.857 342.805 349.291 343.183 348.724 343.372C348.158 343.655 347.497 343.749 346.742 343.749C346.081 343.749 345.42 343.655 344.854 343.372C344.287 343.088 343.815 342.805 343.343 342.333C342.966 341.861 342.588 341.295 342.399 340.634C342.21 339.973 342.021 339.218 342.021 338.368C342.021 337.235 342.21 336.291 342.588 335.441C342.966 334.592 343.532 334.025 344.193 333.648C344.948 333.27 345.798 332.987 346.742 332.987C347.686 332.987 348.536 333.176 349.196 333.648C349.857 334.025 350.424 334.686 350.801 335.441C351.179 336.197 351.462 337.235 351.462 338.368ZM343.626 338.368C343.626 339.218 343.721 339.879 343.91 340.539C344.098 341.106 344.476 341.578 344.948 341.955C345.42 342.333 345.987 342.428 346.742 342.428C347.497 342.428 348.064 342.239 348.536 341.955C349.008 341.578 349.291 341.106 349.574 340.539C349.857 339.973 349.857 339.218 349.857 338.368C349.857 337.518 349.763 336.857 349.574 336.197C349.385 335.536 349.008 335.158 348.536 334.781C348.064 334.497 347.497 334.308 346.742 334.308C345.703 334.308 344.854 334.686 344.382 335.347C343.91 336.008 343.626 337.046 343.626 338.368Z" fill="black"/>
<path d="M356.466 343.561L352.595 333.27H354.294L356.56 339.501C356.749 339.973 356.843 340.351 357.032 340.917C357.221 341.389 357.315 341.861 357.41 342.145H357.504C357.599 341.861 357.693 341.389 357.882 340.917C358.071 340.445 358.259 339.973 358.354 339.501L360.62 333.27H362.319L358.354 343.561H356.466Z" fill="black"/>
<path d="M367.7 333.08C368.927 333.08 369.871 333.364 370.438 333.93C371.004 334.497 371.287 335.346 371.287 336.573V343.56H370.155L369.871 342.049H369.777C369.494 342.427 369.211 342.71 368.833 342.993C368.55 343.276 368.172 343.465 367.7 343.56C367.322 343.654 366.756 343.748 366.19 343.748C365.529 343.748 364.962 343.654 364.49 343.465C364.018 343.276 363.641 342.899 363.357 342.427C363.074 341.955 362.98 341.388 362.98 340.727C362.98 339.689 363.357 338.934 364.207 338.367C365.057 337.801 366.284 337.518 367.889 337.423L369.683 337.329V336.668C369.683 335.818 369.494 335.157 369.116 334.78C368.739 334.402 368.172 334.213 367.511 334.213C366.945 334.213 366.473 334.308 366.001 334.402C365.529 334.591 365.057 334.78 364.585 334.969L364.113 333.741C364.585 333.458 365.151 333.269 365.717 333.175C366.378 333.08 367.039 333.08 367.7 333.08ZM369.777 338.462L368.172 338.556C366.85 338.65 366.001 338.839 365.434 339.217C364.868 339.594 364.679 340.067 364.679 340.822C364.679 341.388 364.868 341.86 365.245 342.144C365.623 342.427 366.095 342.521 366.662 342.521C367.606 342.521 368.361 342.238 368.927 341.766C369.494 341.294 369.777 340.539 369.777 339.5V338.462ZM370.249 328.738V328.926C370.155 329.115 369.966 329.304 369.777 329.587C369.588 329.871 369.305 330.154 369.022 330.343C368.739 330.626 368.455 330.909 368.266 331.098C367.983 331.381 367.794 331.57 367.511 331.759H366.473V331.57C366.662 331.287 366.85 331.003 367.134 330.72C367.417 330.343 367.606 330.059 367.794 329.682C367.983 329.304 368.172 329.021 368.361 328.738H370.249Z" fill="black"/>
<path d="M384.599 343.558H383.088V333.834C383.088 333.457 383.088 333.174 383.088 332.89C383.088 332.607 383.088 332.418 383.088 332.135C383.088 331.946 383.088 331.663 383.088 331.474C382.9 331.663 382.711 331.852 382.522 331.946C382.333 332.041 382.144 332.23 381.861 332.513L380.256 333.74L379.406 332.702L383.088 329.869H384.41V343.558H384.599Z" fill="black"/>
<path d="M399.515 340.349H397.438V343.559H395.928V340.349H389.319V339.027L395.833 329.681H397.438V338.933H399.515V340.349ZM395.928 338.933V334.401C395.928 334.024 395.928 333.741 395.928 333.457C395.928 333.174 395.928 332.891 395.928 332.702C395.928 332.419 395.928 332.23 395.928 332.041C395.928 331.852 395.928 331.569 395.928 331.38H395.833C395.739 331.664 395.55 331.852 395.456 332.136C395.267 332.419 395.173 332.702 394.984 332.891L390.735 338.933H395.928Z" fill="black"/>
<mask id="mask1_1_144" style="mask-type:luminance" maskUnits="userSpaceOnUse" x="128" y="278" width="27" height="28">
<path d="M154.434 278.984H128V305.418H154.434V278.984Z" fill="white"/>
</mask>
<g mask="url(#mask1_1_144)">
<path d="M146.032 281.722C144.899 280.873 143.105 278.984 141.217 278.984C139.329 278.984 137.535 280.778 136.402 281.722C134.609 283.138 130.738 286.254 128.944 287.764C128.661 287.953 128.472 288.331 128.283 288.614C128.094 288.992 128 289.275 128 289.652V302.964C128 304.285 129.133 305.418 130.455 305.418H151.979C153.301 305.418 154.434 304.285 154.434 302.964V289.652C154.434 289.275 154.34 288.897 154.151 288.614C153.962 288.236 153.773 287.953 153.49 287.764C151.696 286.254 147.826 283.138 146.032 281.722ZM151.979 303.813H130.455C129.983 303.813 129.605 303.436 129.605 302.964V289.652C129.605 289.369 129.699 289.18 129.888 288.992C131.21 287.859 136.213 283.894 137.346 282.949C138.29 282.194 139.895 280.589 141.123 280.589C142.35 280.589 144.049 282.194 144.899 282.949C146.126 283.894 151.035 287.859 152.357 288.992C152.451 289.086 152.546 289.18 152.546 289.275C152.546 289.369 152.64 289.464 152.64 289.652V302.964C152.735 303.436 152.357 303.813 151.979 303.813ZM151.507 292.579C151.696 292.862 151.696 293.24 151.413 293.429C150.28 294.373 148.581 295.694 146.032 297.677C144.899 298.527 143.105 300.415 141.217 300.415C139.329 300.415 137.441 298.527 136.402 297.677C133.853 295.694 132.248 294.373 131.021 293.429C130.738 293.24 130.738 292.862 130.927 292.579L131.21 292.296C131.399 292.013 131.776 292.013 132.06 292.201C133.192 293.145 134.892 294.467 137.441 296.45C138.29 297.111 139.99 298.81 141.217 298.81C142.444 298.81 144.144 297.205 144.993 296.45C147.542 294.467 149.147 293.145 150.375 292.201C150.658 292.013 151.035 292.013 151.224 292.296L151.507 292.579Z" fill="#005178"/>
</g>
<mask id="mask2_1_144" style="mask-type:luminance" maskUnits="userSpaceOnUse" x="129" y="322" width="25" height="32">
<path d="M153.207 322.793H129.322V353.003H153.207V322.793Z" fill="white"/>
</mask>
<g mask="url(#mask2_1_144)">
<path d="M141.217 328.457C137.913 328.457 135.27 331.006 135.27 334.121C135.27 337.237 137.913 339.786 141.217 339.786C144.522 339.786 147.165 337.237 147.165 334.121C147.165 331.006 144.522 328.457 141.217 328.457ZM141.217 337.898C139.046 337.898 137.252 336.198 137.252 334.121C137.252 332.045 139.046 330.345 141.217 330.345C143.389 330.345 145.182 332.045 145.182 334.121C145.182 336.198 143.389 337.898 141.217 337.898ZM141.217 322.793C134.609 322.793 129.322 327.891 129.322 334.121C129.322 338.653 131.021 339.975 139.99 352.342C140.556 353.192 141.878 353.192 142.445 352.342C151.508 339.88 153.113 338.653 153.113 334.121C153.113 327.891 147.826 322.793 141.217 322.793ZM141.217 350.737C132.532 338.842 131.305 337.898 131.305 334.121C131.305 331.572 132.343 329.212 134.231 327.419C136.119 325.625 138.574 324.681 141.217 324.681C143.861 324.681 146.41 325.625 148.203 327.419C150.092 329.212 151.13 331.572 151.13 334.121C151.13 337.898 149.808 338.842 141.217 350.737Z" fill="#005178"/>
</g>
</g>
<defs>
<clipPath id="clip0_1_144">
<rect width="717.67" height="596.329" fill="white"/>
</clipPath>
</defs>
</svg>
