<svg width="1728" height="927" viewBox="0 0 1728 927" fill="none" xmlns="http://www.w3.org/2000/svg">
<mask id="mask0_1_289" style="mask-type:alpha" maskUnits="userSpaceOnUse" x="-2" y="0" width="1730" height="927">
<path d="M1727.5 0H-0.5L-1.5 927H1727.5V0Z" fill="#DBECEB" fill-opacity="0.5"/>
</mask>
<g mask="url(#mask0_1_289)">
<mask id="mask1_1_289" style="mask-type:luminance" maskUnits="userSpaceOnUse" x="-61" y="-101" width="1775" height="1088">
<path d="M1713.24 -100.567H-60.665V986.563H1713.24V-100.567Z" fill="white"/>
</mask>
<g mask="url(#mask1_1_289)">
<path d="M927.046 -113.394C897.953 -80.3457 865.314 -43.1659 877.613 0.971545C881.87 16.6262 897.007 41.8476 875.72 52.5015C857.035 61.8508 813.988 46.4136 794.594 44.8916C748.236 41.6302 684.612 49.8924 640.382 63.5902C615.548 71.2001 604.668 87.7245 584.327 100.553C563.04 114.033 535.367 115.99 510.532 119.686C458.025 127.513 421.601 92.7253 369.093 92.9427C352.3 92.9427 262.895 113.381 271.646 138.167C277.559 155.127 303.34 144.473 308.544 162.519C316.349 189.262 282.999 186.001 267.389 184.914C250.596 183.609 223.633 184.479 212.28 199.699C194.541 223.398 223.396 233.4 243.737 241.227C285.838 257.534 308.307 293.844 340.237 323.197C372.877 353.202 424.202 365.16 469.378 354.289C491.611 348.853 511.479 337.112 532.765 329.502C554.052 321.675 574.393 320.153 596.862 316.457C619.568 312.543 640.619 304.063 663.325 299.932C683.429 296.236 729.551 282.321 746.817 291.018C777.564 306.455 731.443 362.986 720.799 380.38C701.878 410.819 673.495 457.566 698.093 494.094C722.455 530.186 780.876 504.965 802.399 482.57C832.437 451.261 881.397 438.65 909.543 404.731C927.282 383.424 925.153 361.899 925.153 336.242C925.153 309.716 930.593 283.19 929.884 256.882C928.938 215.788 895.588 154.692 920.659 118.382C934.851 97.9435 956.847 81.4192 971.275 60.5463C983.574 42.7173 1009.35 22.7141 1018.34 4.66778C1028.51 -15.7703 1011.25 -29.2507 1000.6 -45.9925C985.466 -70.3442 994.927 -88.8253 1002.97 -114.047" stroke="#58CCC7" stroke-width="1.5" stroke-miterlimit="10" stroke-linecap="round" stroke-linejoin="round"/>
<path d="M-84.3171 572.804C-58.0633 579.762 -24.9505 594.546 2.24942 591.72C32.9971 588.459 55.7031 571.717 88.343 573.021C116.725 574.108 152.44 575.196 176.329 590.198C200.69 605.635 201.4 626.943 213.935 649.338C226.471 671.515 252.488 681.734 268.808 701.52C283.946 720.001 292.933 743.048 308.78 760.877C327.229 781.533 351.827 781.098 378.554 784.359C412.376 788.49 444.543 799.144 479.312 796.97C512.661 794.796 545.538 789.795 579.123 787.403C603.958 785.664 628.793 777.402 619.568 749.789C603.958 703.259 502.727 696.302 462.519 686.518C432.717 679.125 424.912 652.817 411.903 629.987C395.82 601.504 379.5 573.456 365.309 544.104C352.537 518.23 336.926 493.661 324.391 467.787C314.457 446.914 313.984 416.692 296.245 399.95C253.198 359.727 162.847 384.731 115.543 399.95C83.3761 410.387 59.2509 416.692 26.3746 407.343C-11.7053 396.472 -44.5817 385.6 -84.3171 380.817" stroke="#58CCC7" stroke-width="1.5" stroke-miterlimit="10" stroke-linecap="round" stroke-linejoin="round"/>
<path d="M1735.47 689.995C1686.75 643.901 1608.22 651.946 1572.75 595.633C1554.77 566.932 1550.28 539.754 1553.12 506.923C1555.95 474.526 1566.36 448.87 1548.39 418.648C1533.48 393.209 1513.38 362.117 1492.09 340.809C1458.74 307.108 1437.69 317.545 1396.54 328.416C1371.47 334.939 1335.04 327.764 1315.41 347.115C1295.54 366.9 1305.48 401.471 1326.53 417.126C1350.42 435.172 1386.37 423.866 1394.17 457.567C1399.85 482.789 1384 515.837 1371.47 537.145C1354.67 565.845 1329.84 586.936 1344.98 621.071C1355.15 644.336 1375.49 662.817 1386.84 685.864C1402.69 718.043 1404.58 727.175 1441.24 739.351C1472.93 749.788 1491.15 768.486 1516.93 787.185C1578.9 832.192 1660.26 844.368 1736.42 853.717" stroke="#58CCC7" stroke-width="1.5" stroke-miterlimit="10" stroke-linecap="round" stroke-linejoin="round"/>
<path d="M1255.34 -113.395C1266.22 -84.4771 1271.89 -51.6458 1285.85 -24.0327C1296.49 -3.15985 1319.67 -1.42044 1331.97 15.7562C1352.55 44.239 1273.31 86.8545 1253.21 110.336C1216.31 153.169 1229.08 194.915 1285.85 211.874C1345.45 229.486 1382.35 215.571 1418.77 169.911C1445.03 136.862 1461.82 70.5475 1437.22 32.498C1417.35 2.05837 1372.41 8.79859 1396.78 -39.0351C1406.71 -58.8209 1434.86 -75.3452 1459.69 -72.7361C1479.32 -70.5619 1484.76 -56.864 1500.84 -48.3844C1547.44 -23.163 1601.84 -71.649 1566.83 -113.177" stroke="#58CCC7" stroke-width="1.5" stroke-miterlimit="10" stroke-linecap="round" stroke-linejoin="round"/>
<path d="M752.02 999.611C736.646 957.431 705.662 928.078 655.283 918.294C633.996 914.163 612.709 921.556 591.422 918.729C564.696 915.033 553.343 901.117 530.637 890.029C489.009 869.808 451.875 902.857 418.289 923.078C383.994 943.733 329.121 964.823 310.672 1000.7" stroke="#58CCC7" stroke-width="1.5" stroke-miterlimit="10" stroke-linecap="round" stroke-linejoin="round"/>
<path d="M1649.14 1000.26C1621.71 1003.74 1618.87 936.124 1599.95 921.774C1584.1 909.815 1559.74 906.336 1541.76 896.552C1523.55 886.768 1504.63 864.373 1483.34 860.677C1444.32 854.154 1419.01 920.034 1391.34 939.168C1376.91 949.169 1357.51 949.821 1344.27 961.128C1331.02 972.434 1331.26 985.045 1326.06 999.612" stroke="#58CCC7" stroke-width="1.5" stroke-miterlimit="10" stroke-linecap="round" stroke-linejoin="round"/>
<path d="M-84.3171 939.385C-51.2042 943.516 -17.8548 953.952 9.34504 931.557C40.5658 905.901 59.724 865.46 65.4005 827.845C73.9152 771.097 -28.9713 710 -84.3171 709.131" stroke="#58CCC7" stroke-width="1.5" stroke-miterlimit="10" stroke-linecap="round" stroke-linejoin="round"/>
<path d="M-84.3171 279.932C-46.2373 283.628 -24.7139 266.234 3.19553 246.014C21.1711 232.968 46.4788 222.749 50.4997 199.485C54.0475 179.481 32.5241 142.084 18.0963 127.517C-9.81311 99.4686 -48.1295 109.905 -84.3171 114.471" stroke="#58CCC7" stroke-width="1.5" stroke-miterlimit="10" stroke-linecap="round" stroke-linejoin="round"/>
<path d="M225.525 -114.48C211.57 -84.9099 177.038 -68.1681 149.602 -50.7741C126.186 -35.9891 101.825 -10.3328 76.2804 -0.983531C48.6075 9.23549 16.2042 -0.766106 -12.1783 9.88776C-41.7434 20.9765 -54.0425 50.9813 -83.1345 64.2442" stroke="#58CCC7" stroke-width="1.5" stroke-miterlimit="10" stroke-linecap="round" stroke-linejoin="round"/>
<path d="M1736.89 346.896C1714.9 353.853 1682.26 357.767 1671.38 379.075C1661.21 398.86 1670.19 430.17 1669.96 451.043C1669.48 471.916 1659.55 499.094 1669.48 518.879C1680.6 540.84 1714.9 554.32 1735.71 566.931" stroke="#58CCC7" stroke-width="1.5" stroke-miterlimit="10" stroke-linecap="round" stroke-linejoin="round"/>
<path d="M1635.19 107.513C1622.42 110.122 1611.3 117.949 1600.66 124.254C1585.99 132.951 1574.17 143.823 1570.38 160.13C1566.6 176.437 1569.44 193.396 1571.33 209.92C1575.11 242.969 1588.59 305.153 1639.21 296.021C1687.93 287.106 1672.09 217.53 1673.74 185.351C1674.69 164.043 1681.31 135.56 1666.17 117.079C1660.26 109.904 1650.09 105.773 1640.16 106.643C1638.5 107.078 1636.84 107.295 1635.19 107.513Z" stroke="#58CCC7" stroke-width="1.5" stroke-miterlimit="10" stroke-linecap="round" stroke-linejoin="round"/>
<path d="M611.054 371.686C596.626 370.382 580.306 375.6 567.061 377.122C535.84 381.035 504.62 384.514 473.635 389.515C442.888 394.516 396.293 386.906 388.724 422.999C382.102 453.873 412.14 497.358 425.858 523.667C442.178 554.759 464.411 608.898 499.416 625.205C516.209 633.032 537.259 634.771 554.999 641.077C575.103 648.252 594.261 658.036 615.784 660.863C629.976 662.819 662.142 662.602 674.205 651.948C691.944 636.076 676.334 617.812 668.528 600.201C652.682 563.891 647.005 523.667 642.511 484.965C639.673 461.048 646.059 436.479 643.457 412.345C642.275 401.473 639.909 388.645 631.395 380.383C625.482 374.73 618.623 372.338 611.054 371.686Z" stroke="#58CCC7" stroke-width="1.5" stroke-miterlimit="10" stroke-linecap="round" stroke-linejoin="round"/>
<path d="M1110.59 -114.48C1101.12 -82.0834 1126.91 -57.5143 1132.35 -27.2921C1137.08 0.103573 1138.02 31.1955 1124.07 56.4169C1110.82 80.5511 1089.06 99.6846 1075.58 124.036C1057.37 156.868 1044.36 163.173 1013.61 186.872C990.669 204.701 979.317 223.4 988.541 251.013C998.948 282.105 1019.05 284.497 1044.83 299.934C1105.86 336.679 986.176 389.731 1064.46 423.867C1097.34 438.217 1101.36 404.516 1123.59 388.861C1142.52 375.598 1173.26 373.424 1195.97 376.033C1226.95 379.729 1229.08 394.732 1236.65 420.388C1244.46 446.914 1265.27 461.699 1274.97 486.703C1286.32 515.838 1273.55 522.143 1257.46 543.233C1235.23 572.586 1238.31 595.633 1261.72 621.507C1283.25 645.206 1307.61 664.992 1330.79 687.169C1355.38 710.869 1352.31 744.135 1373.6 768.921C1393.94 792.838 1434.38 783.924 1463.47 796.317C1496.11 810.232 1519.53 834.801 1549.57 851.978C1576.77 867.415 1607.99 865.024 1637.32 874.156C1673.98 885.462 1702.12 911.118 1737.13 923.946" stroke="#58CCC7" stroke-width="1.5" stroke-miterlimit="10" stroke-linecap="round" stroke-linejoin="round"/>
<path d="M1128.32 596.72C1118.63 598.46 1110.11 603.025 1103.73 613.244C1094.27 628.899 1087.88 652.164 1093.79 669.775C1101.6 692.822 1144.41 730.872 1173.26 722.392C1200.46 714.348 1209.92 659.991 1216.78 638.248C1222.22 620.854 1225.77 615.201 1208.03 606.504C1194.08 599.764 1176.57 598.677 1161.2 597.372C1149.85 596.068 1138.49 594.763 1128.32 596.72Z" stroke="#58CCC7" stroke-width="1.5" stroke-miterlimit="10" stroke-linecap="round" stroke-linejoin="round"/>
<path d="M1045.07 -114.48C1042.7 -99.0426 1037.03 -80.344 1040.1 -65.1242C1043.41 -48.3824 1057.37 -34.4671 1063.28 -18.595C1078.18 22.281 1046.49 34.022 1017.63 56.8518C993.271 75.9852 963.706 107.512 953.536 135.995C938.871 177.088 946.913 227.966 949.515 270.147C951.88 306.022 965.598 351.464 956.137 386.687C948.332 414.735 896.771 436.695 902.447 464.308C909.07 495.617 953.772 492.138 942.419 535.189C932.485 573.021 915.456 584.544 957.793 609.983C988.304 628.247 1009.83 636.944 1026.86 667.819C1041.76 694.779 1086.93 722.827 1089.3 753.702C1092.14 790.664 1042.94 796.97 1014.79 806.971C971.984 822.408 938.162 839.368 901.738 864.372C877.613 880.896 853.724 902.639 833.856 874.373C810.914 841.542 792.938 812.407 756.75 788.707C721.745 766.095 692.89 771.096 679.881 809.363C670.184 837.628 661.433 871.547 619.332 859.371C601.12 854.153 588.348 839.15 570.372 833.062C550.741 826.54 535.131 829.801 515.499 834.149C478.129 842.412 416.634 841.542 386.123 864.372C370.039 876.33 361.051 894.594 343.785 906.335C325.573 918.945 306.415 931.556 287.73 943.515C261.476 960.039 202.583 965.04 201.4 1000.48" stroke="#AACEC5" stroke-width="1.5" stroke-miterlimit="10" stroke-linecap="round" stroke-linejoin="round"/>
<path d="M-84.3171 554.757C-40.3243 562.15 -9.57659 569.977 31.578 550.409C77.6996 528.666 92.3638 541.059 138.722 553.453C167.341 561.063 194.304 559.976 217.956 579.326C233.803 592.372 243.974 623.681 265.734 614.984C281.107 608.896 307.361 566.933 327.702 600.417C340.474 621.29 304.05 661.731 305.469 686.3C306.888 709.782 322.498 727.828 344.968 738.047C366.728 747.832 428.223 774.357 445.489 748.049C460.627 724.784 416.397 689.779 403.152 671.95C385.413 647.816 364.126 621.29 351.827 594.329C336.453 560.845 327.702 524.1 312.565 490.182C301.448 465.613 292.933 428.65 270.464 410.604C213.462 364.945 143.452 411.256 96.8577 442.131C64.4544 463.438 45.5327 447.349 16.2042 430.825C-15.4896 412.778 -47.8929 405.168 -84.3171 400.602" stroke="#AACEC5" stroke-width="1.5" stroke-miterlimit="10" stroke-linecap="round" stroke-linejoin="round"/>
<path d="M1189.58 -113.395C1201.17 -90.3476 1227.43 -71.2141 1233.1 -46.4276C1240.67 -14.2485 1212.76 -0.333281 1200.23 24.6707C1188.64 48.1527 1203.54 73.3741 1193.84 97.0735C1183.91 121.208 1158.6 128.383 1139.2 144.255C1110.82 167.302 1123.83 184.044 1152.92 196.002C1185.56 209.265 1208.27 224.485 1235.94 244.923C1266.22 267.318 1284.9 279.711 1324.4 275.363C1360.59 271.449 1385.9 277.32 1416.64 256.882C1428.23 249.054 1442.19 240.357 1452.12 230.79C1461.11 222.093 1468.44 199.046 1478.61 193.611C1511.72 175.999 1501.79 224.268 1502.74 236.009C1504.63 261.447 1522.84 292.974 1532.77 316.674C1543.89 343.417 1559.97 364.073 1581.03 385.163C1634.95 438.867 1582.92 479.961 1587.17 540.188C1592.14 609.112 1683.68 617.374 1736.66 639.769" stroke="#AACEC5" stroke-width="1.5" stroke-miterlimit="10" stroke-linecap="round" stroke-linejoin="round"/>
<path d="M1736.18 745.873C1727.19 720.869 1714.66 696.518 1691.01 680.645C1667.12 664.556 1638.03 663.469 1611.06 654.337C1554.3 635.204 1536.56 589.544 1533.96 537.797C1530.88 475.395 1533.48 430.823 1492.09 378.641C1479.79 362.986 1463.71 345.81 1440.06 350.593C1415.46 355.594 1406.95 374.945 1414.28 394.078C1427.52 428.866 1435.56 439.085 1422.08 476.265C1411.44 505.618 1397.96 533.883 1388.73 563.67C1373.36 611.939 1397.25 677.384 1445.5 704.345C1470.33 718.043 1484.76 727.175 1503.68 748.917C1521.66 769.573 1542.71 786.315 1568.49 798.273C1611.77 818.276 1690.06 840.888 1737.37 825.234" stroke="#AACEC5" stroke-width="1.5" stroke-miterlimit="10" stroke-linecap="round" stroke-linejoin="round"/>
<path d="M-84.3172 299.934C-47.1834 297.759 -14.5436 300.368 15.258 277.321C40.5657 257.97 76.0439 231.227 77.463 198.613C78.8821 165.782 48.3709 135.995 50.7361 104.25C53.5744 66.6356 79.3552 78.3766 102.061 89.0305C127.842 101.206 165.449 82.2903 139.668 56.1992C126.896 43.1537 108.92 47.937 93.0734 48.1544C73.6787 48.3719 65.4004 44.6756 47.8979 37.2831C16.2041 23.8027 -1.0619 22.0633 -18.3279 50.5461C-34.8844 78.1592 -49.3121 85.5517 -84.5537 89.4654" stroke="#AACEC5" stroke-width="1.5" stroke-miterlimit="10" stroke-linecap="round" stroke-linejoin="round"/>
<path d="M286.311 -114.48C283 -88.8236 311.382 -65.3416 325.81 -45.5558C342.13 -23.161 357.031 -7.28888 389.197 -12.5071C419.235 -17.2905 442.651 -42.9467 473.635 -42.5119C506.985 -41.8596 499.889 -14.0291 524.724 -0.331235C553.343 15.5409 570.845 -9.46314 594.97 -21.2041C625.482 -36.424 656.702 -16.2033 690.288 -17.5079C752.73 -19.8996 820.611 -44.4687 814.225 -114.48" stroke="#AACEC5" stroke-width="1.5" stroke-miterlimit="10" stroke-linecap="round" stroke-linejoin="round"/>
<path d="M1216.55 999.612C1246.82 977.869 1262.9 965.259 1278.51 933.732C1292.94 904.814 1304.3 909.815 1334.33 902.64C1361.53 896.117 1374.07 871.765 1351.36 853.067C1325.35 831.759 1289.39 847.849 1260.54 840.891C1230.26 833.498 1225.3 790.666 1188.16 797.623C1154.11 804.146 1159.54 832.846 1179.41 851.11C1188.64 859.372 1208.5 866.765 1210.4 880.028C1212.05 891.769 1191.71 908.51 1186.74 918.947C1179.41 934.167 1179.65 950.908 1170.19 965.476C1162.15 978.087 1149.14 988.958 1139.68 1000.7" stroke="#AACEC5" stroke-width="1.5" stroke-miterlimit="10" stroke-linecap="round" stroke-linejoin="round"/>
<path d="M-84.3172 921.338C-53.5695 924.817 -29.4444 931.557 -6.02884 909.162C13.8389 890.246 16.6772 865.46 16.6772 840.673C17.1502 789.36 -27.0792 740.005 -84.5537 733.482" stroke="#AACEC5" stroke-width="1.5" stroke-miterlimit="10" stroke-linecap="round" stroke-linejoin="round"/>
<path d="M512.661 1000.7C518.101 977.868 525.197 957.865 509.113 936.775C492.084 914.597 479.075 926.556 456.842 937.209C422.783 953.516 399.841 964.823 417.816 1000.7" stroke="#AACEC5" stroke-width="1.5" stroke-miterlimit="10" stroke-linecap="round" stroke-linejoin="round"/>
<path d="M630.685 337.115C604.904 336.245 572.737 349.508 552.87 354.509C514.08 364.293 474.108 374.077 433.663 372.99C412.14 372.338 374.06 366.25 361.761 387.123C352.3 402.995 359.632 439.522 365.545 456.699C384.23 510.186 424.439 568.891 458.971 614.55C495.632 662.819 576.995 670.864 633.05 693.476C661.433 704.999 682.01 713.914 705.898 689.997C721.982 674.125 729.551 652.6 751.547 641.946C773.543 631.292 800.98 628.683 803.108 599.765C805.237 571.283 772.124 556.28 744.924 559.976C718.671 563.455 708.5 583.676 689.342 559.107C673.022 538.234 664.507 492.139 663.325 466.048C661.906 436.696 674.205 407.996 672.076 378.643C671.13 365.598 667.109 352.552 655.283 344.29C648.424 339.507 639.909 337.332 630.685 337.115Z" stroke="#AACEC5" stroke-width="1.5" stroke-miterlimit="10" stroke-linecap="round" stroke-linejoin="round"/>
<path d="M732.625 101.641C725.293 102.293 718.198 103.381 711.102 104.468C697.857 106.642 684.612 108.816 671.84 112.078C647.714 117.948 625.009 127.515 605.85 142.082C578.65 162.738 522.359 174.914 518.338 212.746C516.446 230.792 524.251 242.968 543.645 244.49C555.235 245.36 567.297 239.272 579.597 239.489C591.659 239.707 601.829 243.403 613.655 244.055C641.328 246.012 669.947 244.925 697.62 245.36C720.326 245.795 750.837 240.794 772.361 247.534C806.656 258.188 809.258 329.504 844.973 329.286C867.442 329.069 892.277 255.579 886.6 237.097C881.397 219.703 861.293 213.616 849.703 200.57C835.985 185.35 834.329 167.739 829.362 149.257C825.105 133.603 818.482 116.426 802.636 107.947C791.519 102.076 778.274 100.989 765.738 100.771C756.514 100.554 747.29 100.554 738.065 100.989C736.173 101.424 734.281 101.424 732.625 101.641Z" stroke="#AACEC5" stroke-width="1.5" stroke-miterlimit="10" stroke-linecap="round" stroke-linejoin="round"/>
<path d="M514.08 471.046C505.329 472.785 500.126 480.395 500.835 490.397C502.254 505.182 516.209 521.489 531.11 526.925C536.077 528.881 541.753 529.751 546.957 527.359C577.704 513.009 546.72 477.351 524.251 471.481C520.466 470.611 517.155 470.394 514.08 471.046Z" stroke="#AACEC5" stroke-width="1.5" stroke-miterlimit="10" stroke-linecap="round" stroke-linejoin="round"/>
<path d="M887.074 -114.48C870.281 -83.6054 852.069 -53.1658 837.641 -21.4216C824.396 7.49606 817.064 9.4529 783.478 12.9317C743.269 17.0628 706.372 31.4129 666.636 35.544C631.868 39.0228 613.892 44.241 586.929 65.7662C564.223 84.03 537.969 99.9021 506.039 97.293C469.142 94.249 446.909 59.2434 416.634 43.3713C383.048 25.7598 350.881 43.5888 316.822 54.2426C286.311 63.8094 246.812 70.1147 225.762 94.4664C208.969 114.035 208.496 135.777 181.532 147.736C154.806 159.477 126.896 162.086 142.98 196.439C156.934 226.009 189.338 247.099 218.43 262.537C240.663 274.278 273.539 288.193 278.506 314.501C284.182 344.724 252.252 351.029 226.708 351.899C184.607 353.421 153.386 350.594 111.995 360.161C41.0391 376.685 -13.3606 335.157 -84.0803 336.027" stroke="#C6E0DD" stroke-width="1.5" stroke-miterlimit="10" stroke-linecap="round" stroke-linejoin="round"/>
<path d="M1736.89 326.895C1708.04 334.505 1670.9 337.549 1655.29 364.51C1639.68 391.471 1654.58 425.389 1651.27 454.307C1647.96 482.79 1624.78 518.013 1642.76 545.191C1660.02 571.499 1708.27 581.283 1737.13 592.807" stroke="#C6E0DD" stroke-width="1.5" stroke-miterlimit="10" stroke-linecap="round" stroke-linejoin="round"/>
<path d="M1735.47 79.9005C1684.86 87.7278 1705.91 164.479 1702.6 196.223C1699.52 224.054 1693.61 250.797 1696.21 279.063C1698.81 306.676 1706.14 309.067 1736.66 309.067" stroke="#C6E0DD" stroke-width="1.5" stroke-miterlimit="10" stroke-linecap="round" stroke-linejoin="round"/>
<path d="M-84.3171 528.014C-48.1295 529.536 23.2998 536.276 13.3659 482.354C6.50682 444.522 -46.9469 423.867 -84.3171 427.345" stroke="#C6E0DD" stroke-width="1.5" stroke-miterlimit="10" stroke-linecap="round" stroke-linejoin="round"/>
<path d="M1736.89 405.169C1689.35 409.735 1708.04 493.879 1735.71 511.273" stroke="#C6E0DD" stroke-width="1.5" stroke-miterlimit="10" stroke-linecap="round" stroke-linejoin="round"/>
<path d="M1248 674.125C1242.09 674.56 1236.41 676.517 1232.16 681.301C1219.62 695.868 1217.26 721.524 1220.09 739.353C1224.83 768.271 1262.2 801.755 1294.6 801.537C1340.25 801.32 1331.02 759.574 1320.85 729.569C1314.47 711.088 1298.86 694.781 1281.35 684.345C1272.84 679.126 1259.59 673.473 1248 674.125Z" stroke="#C6E0DD" stroke-width="1.5" stroke-miterlimit="10" stroke-linecap="round" stroke-linejoin="round"/>
<path d="M516.209 729.133C482.15 741.961 542.936 775.01 561.621 757.616C584.09 736.526 532.529 729.133 517.392 729.133" stroke="#C6E0DD" stroke-width="1.5" stroke-miterlimit="10" stroke-linecap="round" stroke-linejoin="round"/>
<path d="M1628.57 732.394C1637.55 733.264 1647.25 742.396 1652.22 746.962C1662.62 756.746 1668.54 770.226 1649.38 773.705C1636.84 776.097 1623.36 768.704 1616.98 758.92C1613.9 754.354 1612.25 748.701 1614.14 743.265C1615.32 739.569 1617.92 736.09 1621.23 733.916C1623.36 732.611 1625.73 732.177 1628.57 732.394Z" stroke="#C6E0DD" stroke-width="1.5" stroke-miterlimit="10" stroke-linecap="round" stroke-linejoin="round"/>
<path d="M161.191 881.113C135.884 890.027 120.983 923.728 160.009 923.728C197.615 923.728 195.25 887.853 162.374 881.113" stroke="#C6E0DD" stroke-width="1.5" stroke-miterlimit="10" stroke-linecap="round" stroke-linejoin="round"/>
<path d="M1080.31 881.113C1061.86 886.549 1036.79 901.334 1072.74 908.291C1098.76 913.292 1113.9 881.113 1081.49 881.113" stroke="#C6E0DD" stroke-width="1.5" stroke-miterlimit="10" stroke-linecap="round" stroke-linejoin="round"/>
<path d="M934.377 925.903C899.372 941.992 956.847 941.775 935.56 925.903" stroke="#C6E0DD" stroke-width="1.5" stroke-miterlimit="10" stroke-linecap="round" stroke-linejoin="round"/>
<path d="M1615.32 194.047C1602.78 194.047 1605.86 222.965 1606.81 229.27C1608.22 239.489 1613.19 254.492 1627.15 253.405H1627.38C1656.47 250.361 1630.69 211.876 1622.65 200.57C1621.23 198.613 1619.58 195.352 1616.98 194.265C1616.5 194.047 1615.79 194.047 1615.32 194.047Z" stroke="#C6E0DD" stroke-width="1.5" stroke-miterlimit="10" stroke-linecap="round" stroke-linejoin="round"/>
<path d="M1155.76 260.145C1155.52 260.145 1155.29 260.362 1155.05 260.362C1149.37 262.971 1146.3 271.016 1144.64 276.017C1142.52 283.192 1142.99 291.019 1145.59 298.194C1149.85 309.718 1160.25 318.197 1173.97 317.763C1203.3 316.893 1195.5 285.801 1182.25 271.668C1176.81 266.015 1164.98 256.666 1155.76 260.145Z" stroke="#C6E0DD" stroke-width="1.5" stroke-miterlimit="10" stroke-linecap="round" stroke-linejoin="round"/>
<path d="M446.199 272.321C442.888 273.408 439.813 274.93 437.211 276.669C415.215 292.976 419.945 321.677 451.639 317.763C463.465 316.241 482.86 302.543 484.515 291.019C487.354 271.669 462.992 267.103 446.199 272.321Z" stroke="#C6E0DD" stroke-width="1.5" stroke-miterlimit="10" stroke-linecap="round" stroke-linejoin="round"/>
<path d="M718.198 140.778C716.542 140.995 714.65 141.213 712.994 141.648C694.782 145.126 664.271 157.737 667.819 178.827C671.603 201.657 712.521 205.571 731.916 204.484C756.987 203.179 787.262 187.307 769.523 161.433C758.17 144.909 738.302 138.604 718.198 140.778Z" stroke="#C6E0DD" stroke-width="1.5" stroke-miterlimit="10" stroke-linecap="round" stroke-linejoin="round"/>
<path d="M732.625 120.34C731.916 120.34 731.443 120.34 730.733 120.34C718.907 120.992 707.791 124.471 696.674 127.515C685.794 130.341 674.914 133.82 664.744 138.604C646.768 146.866 631.394 159.259 621.934 175.783C594.97 222.312 685.558 223.617 718.434 225.574C757.46 227.966 807.129 226.444 810.677 181.219C812.096 162.738 806.42 144.909 788.917 134.472C772.834 125.123 751.311 119.687 732.625 120.34Z" stroke="#C6E0DD" stroke-width="1.5" stroke-miterlimit="10" stroke-linecap="round" stroke-linejoin="round"/>
<path d="M1367.21 90.3355C1360.11 90.7704 1353.49 94.9014 1348.29 99.2499C1336.23 109.469 1328.66 126.211 1331.26 141.431C1331.5 142.083 1331.5 142.953 1331.73 143.605C1335.75 160.781 1353.73 164.913 1370.52 161.216C1397.25 155.563 1404.34 125.558 1391.34 105.773C1387.31 99.6848 1381.4 93.3795 1373.36 91.2052C1371.23 90.3355 1369.34 90.1181 1367.21 90.3355Z" stroke="#C6E0DD" stroke-width="1.5" stroke-miterlimit="10" stroke-linecap="round" stroke-linejoin="round"/>
<path d="M1170.43 412.342C1167.59 412.777 1164.51 413.864 1161.91 415.386C1132.11 431.475 1120.28 469.742 1119.1 499.53C1117.92 527.143 1128.56 558.887 1162.15 563.888C1203.77 569.976 1204.48 524.969 1196.92 500.182C1192.66 485.832 1194.79 469.525 1194.08 454.74C1193.37 442.347 1193.37 421.909 1180.36 414.299C1177.28 412.342 1173.74 411.907 1170.43 412.342Z" stroke="#C6E0DD" stroke-width="1.5" stroke-miterlimit="10" stroke-linecap="round" stroke-linejoin="round"/>
<path d="M506.512 434.086C419.236 446.914 493.976 600.851 566.115 578.456C601.593 567.585 602.776 518.012 594.497 490.616C580.07 441.695 559.019 434.086 507.458 434.086" stroke="#C6E0DD" stroke-width="1.5" stroke-miterlimit="10" stroke-linecap="round" stroke-linejoin="round"/>
<path d="M207.786 440.172C200.217 441.912 192.885 446.26 188.155 453C172.308 474.526 186.026 498.008 214.645 496.051C235.459 494.529 253.435 479.309 246.339 459.088C240.662 442.564 223.16 436.476 207.786 440.172Z" stroke="#C6E0DD" stroke-width="1.5" stroke-miterlimit="10" stroke-linecap="round" stroke-linejoin="round"/>
<path d="M1463.95 560.628C1470.33 562.367 1477.43 563.454 1484.05 562.367C1514.56 557.801 1509.36 517.577 1503.68 498.009C1500.13 485.398 1494.69 472.135 1485.71 461.916C1474.12 448.653 1457.32 473.657 1451.88 481.92C1436.04 506.054 1424.92 550.191 1463.95 560.628Z" stroke="#C6E0DD" stroke-width="1.5" stroke-miterlimit="10" stroke-linecap="round" stroke-linejoin="round"/>
<path d="M1054.77 500.838C1052.64 501.055 1050.75 501.707 1048.85 502.577C1038.92 508.013 1000.13 530.842 1028.28 538.452C1039.39 541.496 1052.87 529.973 1059.02 522.798C1062.33 519.101 1065.88 513.883 1065.41 508.665C1064.7 502.794 1059.97 500.403 1054.77 500.838Z" stroke="#C6E0DD" stroke-width="1.5" stroke-miterlimit="10" stroke-linecap="round" stroke-linejoin="round"/>
<path d="M885.891 514.968C873.119 514.316 856.089 525.405 852.305 533.884C846.865 545.408 853.961 561.28 868.152 563.019C881.87 564.759 894.169 552.583 898.663 541.929C901.501 535.189 901.028 524.97 895.825 519.317C893.223 516.49 889.675 515.186 885.891 514.968Z" stroke="#C6E0DD" stroke-width="1.5" stroke-miterlimit="10" stroke-linecap="round" stroke-linejoin="round"/>
<path d="M1503.45 619.332C1505.81 605.851 1495.4 596.719 1481.69 594.11C1475.3 592.806 1467.5 591.936 1460.87 591.718C1454.01 591.501 1447.15 593.24 1442.9 598.459C1437.93 604.112 1436.51 611.939 1436.98 619.114C1437.69 632.595 1445.97 649.989 1462.29 652.38C1476.48 654.772 1501.08 631.725 1503.45 619.332Z" stroke="#C6E0DD" stroke-width="1.5" stroke-miterlimit="10" stroke-linecap="round" stroke-linejoin="round"/>
<path d="M849.703 615.204C845.446 615.856 841.188 617.378 836.931 619.987C827.707 625.423 820.375 633.685 811.86 640.208C799.561 649.774 787.025 659.341 773.78 668.038C752.966 681.519 724.82 709.132 738.775 735.223C745.161 746.964 764.792 753.704 775.672 761.531C790.573 772.185 799.324 783.926 811.15 796.972C840.715 830.238 862.948 844.153 906.941 826.759C945.967 811.322 988.541 796.537 1024.96 776.316C1063.99 754.574 1048.14 738.049 1026.62 708.044C1007.23 680.866 994.927 655.862 961.341 641.512C942.183 633.25 921.842 627.379 901.265 622.596C891.094 620.204 880.924 618.248 870.753 616.508C863.185 614.986 856.562 614.117 849.703 615.204Z" stroke="#C6E0DD" stroke-width="1.5" stroke-miterlimit="10" stroke-linecap="round" stroke-linejoin="round"/>
<path d="M1148.9 640.641C1145.83 641.945 1143.23 644.337 1141.81 648.468C1138.26 658.47 1143.46 672.82 1157.42 668.036C1165.46 665.21 1168.3 656.295 1165.69 649.338C1162.62 641.293 1154.81 638.249 1148.9 640.641Z" stroke="#C6E0DD" stroke-width="1.5" stroke-miterlimit="10" stroke-linecap="round" stroke-linejoin="round"/>
</g>
<path d="M1785 -53.3384H-40.5V978.961H1785L1785 -53.3384Z" fill="url(#paint0_linear_1_289)"/>
</g>
<defs>
<linearGradient id="paint0_linear_1_289" x1="872.25" y1="-53.3384" x2="872.25" y2="978.961" gradientUnits="userSpaceOnUse">
<stop stop-color="white"/>
<stop offset="0.211458" stop-color="white" stop-opacity="0.7"/>
<stop offset="0.471875" stop-color="white" stop-opacity="0.15"/>
<stop offset="0.727083" stop-color="white" stop-opacity="0.4"/>
<stop offset="1" stop-color="white"/>
</linearGradient>
</defs>
</svg>
